<svg xmlns="http://www.w3.org/2000/svg" viewBox="0 0 74.57 73.2"><title>digital-transformation</title><path d="M68.05,47.2a4.51,4.51,0,0,0-4.23,3H11v3H39V64.62a5.51,5.51,0,0,1-5.41,5.58H8.5A5.51,5.51,0,0,1,3,64.7V8.7A5.58,5.58,0,0,1,8.46,3h1A6.32,6.32,0,0,0,11,6.75a4.6,4.6,0,0,0,3.2,1.47H27.9a4.57,4.57,0,0,0,3.19-1.49A6.19,6.19,0,0,0,32.56,3h1a5.59,5.59,0,0,1,5.51,5.66v10H18.52v3H49.13a4.5,4.5,0,1,0,0-3H47.31l6-6H63.82a4.5,4.5,0,1,0,0-3H52l-9,9H42v-10A8.6,8.6,0,0,0,33.5,0H8.5A8.58,8.58,0,0,0,0,8.66H0V64.6a8.5,8.5,0,0,0,8.4,8.6H33.56a8.52,8.52,0,0,0,8.5-8.5V53.2H43.7l8.19,8.19a1.49,1.49,0,0,0,1.07.45h3.17a4.5,4.5,0,1,0,0-3H53.54L47.91,53.2H63.82a4.5,4.5,0,0,0,8.6-2.62A4.57,4.57,0,0,0,68.05,47.2Zm0,6.5v-.5a1.5,1.5,0,1,1,1.5-1.5,1.5,1.5,0,0,1-1.5,1.5h0v.5ZM12.49,3H29.56a3.39,3.39,0,0,1-.68,1.69l-.08.1a1.56,1.56,0,0,1-.89.41H14.21a1.67,1.67,0,0,1-1-.49A3.27,3.27,0,0,1,12.49,3ZM51.8,20.2a1.5,1.5,0,1,1,1.5,1.5A1.5,1.5,0,0,1,51.8,20.2Zm14.75-9a1.5,1.5,0,1,1,1.5,1.5,1.5,1.5,0,0,1-1.5-1.5ZM61.8,60.34a1.5,1.5,0,1,1-1.5-1.5A1.5,1.5,0,0,1,61.8,60.34Z" transform="translate(0)" style="fill:#fff"/><path d="M56.34,47.2h0a4.5,4.5,0,1,0-4.26-6H26v3H52.13A4.53,4.53,0,0,0,56.34,47.2Zm0-6a1.5,1.5,0,0,1,0,3h0a1.5,1.5,0,0,1-1.43-1.07v-.86a1.5,1.5,0,0,1,1.44-1.07Z" transform="translate(0)" style="fill:#fff"/><path d="M74.42,30a4.5,4.5,0,0,0-8.6-.37h-16a1.46,1.46,0,0,0-1,.44L45.17,33.7H21.52v3H45.79a1.5,1.5,0,0,0,1.06-.44l3.64-3.63H65.82A4.5,4.5,0,0,0,74.42,30Zm-2.87,1.13a1.5,1.5,0,1,1-1.5-1.5,1.5,1.5,0,0,1,1.5,1.5Z" transform="translate(0)" style="fill:#fff"/><path d="M38.13,23.34A4.56,4.56,0,0,0,35,26.2H24.52v3H35a4.49,4.49,0,0,0,4.24,3,4.79,4.79,0,0,0,1.13-.14,4.5,4.5,0,0,0-2.25-8.72Zm2.61,4.36a1.5,1.5,0,1,1-1.5-1.5,1.5,1.5,0,0,1,1.5,1.5Z" transform="translate(0)" style="fill:#fff"/><rect x="12.52" y="18.7" width="4" height="3" style="fill:#fff"/><rect x="20.02" y="41.2" width="4" height="3" style="fill:#fff"/><rect x="14.02" y="41.2" width="4" height="3" style="fill:#fff"/><rect x="5.02" y="50.2" width="4" height="3" style="fill:#fff"/><rect x="18.52" y="26.2" width="4" height="3" style="fill:#fff"/><rect x="6.52" y="18.7" width="4" height="3" style="fill:#fff"/></svg>