<svg xmlns="http://www.w3.org/2000/svg" viewBox="0 0 124.96 85.84"><title>disaster-management</title><path d="M42.74,20.55C36.76,30,30.68,39.6,25.55,47.7a3.66,3.66,0,0,0-.44,3.53c1,1.52,2.25,1.68,3.79,1.44l5.65-1.57C36.27,58,38,64.92,39.74,71.85L12.55,80.49a2.05,2.05,0,0,0-1.37,1.92V92.47a2.08,2.08,0,0,0,2,2c37,.09,64,.09,106,0a2.09,2.09,0,0,0,2-2V80.4a2.07,2.07,0,0,0-1.13-1.83c-11.29-5-38.09-11.51-49.47-16.22q-2.92-9.72-5.87-19.45L70,41.45c1.39-.71,2.55-1.45,2.81-2.64A3.45,3.45,0,0,0,71,35.32C61.19,30.22,51.16,25,42.74,20.55Zm1.44,5.25L67.43,38q-3.89,1-7.75,2.14c2,6.61,4.9,15.87,6.89,22.48-.26,0-5.93-2.59-9-3.62.28-1.11.56-2.22.85-3.33-4.35-4.31-7.68-7.7-11.94-12l1.65,13.42c-.36,1.14-.73,2.27-1.12,3.4.8,1.43,2.6,6.49,3.39,7.93l-6.75,2C41.9,63.54,39.16,53,37.43,46.17l-7.44,2Zm7.68,29,2.1,2.1c-.39,1.58-.79,3.15-1.19,4.72,5.61,1.9,11.23,3.77,16.84,5.66C67.1,70.11,64.52,72.9,62,75.77c.64,3.28,1.29,6.54,1.94,9.81l-3.44,2.7L61.33,85q-2.38-3.39-4.78-6.76C58,75.67,59.48,73.08,61,70.49c-1.78-.87-3.55-1.77-5.31-2.67l-4.32-7.76c.29-.87.58-1.74.88-2.61-.13-.89-.23-1.78-.35-2.67ZM74,68.39l43.16,13.26v8.8H64.27l4.09-3.2Q67.33,82.1,66.3,77Zm-20,3.14,1.31.66c-1.18,2.11-2.39,4.2-3.56,6.32,1.76,2.43,3.48,4.88,5.22,7.32l-1.16,4.62H15.18V83.88Z" transform="translate(-2.86 -8.7)"/><path d="M23.29,34.59a1.49,1.49,0,0,0,1.27-.14c1.37-1.21,1.81-3,2.54-4.55A8.75,8.75,0,0,1,28.48,36c.73-1.29,1.53-2.52,2.3-3.77a10.77,10.77,0,0,0-2.55-5,1.82,1.82,0,0,0-2.74.45,16.81,16.81,0,0,0-1.19,2.47c-.08-.35-.1-.58-.21-1-.65-2.39-1.91-5.36-4.69-7.09a1.26,1.26,0,0,0-1.16-.07,1.22,1.22,0,0,0-.69,1.08c-.06,3.63-.81,4.38-1.78,5.56A8.17,8.17,0,0,0,14,32.33a7.4,7.4,0,0,1-.47-1.58,1.21,1.21,0,0,0-2.26-.38c-1.16,2.24-2.67,4.84-1.53,8.41a12.06,12.06,0,0,0,5.56,6.74,13.48,13.48,0,0,1-3-.74A10.45,10.45,0,0,1,5.63,38c-.87-2.74.18-5.76,1.32-9.14a25.63,25.63,0,0,0,1.38-6c1.58,2,2.88,3.56,2.88,3.56a1.25,1.25,0,0,0,1.35.28,1.24,1.24,0,0,0,.74-1.16c.12-2.16,1.61-3.85,2.29-5.62.79-2.07.79-4.82-1-8.37h0c2.87.79,4.58,2.84,5.91,5.08.83,1.39,1.49,2.8,2.18,3.92s2,2.26,3.32,1.87a3.13,3.13,0,0,0,2.11-2.75A5.22,5.22,0,0,0,28,18.57a30.89,30.89,0,0,1,5.67,8L35,23.79a37,37,0,0,0-7.83-9.51,2.54,2.54,0,0,0-1.66-.54,1.47,1.47,0,0,0-1,1.8,19.1,19.1,0,0,0,.76,2,6.07,6.07,0,0,1,.44,1.95c-.19.95-.66.11-1-.3-.55-.89-1.23-2.34-2.15-3.88-1.82-3.06-4.86-6.56-10.24-6.64a1.33,1.33,0,0,0-1,.56h0a1.25,1.25,0,0,0,0,1.34c2.92,4.33,2.72,6.49,2,8.41-.63,1.47-1.36,2.58-1.9,3.93a47.52,47.52,0,0,1-3.85-5.35A1.24,1.24,0,0,0,6,17.13a1.26,1.26,0,0,0-.56,1.56c1.23,3,.34,6-.78,9.34S2.13,35,3.32,38.68a13,13,0,0,0,8.09,8.38,16.83,16.83,0,0,0,5.85,1c1.73-.55,1.52-2.24,1.11-4A9.7,9.7,0,0,1,12,38.05a5.54,5.54,0,0,1,.11-3.84,4.33,4.33,0,0,0,2.07,2.07,2.7,2.7,0,0,0,.72.13,1.26,1.26,0,0,0,1.23-1.27c-.13-3.23.5-3.71,1.49-4.91a9.09,9.09,0,0,0,2.08-4.52,11.57,11.57,0,0,1,2,4.16c.34,1.24.52,2.5.75,3.68A1.71,1.71,0,0,0,23.29,34.59Z" transform="translate(-2.86 -8.7)"/><path d="M82.17,11.75c-9.25.3-15.64,1.34-17.68,2.89-1.52,1.15-1.35,2.8.42,4.05a12.56,12.56,0,0,0,3.87,1.71c.78.16,5.94,1,7.32,1.17,3.27.45,7.72.83,11.39,1,1,0,2.4.1,3.05.14,1.56.09,7.51.09,9.16,0l3-.14C115.12,22,125.08,20,127.32,17.6c.71-.78.67-1.47-.17-2.26s-2.8-1.7-5.76-2.46c-.66-.17-1.23-.3-1.27-.29s.21.13.57.26c2.54.88,3.94,2.09,3.65,3.15s-2.25,2.23-5.53,3.15c-.55.16-1.2.32-1.45.38l-.45.11.21-.15a4.76,4.76,0,0,0,1.14-1.26,2.08,2.08,0,0,0,.08-1.58c-.6-1.34-2.8-2.33-7.08-3.15C104.42,12.15,92.22,11.43,82.17,11.75Zm9.38,1.87q13,.32,20.44,2c2.41.53,4.39,1.35,4.34,1.77s-1.37,1-2.92,1.48l-.82.25-1.12-.25a93.23,93.23,0,0,0-18.12-1.61c-8.68-.11-15.72.54-19.51,1.79-.78.25-.82.25-2.58-.19a16,16,0,0,1-4.63-1.72,2.57,2.57,0,0,1-.59-.49c-.11-.17-.11-.17.07-.35.89-.82,4.16-1.62,8.65-2.1A129.37,129.37,0,0,1,91.55,13.62Zm3.22,5.05a107,107,0,0,1,12.83.95,4.82,4.82,0,0,1,1.22.23c-.16.06-2.41.37-3.69.52a128.91,128.91,0,0,1-20,.38c-2.82-.18-7.48-.67-8.45-.88l-.21,0,.24-.06a81.09,81.09,0,0,1,12.92-1.12l1.7,0C91.64,18.61,93.22,18.64,94.77,18.67Z" transform="translate(-2.86 -8.7)"/><path d="M69.92,21.08a3,3,0,0,0,.69,1.32,9.5,9.5,0,0,0,3.42,2l.65.23.16.45a2.8,2.8,0,0,0,.72,1.2l.2.19-.42.4a2,2,0,0,0-.8,1.52A2.56,2.56,0,0,0,75.09,30l.22.33-.24.24-.25.24-.55-.14a15.89,15.89,0,0,1-3.55-1.36c-1.47-.87-1.65-1.85-.47-2.73a9.35,9.35,0,0,1,2.15-1.07,1.57,1.57,0,0,0,.5-.23,20.63,20.63,0,0,0-2.74.72c-2.29.78-3.46,1.61-3.46,2.47,0,2.1,7,4,17.31,4.71,3.33.23,4.79.28,9.17.28s5.85,0,9.18-.28a74.23,74.23,0,0,0,11.73-1.63c1.33-.32,1.28-.33-.51,0-1.44.25-3.35.5-5.25.7-2.11.21-2.22.21-1.51,0,2.13-.73,3.44-1.77,3.77-3l.12-.42.89-.26c2.6-.78,4.06-1.68,4.64-2.87a1.36,1.36,0,0,0,.22-.95,1.78,1.78,0,0,0-.21-.77l-.18-.3.45-.37a3.14,3.14,0,0,0,1-1.49,1.13,1.13,0,0,0,0-.15c-.91.14-2,.32-2.39.34a2.29,2.29,0,0,1-1,.71c-2.26,1.13-7.32,2-13.8,2.46-1.81.12-7.67.17-9.76.07-8.74-.37-16.2-1.85-17.93-3.55l-.21-.2S70.63,21.19,69.92,21.08ZM113.65,25c.58.36.58.48,0,.87-1.6,1.1-5.89,2.05-11.22,2.49a81.55,81.55,0,0,1-14.6-.18c-4.3-.47-7.7-1.26-9.49-2.2-.51-.27-1.12-.78-1-.9a2.49,2.49,0,0,1,.79.11,80.41,80.41,0,0,0,11.48,1.41c8.09.42,17.51-.27,22.54-1.66a6.85,6.85,0,0,1,.91-.21A2.26,2.26,0,0,1,113.65,25ZM80.44,28.25a54.34,54.34,0,0,0,11.18,1.64c1.82.12,7,.12,8.83,0,2.56-.15,5-.4,6.8-.7a4.49,4.49,0,0,1,1-.09c.65.26-.46,1-2.35,1.66-5.35,1.76-15.5,2.09-22.74.75-3.07-.57-5.48-1.46-6-2.25-.09-.12-.08-.16.06-.32a5.47,5.47,0,0,1,2.28-1C79.54,28,80,28.11,80.44,28.25Z" transform="translate(-2.86 -8.7)"/><path d="M74.45,32.53a3.7,3.7,0,0,0,.77,1.33l.34.37-.18.24a2,2,0,0,0-.29,1.81l.08.27-.32.32a1.76,1.76,0,0,0-.65,1.51,1.64,1.64,0,0,0,.2,1,4.72,4.72,0,0,0,1.27,1.52,11.7,11.7,0,0,0,2.3,1.2c.56.21.62.27.62.49A3.72,3.72,0,0,0,80,44.51a9.61,9.61,0,0,0,2.13,1,2.3,2.3,0,0,1,.57.22,18.9,18.9,0,0,1-2,0,72.89,72.89,0,0,1-11.41-1.06c-.17,0-.17,0,0,0a33.41,33.41,0,0,0,3.54.73,92.62,92.62,0,0,0,12.33.86c1.86,0,5.35-.14,7.48-.31,6-.47,10.44-1.51,11.65-2.7.5-.49.52-.86.07-1.35a7.07,7.07,0,0,0-3.17-1.49c-1-.27-1.28-.28-.58,0a3.35,3.35,0,0,1,2,1.46c.29,1.06-1.93,2.13-6,2.88-1.16.22-1.2.22-1.3,0s-.17-.27-.27-.4l-.2-.24.17-.21a2.42,2.42,0,0,0,.45-1.46c0-.5,0-.5.23-.59a7.56,7.56,0,0,0,1.74-1.26,3,3,0,0,0,.7-1.35c0-.25.08-.28.57-.54a3.6,3.6,0,0,0,2.11-2.35l.09-.4.64-.22a11.38,11.38,0,0,0,2.2-1.05,5.38,5.38,0,0,0,1.2-1.18c.07-.15.07-.15-.18-.15s-.71,0-1.26.09a3.35,3.35,0,0,0-1.53.34c-3.31,1.54-10.57,2.2-16.82,1.5-3.68-.41-6.68-1.26-7.85-2.23-.33-.28-.35-.28-1.52-.48l-1.2-.2A.15.15,0,0,0,74.45,32.53Zm5.29,3.27a45,45,0,0,0,17.8.69c1-.16,1-.17,1.11,0s.13.14-.16.42c-.74.7-2.8,1.38-5.23,1.73a26.53,26.53,0,0,1-4.09.32A29.72,29.72,0,0,1,80.59,38,6.18,6.18,0,0,1,77.5,36.5c-.1-.18-.1-.19.07-.32a5.67,5.67,0,0,1,1.23-.62S79.27,35.67,79.74,35.8Zm-1.34,3a27,27,0,0,0,9.9,1.58,32.5,32.5,0,0,0,7-.67,5.78,5.78,0,0,1,.76-.14,1.18,1.18,0,0,1-.27.3c-.79.73-2.85,1.4-5.48,1.75a39.65,39.65,0,0,1-6.89,0,29.87,29.87,0,0,1-4.17-.87c-1.8-.59-3-1.44-2.55-1.81a4.11,4.11,0,0,1,.91-.49A7.59,7.59,0,0,1,78.4,38.78Zm14.83,4c.3.21.32.27.1.48a7.13,7.13,0,0,1-3.07,1.16,24.27,24.27,0,0,1-4.69.13,9.93,9.93,0,0,1-4.47-1.36c-.12-.1-.22-.22-.22-.27,0-.21.18-.23.92-.11a30.54,30.54,0,0,0,10.34-.09C92.77,42.6,92.94,42.6,93.23,42.8Z" transform="translate(-2.86 -8.7)"/><path d="M94.37,46.19c-.63.07-.77.11-.93.27a5.74,5.74,0,0,1-2.74.95,15.78,15.78,0,0,1-3.54-.11,8.76,8.76,0,0,1-1.65-.52c-.22-.12-.41-.13-1.4-.13H83l.2.3a4.88,4.88,0,0,0,2.16,1.57l.39.14.12.48A2.77,2.77,0,0,0,87,50.75a.85.85,0,0,1,.42.69,2.68,2.68,0,0,0,1,1.59c.11.07.18.23.22.52A2.59,2.59,0,0,0,90,55.39a2,2,0,0,0,1.07.16,1.79,1.79,0,0,0,1.11-.19,2.32,2.32,0,0,0,1.22-1.8,1.18,1.18,0,0,1,.44-.87,2.3,2.3,0,0,0,.68-1.41c0-.29.11-.39.55-.83a2.32,2.32,0,0,0,.83-1.86,1.83,1.83,0,0,0-.54-1.42L95.11,47l.12-.31a2.08,2.08,0,0,0,.12-.43C95.36,46.07,95.41,46.07,94.37,46.19Zm-1.48,2.52A2.76,2.76,0,0,1,94,49.2c.08.11-.57.47-1.15.66a7.38,7.38,0,0,1-2.45.27,4.63,4.63,0,0,1-2.49-.78c-.12-.14-.12-.14.11-.28s.35-.14,1.08-.14a12.63,12.63,0,0,0,2.55-.24A1.88,1.88,0,0,1,92.89,48.71Zm-.38,2.84c.19,0,0,.14-.32.28a3.8,3.8,0,0,1-2.56-.06c-.42-.2-.14-.25,1.37-.24C91.78,51.53,92.46,51.54,92.51,51.55Z" transform="translate(-2.86 -8.7)"/></svg>