<svg xmlns="http://www.w3.org/2000/svg" viewBox="0 0 96.7 92.77"><title>education</title><path d="M44.55,69.28v.12h1.93V53.76a4,4,0,0,0,1.72-7L50,44.88c1.06-1,6.39-6.24,6.67-9.58V33.4a.93.93,0,0,0-.27-.69,1,1,0,0,0-1.69.72v1.74c-.23,2.3-4.47,6.79-6.09,8.32h0L46.32,45.9h-.56l-21,.12h-.34a4.68,4.68,0,0,1-1.33-3.24l.14-7.63L23.3,22.7V20.38A2.38,2.38,0,0,1,24,18.75a2.14,2.14,0,0,1,1.5-.6h.06a2.27,2.27,0,0,1,2.16,2.37V22.7a1,1,0,0,0,1.2.75,1,1,0,0,0,.75-.75l0-2.45a2.3,2.3,0,0,1,.73-1.65A2.38,2.38,0,0,1,32.15,18a2.35,2.35,0,0,1,1.65.74,2.29,2.29,0,0,1,.65,1.7v2.22a.09.09,0,0,0,0,.07h.12l-.12.05v.16h0V23l.06.1.1-.06-.09.09h0l.1.12h0l.14.11a.56.56,0,0,0,.17.09.64.64,0,0,0,.18.06A1,1,0,0,0,36.34,23v-.15h0V20.32a2.4,2.4,0,0,1,.73-1.65,2.36,2.36,0,0,1,4,1.75v2.46h0v.18l.11-.06-.1.09v.09l.07.08v.06l.06.06h0l.12.07h0l.15.05h.16a1,1,0,0,0,1-.76V20.17a2.4,2.4,0,0,1,.73-1.65,2.36,2.36,0,0,1,4,1.77V38.46a1,1,0,1,0,2,0V20.33a4.34,4.34,0,0,0-1.18-3.06,4.27,4.27,0,0,0-3-1.34H45a4.28,4.28,0,0,0-3,1.18,4.07,4.07,0,0,0-.4.43,4.29,4.29,0,0,0-6-.67,2.09,2.09,0,0,0-.28.24,5.22,5.22,0,0,0-.39.43l-.24-.27a4.3,4.3,0,0,0-6.08-.16h0a4.32,4.32,0,0,0-.45.5,4.1,4.1,0,0,0-5.77-.55l-.23.2a4.26,4.26,0,0,0-1.32,3V22l-.08,13.09-.14,7.61a6.51,6.51,0,0,0,1.34,4,5.27,5.27,0,0,0-.51.43,4,4,0,0,0,1.88,6.67V69.4h1.95V54L44,53.84ZM24.8,52a2,2,0,0,1,0-4.08l21-.11h.41a1.91,1.91,0,0,1,.69.29,2.15,2.15,0,0,1,.72.86h0a2.14,2.14,0,0,1,.16.79,2,2,0,0,1-.59,1.45,2,2,0,0,1-1.43.6Z" transform="translate(-0.1 -0.19)" style="fill:#fff"/><path d="M51.47,32h20a2.36,2.36,0,0,0,2,1.35,2.31,2.31,0,0,0,2-1.35H78a1,1,0,0,0,1-1V24a1,1,0,0,0-1-1H75.52a2.28,2.28,0,0,0-.48-.67,2.17,2.17,0,0,0-1.57-.67,2.32,2.32,0,0,0-2,1.34H51.48a1,1,0,0,0-.75,1.2,1,1,0,0,0,.75.75H71.1V30H51.47a1,1,0,0,0,0,1.94ZM73.88,24.2h0v6.45a.43.43,0,0,1,0,.16h0c-.06.33-.26.56-.41.56h0a.33.33,0,0,1-.23-.15,1,1,0,0,1-.19-.6V24.37c0-.44.25-.74.42-.74a.3.3,0,0,1,.2.1.9.9,0,0,1,.21.44Zm2,5.89V25h1.19v5Z" transform="translate(-0.1 -0.19)" style="fill:#fff"/><path d="M19.7,23H6.27v.12L6.19,23h0l-.13.07h0L.42,26.71l-.08.05.08.1-.1-.07H.26l-.06.07-.05.06h0v0l0,.1v.18a.21.21,0,0,0,0,.11.11.11,0,0,0,0,.08v.1a.11.11,0,0,0,0,.08v.18a.09.09,0,0,0,0,.07h0v.07l.1-.07L.12,28l.11.13.13.1.08-.09h0l0,.23L6,31.85l.15.08.15.1H19.65a1,1,0,0,0,.49-1.94,1,1,0,0,0-.49,0H7.51V25H19.7a1,1,0,0,0,.75-1.2,1,1,0,0,0-.75-.75ZM5.56,25.77v3.5L2.79,27.52Z" transform="translate(-0.1 -0.19)" style="fill:#fff"/><path d="M19.67,26.38H9.48a1,1,0,0,0,0,1.94H19.67a1,1,0,0,0,0-1.94Z" transform="translate(-0.1 -0.19)" style="fill:#fff"/><path d="M51.47,28.32h18a1,1,0,0,0,.49-1.94,1,1,0,0,0-.49,0h-18a1,1,0,0,0,0,1.94Z" transform="translate(-0.1 -0.19)" style="fill:#fff"/><path d="M35.42,6a1,1,0,0,0,1-1V1a1,1,0,0,0-1.2-.75,1,1,0,0,0-.75.75V5A1,1,0,0,0,35.42,6Z" transform="translate(-0.1 -0.19)" style="fill:#fff"/><path d="M23.91,8.43a1,1,0,0,0,.84.48.89.89,0,0,0,.48-.13,1,1,0,0,0,.36-1.33L23.54,3.9a1,1,0,0,0-1.78.24.93.93,0,0,0,.1.73Z" transform="translate(-0.1 -0.19)" style="fill:#fff"/><path d="M12.87,14.57l3.55,2.05a.89.89,0,0,0,.48.13,1,1,0,0,0,.93-1.06,1,1,0,0,0-.41-.75l-3.56-2a.93.93,0,0,0-.73-.1,1,1,0,0,0-.26,1.78Z" transform="translate(-0.1 -0.19)" style="fill:#fff"/><path d="M54,16.75a1.05,1.05,0,0,0,.49-.13L58,14.57a1,1,0,0,0,.45-.59,1,1,0,0,0-.1-.74,1,1,0,0,0-.59-.45,1,1,0,0,0-.73.09l-3.55,2.06a1,1,0,0,0-.46.58A1,1,0,0,0,54,16.75Z" transform="translate(-0.1 -0.19)" style="fill:#fff"/><path d="M45.68,8.78a.89.89,0,0,0,.48.13A1,1,0,0,0,47,8.43l2.06-3.56a.93.93,0,0,0,.09-.73,1,1,0,0,0-1.78-.24l-2,3.55A1,1,0,0,0,45.68,8.78Z" transform="translate(-0.1 -0.19)" style="fill:#fff"/><path d="M86.68,57.11a.8.8,0,0,0-.49-.41,22.82,22.82,0,0,0-15.58.7.84.84,0,0,0-.45,1.08.81.81,0,0,0,.77.52.87.87,0,0,0,.32-.06,21.13,21.13,0,0,1,14.45-.65.84.84,0,0,0,.64-.06.82.82,0,0,0,.4-.49.86.86,0,0,0,0-.32A.81.81,0,0,0,86.68,57.11Z" transform="translate(-0.1 -0.19)" style="fill:#fff"/><path d="M70.16,51.41a.83.83,0,0,0,1.08.46,21.27,21.27,0,0,1,14.46-.65.8.8,0,0,0,.64-.06.82.82,0,0,0,.4-.49.77.77,0,0,0-.06-.63.8.8,0,0,0-.49-.41,22.82,22.82,0,0,0-15.58.7.77.77,0,0,0-.37.34A.78.78,0,0,0,70.16,51.41Z" transform="translate(-0.1 -0.19)" style="fill:#fff"/><path d="M95.21,46.38H91.87V43.33a1.1,1.1,0,0,0-.59-1,23.84,23.84,0,0,0-25.17,1,25.38,25.38,0,0,0-7.28-3.27h-.09v.09a11,11,0,0,1-1.18,1.7l-.14.18.19,0A22.93,22.93,0,0,1,65,45.32V81.38a25.6,25.6,0,0,0-22.42-1V73.74h-7.2V86.82A1.59,1.59,0,0,0,37,88.41H60.09a6.23,6.23,0,0,0,12,0H95.21a1.59,1.59,0,0,0,1.59-1.59V48A1.59,1.59,0,0,0,95.21,46.38Zm-28,35v-36A21.65,21.65,0,0,1,89.65,44V80.35a25.62,25.62,0,0,0-22.43,1ZM37.65,74h2.7v8a1.1,1.1,0,0,0,.53.94A1.08,1.08,0,0,0,42,83a24.42,24.42,0,0,1,10.77-2.6,24.07,24.07,0,0,1,12.79,3.78h.31a1.14,1.14,0,0,0,.58,0h.22A23.58,23.58,0,0,1,90.27,83a1.09,1.09,0,0,0,1.08,0,1.07,1.07,0,0,0,.52-.94V48.6h2.71V86.19H71.21a1.1,1.1,0,0,0-1.11,1,4,4,0,0,1-8,0,1.12,1.12,0,0,0-1.11-1H37.65Z" transform="translate(-0.1 -0.19)" style="fill:#fff"/><path d="M70.93,66a.71.71,0,0,0,.32-.07,21.19,21.19,0,0,1,14.45-.64.89.89,0,0,0,.64-.06.82.82,0,0,0,.4-.49.8.8,0,0,0-.06-.64.78.78,0,0,0-.49-.4,22.82,22.82,0,0,0-15.58.7.84.84,0,0,0-.45.44.88.88,0,0,0,0,.64A.84.84,0,0,0,70.93,66Z" transform="translate(-0.1 -0.19)" style="fill:#fff"/><path d="M85.7,72.42a.8.8,0,1,0,.45-1.54,22.82,22.82,0,0,0-15.58.69.84.84,0,0,0-.45,1.09.83.83,0,0,0,.77.51.87.87,0,0,0,.32-.06A21.19,21.19,0,0,1,85.7,72.42Z" transform="translate(-0.1 -0.19)" style="fill:#fff"/><path d="M61.61,50.33A22.72,22.72,0,0,0,55,48.71h-.09v.08a11,11,0,0,1-.78,1.33L54,50.3h.22A21.1,21.1,0,0,1,61,51.86a.87.87,0,0,0,.32.06.83.83,0,0,0,.32-1.6h0Z" transform="translate(-0.1 -0.19)" style="fill:#fff"/><path d="M62.07,57.85a.79.79,0,0,0-.46-.45,22.7,22.7,0,0,0-9.77-1.69h-.11v.11a8.45,8.45,0,0,1-.19,1.41v.16h.16A21.1,21.1,0,0,1,61,59h0a.87.87,0,0,0,.32.06.81.81,0,0,0,.77-.52A.84.84,0,0,0,62.07,57.85Z" transform="translate(-0.1 -0.19)" style="fill:#fff"/><path d="M62.07,64.91a.83.83,0,0,0-.46-.44,22.92,22.92,0,0,0-9.75-1.7h-.15v.15a4.37,4.37,0,0,1,.09,1.35v.14H52A21,21,0,0,1,61,66a.71.71,0,0,0,.32.07.84.84,0,0,0,.77-.52A.86.86,0,0,0,62.07,64.91Z" transform="translate(-0.1 -0.19)" style="fill:#fff"/><path d="M51.78,71.51h.15A20.93,20.93,0,0,1,61,73a.87.87,0,0,0,.32.06.83.83,0,0,0,.77-.51.84.84,0,0,0-.45-1.09,22.92,22.92,0,0,0-9.68-1.68H51.8V70a4.37,4.37,0,0,1,0,1.35Z" transform="translate(-0.1 -0.19)" style="fill:#fff"/></svg>