<svg xmlns="http://www.w3.org/2000/svg" viewBox="0 0 27.25 42.69"><title>environment</title><path d="M14.36,18.66a1.79,1.79,0,0,1,.49,1c0,.59-1,.93-1.8,1.21H13a9.91,9.91,0,0,0-2.65,1.45A3,3,0,0,0,9.17,23.8a3.61,3.61,0,0,0,.87,3l.06.1c.39.59.69,1.36.37,1.74s-1.21.2-2,0A1.27,1.27,0,0,0,7.18,29a1.76,1.76,0,0,0-.32,1.81c.28.71,1.12,1.6,3.51,1.76a.71.71,0,0,1,.44.61c0,.23-.22.46-.61.81a3.16,3.16,0,0,0-1,1.34.65.65,0,0,0,.18.69c1.11,1,2.75.39,4.07-.11a5.19,5.19,0,0,1,2-.51h.19v.2a4.5,4.5,0,0,1-.74,2l-.12.18A3,3,0,0,0,14.2,39,2.2,2.2,0,0,0,15,40.92l.36.31-.47.05A11.91,11.91,0,0,1,3.69,36.43V36.3a5.31,5.31,0,0,1,1.17-2.84l.07-.1a1.65,1.65,0,0,0,.34-1,1.72,1.72,0,0,0-.47-1.05l-.11-.16a2.19,2.19,0,0,1,.41-2.52l.05-.06a1.74,1.74,0,0,0,.54-1.27,1.39,1.39,0,0,0-1-1.21A2.66,2.66,0,0,0,3.5,26a8.42,8.42,0,0,0-1.41.3l-.37.11.11-.37a12,12,0,0,1,11.52-8.69h.32l.05.14a4.31,4.31,0,0,0,.63,1.13m1.09-.73-.31-.42.52.1a11.72,11.72,0,0,1,4.46,1.87l.18.12L17.65,23.3c-.62.87-.66,1.7-.11,2.21a1.58,1.58,0,0,0,.8.36,8.52,8.52,0,0,0,1.51.17H20v.28a4.75,4.75,0,0,1-.24,1.91.64.64,0,0,0,.13.62A1.37,1.37,0,0,0,21.7,29l.24-.15.29-.19h.13a1.37,1.37,0,0,1,.45.3,2.19,2.19,0,0,0,1.3.58,1.51,1.51,0,0,0,.87-.29l.33-.23v.41a12,12,0,0,1-7.46,11h0a2.62,2.62,0,0,1-2-.53,1,1,0,0,1-.4-.77,1.78,1.78,0,0,1,.35-.65l.15-.21a5.76,5.76,0,0,0,1-3.08.61.61,0,0,0-.1-.37c-.85-1.34-2.44-.73-3.85-.19a11.06,11.06,0,0,1-1.57.51l-.75.16.57-.52a2.23,2.23,0,0,0,.91-1.71,2,2,0,0,0-1.65-1.87c-1.31-.09-2.2-.44-2.39-.93v-.46l.27.08c1,.29,2.33.56,3.17-.43.68-.8.58-2-.28-3.3l-.06-.1c-.41-.62-.87-1.31-.71-1.86a1.88,1.88,0,0,1,.71-.82,8.16,8.16,0,0,1,2.3-1.25h.06c1-.37,2.56-.92,2.67-2.35a2.86,2.86,0,0,0-.71-1.87m6.05,2.65a11.9,11.9,0,0,1,3.49,5.94v.14a4.62,4.62,0,0,0-.29.73,3.75,3.75,0,0,1-.17.47l-.11.19.19.3-.49-.1a2,2,0,0,1-.45-.3,2,2,0,0,0-1.47-.57,1.6,1.6,0,0,0-.64.17l-.34.17v-.38a6.73,6.73,0,0,0,0-1.1,1.5,1.5,0,0,0-.71-1.33,1.69,1.69,0,0,0-.8-.16,8.78,8.78,0,0,1-1.15-.11l-.27-.06.12-.25.16-.25,2.63-3.65Zm-19,14.14-.2-.43a11.93,11.93,0,0,1-1.06-4.92,7.91,7.91,0,0,1,.07-1.28V28l.11-.05a8.32,8.32,0,0,1,2.14-.61,2.29,2.29,0,0,1,.37,0h.43l-.42.51a3.47,3.47,0,0,0-.49,4.13l.13.18-.13.17.17-.13.1.14.08.11-.18.29a8.24,8.24,0,0,0-.93,1.6ZM22.16,12.48a6,6,0,0,1-4.57,1.19.67.67,0,0,0-.47.15.6.6,0,0,0-.23.45.66.66,0,0,0,.59.71h.91A6.88,6.88,0,0,0,23,13.44,7.68,7.68,0,0,0,25.36,8a15.75,15.75,0,0,1,.82-4.71c.22-.57.7-1.65,1-2.42A.66.66,0,0,0,26.87,0,.72.72,0,0,0,26.58,0h0C23.23.07,19.38.35,16,2.56A7.84,7.84,0,0,0,12.61,7.7,7.24,7.24,0,0,0,14,13.3l.06.08v.1c-.07.25-.13.52-.19.78l-.09.4-.27-.31A13.42,13.42,0,0,0,12,13l-.1-.09v-.12a4,4,0,0,0-.29-2.6,6.91,6.91,0,0,0-4-3.23,12.92,12.92,0,0,0-7.16.22A.64.64,0,0,0,0,7.59a.64.64,0,0,0,.12.62c.33.39.82,1,1.06,1.32a10.17,10.17,0,0,1,1.3,2.77,5.34,5.34,0,0,0,5,3.41,5.58,5.58,0,0,0,1.62-.24.65.65,0,1,0-.37-1.25,4.1,4.1,0,0,1-5-2.35A10.82,10.82,0,0,0,2.29,8.76c-.06-.09-.14-.19-.22-.29L1.86,8.2l.33-.07a9.91,9.91,0,0,1,5.1.07,5.52,5.52,0,0,1,3.22,2.54,2.75,2.75,0,0,1,.25.89l.05.43-.37-.23a23.53,23.53,0,0,0-3.94-2H6.26a.65.65,0,0,0-.6.41.62.62,0,0,0,0,.5.65.65,0,0,0,.36.35,20.58,20.58,0,0,1,4.65,2.48.79.79,0,0,0,.25.19,10.52,10.52,0,0,1,2,2l.24.32h-.4A13.29,13.29,0,0,0,2.42,36.9l.06.09A13.29,13.29,0,1,0,15,16.18H14.8V16a18.17,18.17,0,0,1,1.55-5.14v-.06h.06a11.94,11.94,0,0,1,4.89-1A.65.65,0,0,0,22,9.07h0a.66.66,0,0,0-.19-.46.63.63,0,0,0-.46-.2,15.34,15.34,0,0,0-3.17.37l-.61.13.4-.47a19.6,19.6,0,0,1,4.38-3.74.6.6,0,0,0,.28-.41.6.6,0,0,0-.09-.49.65.65,0,0,0-.9-.19h0a16.68,16.68,0,0,0-6.88,7.7l-.18.46-.2-.46a6,6,0,0,1-.41-3.36,6.52,6.52,0,0,1,2.81-4.27c2.18-1.37,4.73-2.09,8.55-2.3h.34l-.14.31L25,2.9A17,17,0,0,0,24.07,8a6.39,6.39,0,0,1-1.89,4.5" transform="translate(0 0.03)" style="fill:#fff"/></svg>