<svg xmlns="http://www.w3.org/2000/svg" viewBox="0 0 89.55 79.58"><title>Health</title><path d="M85,5.68l-.11-.1c-10.24-10.93-19.7-3-22.84.3C59,2.57,49.45-5.4,39.17,5.66l1,1h0l-1-1a.64.64,0,0,0-.1.13,20.13,20.13,0,0,0-3.58,18.43,1.44,1.44,0,0,0,.25.85c2.42,7.52,9.37,16.7,25.67,26.52a1.4,1.4,0,0,0,1.52,0C104.28,26.56,85.13,5.78,85,5.68ZM41.13,7.62l.06-.06C51-3,60,7.65,60.89,8.75h0a1.67,1.67,0,0,0,.31.34h0a1.38,1.38,0,0,0,1.95-.21l.05-.06c.07-.06,9.45-12.3,19.78-1.27a17.21,17.21,0,0,1,3.17,15.26H74.8a1.38,1.38,0,0,0-1.35,1l-2.3,6.6-.9-21.47H68.86l1.39-.06a1.4,1.4,0,0,0-2.77-.06l-4,15.92-2.74-3.4a1.41,1.41,0,0,0-2-.22l0,0h0a1.37,1.37,0,0,0-.42.61l-4.53,10.1L52.79,9H51.4l1.39-.06a1.4,1.4,0,0,0-2.73-.11L46.2,24.29l-.46-.76a1.36,1.36,0,0,0-1.19-.63H38A17.31,17.31,0,0,1,41.13,7.62ZM62.06,48.84C48,40.2,41.5,32.26,38.92,25.69h4.87l1.76,2.72a1.4,1.4,0,0,0,1.9.56h0a1.37,1.37,0,0,0,.69-.89l-1.4-.34,1.36.33,2.35-9.25.8,19a1.4,1.4,0,0,0,1.36,1.44,1.39,1.39,0,0,0,1.3-.79h0l-1.28-.63,1.27.57L60,24.82l3.08,3.74a1.4,1.4,0,0,0,2.48-.5l-1.36-.34,1.36.33,2.31-9.23.8,19a1.39,1.39,0,0,0,2.71.52l4.41-12.68h9.43C82.64,32.19,76.18,40.16,62.06,48.84Z" transform="translate(0.01 0)" style="fill:#fff"/><path d="M60.81,57.74c-.89-1-5.22-1.39-10.06-1.83S40.91,55,37.31,53.69a.92.92,0,0,1-.23-.09h0c-5-2.38-9.42,1.76-10,2.34a1.2,1.2,0,0,1-.29.26h0C18.27,62,6.27,66.51,2.82,67.82A8.59,8.59,0,0,0,5,73.29a11.86,11.86,0,0,0,6.83,3.25,23.29,23.29,0,0,0,5.47.23c7.89-7.93,22.87-7,32.68-6.36h.13c2.48.16,4.13.37,5.28.52a7.07,7.07,0,0,0,2,.13,8.6,8.6,0,0,0,2.25-1.31c.66-.45,1.52-1,2.91-1.91A136.63,136.63,0,0,1,77.2,60.08c2.08-1,4.16-2,6.33-3.09,2.33-1.19,2-2.58,1.85-2.86a1.12,1.12,0,0,1-.12-.35h0C84.74,51,68.74,57.23,64.37,59a3.64,3.64,0,0,1-.2,1.5,3.9,3.9,0,0,1-1.1,1.56c-1.06,1-2.92,1.74-6,2.16h0a1.46,1.46,0,0,1-.51,0c-1.08-.18-11.77-1.86-14.12.54a1.41,1.41,0,1,1-2-2c3.3-3.29,14.79-1.6,16.48-1.33,2.32-.34,3.64-.85,4.29-1.44S61.37,58.37,60.81,57.74Zm2.51-1.33c4.73-1.88,23-8.75,24.61-3.44.25.62,1.44,4.14-3.15,6.47-2,1-4.19,2.06-6.38,3.11A136.26,136.26,0,0,0,64,70.14c-1,.69-2,1.36-2.8,1.86A9.52,9.52,0,0,1,58,73.75a8.48,8.48,0,0,1-2.93-.1c-1.09-.14-2.64-.34-5.12-.49h-.12c-9.45-.6-24-1.52-30.84,5.86h0a1.41,1.41,0,0,1-.92.44,26.21,26.21,0,0,1-6.68-.22A14.55,14.55,0,0,1,3,75.13a11.65,11.65,0,0,1-3-8.31H0a1.42,1.42,0,0,1,1-1.35C2.33,65,15.81,60.2,25.08,54c.89-.87,6.51-6,13.11-2.89,3.26,1.2,8.23,1.66,12.77,2.07,5.41.5,10.26.94,11.88,2.75.15.17.3.35.44.53Z" transform="translate(0.01 0)" style="fill:#fff"/></svg>