<svg xmlns="http://www.w3.org/2000/svg" viewBox="0 0 96.88 96.88"><title>indian-workers</title><path d="M94.49,16.68A16.34,16.34,0,0,0,93.37,14l2.23-3.35L89.38,4.4,86,6.63a16.81,16.81,0,0,0-2.71-1.12l-.79-3.95H73.72l-.79,4a16.45,16.45,0,0,0-2.71,1.12L66.87,4.4l-6.22,6.23L62.88,14a16.44,16.44,0,0,0-.74,1.66H57.81v3.12H69.27l6.25-4.69h5.26l3.6,2.4v.73H76.56v9.37h7.82v.73l-3.6,2.4H75.52L69.27,25H57.64a10.91,10.91,0,0,0-15.28,0H30.73l-6.25,4.69H19.22l-3.59-2.4v-.73h7.81V17.19H15.63v-.73l3.59-2.4h5.26l6.25,4.69H42.19V15.63H37.86A16.44,16.44,0,0,0,37.12,14l2.23-3.34L33.13,4.4,29.78,6.63a16.81,16.81,0,0,0-2.71-1.12l-.79-3.95H17.47l-.79,4A16.45,16.45,0,0,0,14,6.63L10.63,4.4,4.4,10.63,6.63,14a16.34,16.34,0,0,0-1.12,2.7l-3.95.79v8.81l4,.79a16.45,16.45,0,0,0,1.12,2.71L4.4,33.12l6.23,6.23L14,37.12a16.81,16.81,0,0,0,2.71,1.12l.79,3.95h8.81l.79-3.95a16.45,16.45,0,0,0,2.71-1.12l3.34,2.23,5.94-5.93V37.5a11,11,0,0,0,4.69,9v2.37L37.89,50.6a10.93,10.93,0,0,0-19.14,7.21V62.5a11,11,0,0,0,4.69,9v2.37l-10.06,3a7.77,7.77,0,0,0-5.57,7.49v14.1H92.19V84.34a7.77,7.77,0,0,0-5.57-7.49l-10.06-3V71.47a11,11,0,0,0,4.69-9V57.81A10.93,10.93,0,0,0,62.11,50.6l-5.86-1.76V46.47a11,11,0,0,0,4.69-9V33.42l5.94,5.93,3.35-2.23a16.34,16.34,0,0,0,2.7,1.12l.79,3.95h8.81l.79-3.95A16.45,16.45,0,0,0,86,37.12l3.35,2.23,6.22-6.22-2.23-3.35a16.81,16.81,0,0,0,1.12-2.71l4-.79V17.47ZM50,25a7.82,7.82,0,0,1,7.65,6.25H53.49a13.25,13.25,0,0,1-5.92-1.4l-1-.5-.8.8a3.75,3.75,0,0,1-2.67,1.1h-.75A7.82,7.82,0,0,1,50,25ZM32.72,35.33l-2.83-1.88-.84.5a14.06,14.06,0,0,1-3.71,1.54l-1,.24-.66,3.33H20l-.66-3.33-1-.24A14.06,14.06,0,0,1,14.7,34l-.85-.5L11,35.33,8.42,32.72,10.3,29.9l-.5-.85a14.06,14.06,0,0,1-1.54-3.71L8,24.39l-3.33-.67V20L8,19.37l.24-1A14.06,14.06,0,0,1,9.8,14.7l.5-.84L8.42,11,11,8.42l2.83,1.88.84-.5a14.06,14.06,0,0,1,3.71-1.54l1-.24L20,4.69h3.69L24.38,8l1,.24A14.06,14.06,0,0,1,29.05,9.8l.84.5,2.83-1.88L35.33,11l-1.88,2.82.5.85a10.2,10.2,0,0,1,.48.93H31.77l-6.25-4.69H18.28L12.5,14.79v5.52h7.81v3.13H12.5V29l5.78,3.85h7.24l6.25-4.68h2.66c-.15.31-.3.62-.48.92l-.5.85,1.88,2.83Zm5.14-7.2h2.27a10.88,10.88,0,0,0-1.06,4.57l-2-2.93A16.11,16.11,0,0,0,37.86,28.13ZM29.69,50a7.82,7.82,0,0,1,7.65,6.25H33.18a13.25,13.25,0,0,1-5.92-1.4l-1-.5-.79.8a3.75,3.75,0,0,1-2.67,1.1H22A7.84,7.84,0,0,1,29.69,50ZM21.88,62.5V59.38h.91a6.84,6.84,0,0,0,4-1.3,16.42,16.42,0,0,0,6.37,1.3H37.5V62.5a7.85,7.85,0,0,1-3.91,6.76l-.78.45v4.45l-3.12,2.09-3.13-2.09V69.71l-.78-.45A7.84,7.84,0,0,1,21.88,62.5ZM48.44,95.31H10.94v-11a4.65,4.65,0,0,1,3.34-4.49l10.47-3.14L29.69,80l4.94-3.29L45.1,79.85a4.65,4.65,0,0,1,3.34,4.49ZM85.72,79.85a4.65,4.65,0,0,1,3.34,4.49v11H51.56v-11a4.65,4.65,0,0,1,3.34-4.49l10.47-3.14L70.31,80l4.94-3.29ZM74.22,69.26l-.78.45v4.45l-3.13,2.09-3.12-2.09V69.71l-.78-.45A7.85,7.85,0,0,1,62.5,62.5V59.38h.92a6.86,6.86,0,0,0,4-1.3,16.42,16.42,0,0,0,6.37,1.3h4.32V62.5A7.85,7.85,0,0,1,74.22,69.26ZM70.31,50A7.84,7.84,0,0,1,78,56.25H73.81a13.22,13.22,0,0,1-5.92-1.4l-1-.5-.8.8a3.74,3.74,0,0,1-2.66,1.1h-.76A7.82,7.82,0,0,1,70.31,50Zm-10,3.33a10.82,10.82,0,0,0-1,4.48V62.5a11,11,0,0,0,4.68,9v2.37L54,76.85a7.82,7.82,0,0,0-4,2.78,7.86,7.86,0,0,0-4-2.78l-10.06-3V71.47a11,11,0,0,0,4.69-9V57.81a10.83,10.83,0,0,0-1-4.48l5.41-1.62L50,55l4.94-3.29ZM53.9,44.26l-.77.45v4.45L50,51.25l-3.12-2.09V44.71l-.78-.45a7.83,7.83,0,0,1-3.91-6.76V34.38h.91a6.82,6.82,0,0,0,4-1.3,16.45,16.45,0,0,0,6.37,1.3h4.32V37.5A7.83,7.83,0,0,1,53.9,44.26Zm7-11.56a10.88,10.88,0,0,0-1.06-4.57h2.27a17.33,17.33,0,0,0,.74,1.65Zm34.38-9L92,24.39l-.24.95a14.06,14.06,0,0,1-1.54,3.71l-.5.85,1.88,2.83L89,35.33l-2.83-1.88-.85.5a13.73,13.73,0,0,1-3.71,1.54l-1,.24L80,39.06H76.28l-.66-3.33-1-.24A14.06,14.06,0,0,1,71,34l-.84-.5-2.83,1.88-2.61-2.61,1.88-2.82-.5-.85a10.2,10.2,0,0,1-.48-.93h2.66l6.25,4.69h7.24L87.5,29V23.44H79.69V20.31H87.5V14.79l-5.78-3.85H74.48l-6.25,4.69H65.57a10.2,10.2,0,0,1,.48-.93l.5-.85L64.67,11l2.61-2.61,2.83,1.88L71,9.8a13.73,13.73,0,0,1,3.71-1.54l1-.24.66-3.33H80L80.63,8l1,.24A14.06,14.06,0,0,1,85.3,9.8l.84.5L89,8.42,91.58,11,89.7,13.85l.5.85a14.06,14.06,0,0,1,1.54,3.71l.24.95,3.33.67Z" transform="translate(-1.56 -1.56)"/><rect x="50" y="14.06" width="3.13" height="3.13"/><rect x="43.75" y="14.06" width="3.13" height="3.13"/></svg>