<svg xmlns="http://www.w3.org/2000/svg" viewBox="0 0 97.07 83.36"><title>individual-grants</title><path d="M88.07,26.2v7.68h9V26.2a4.31,4.31,0,0,0-3-4.11V14.16a1.5,1.5,0,0,0,.47-2.06,1.54,1.54,0,0,0-.88-.64L52.66.06a1.55,1.55,0,0,0-.8,0l-41,11.4a1.5,1.5,0,0,0,0,2.89l16.2,4.5v6.93l-4-4.06a1.56,1.56,0,0,0-1.35-.43,1.53,1.53,0,0,0-1.1.89l-3.32,7.69L15,28.69a10.9,10.9,0,0,0-5.59-1.94A9.77,9.77,0,0,0,0,36.42c0,5.33,4.57,8,6.79,9.24l65,35.81a10,10,0,0,0,5.84,1.9A10.4,10.4,0,0,0,87.81,72.83a10.88,10.88,0,0,0-.06-1.14l5.57-12.94a1.45,1.45,0,0,0,0-1.22,1.53,1.53,0,0,0-.91-.8L55.53,45.12a40.59,40.59,0,0,1,11.41-4.67,45.8,45.8,0,0,1,9.17-1.33,1.5,1.5,0,0,0,1.42-1.5V18.83L91,15.07v7A4.32,4.32,0,0,0,88.07,26.2Zm6,4.68h-3V26.2a1.31,1.31,0,0,1,1.3-1.33h.39a1.31,1.31,0,0,1,1.3,1.33v4.68ZM52.19,3.06l29.51,8.2H53.3a1.5,1.5,0,0,0,0,3H82.74L52.19,22.74,16.76,12.9ZM22.41,25.42,36.53,39.9,19.9,31.26Zm45,47.41a10.82,10.82,0,0,0,.43,3L41.91,61.61c0-5.52,2.11-9.5,6.51-12.11h.23L74.32,62.8a10.54,10.54,0,0,0-7,10Zm-29-28.62,7,3.72A15.52,15.52,0,0,0,39,60l-7.48-4.1c.12-5.32,2.36-9.19,6.79-11.67Zm9.91,1.73-7.8-4,4-7.81L46.24,38a1.47,1.47,0,0,0,1.62.88l4.48-.76ZM3,36.43a6.8,6.8,0,0,1,6.38-6.67,8.2,8.2,0,0,1,4.09,1.54l13.72,7.11a1.49,1.49,0,0,0,1.21.71h.18l6.67,3.46A15.39,15.39,0,0,0,28.6,54.26L8.26,43.06C5.6,41.53,3,39.75,3,36.43ZM77.59,80.38a7.56,7.56,0,0,1,0-15.1,7.07,7.07,0,0,1,5.28,2.41,6.44,6.44,0,0,0-4-.25,6.61,6.61,0,0,0-4.14,3.35,7.43,7.43,0,0,0-.83,3.61v.11a4.5,4.5,0,0,0,.49,2.1,3.94,3.94,0,0,0,5.28,1.74l.36-.21a4.4,4.4,0,0,0,2-3.89,1.48,1.48,0,0,0-1.51-1.45h0A1.51,1.51,0,0,0,79,74.35a1.41,1.41,0,0,1-.62,1.25,1,1,0,0,1-.76.14,1,1,0,0,1-.62-.53,1.38,1.38,0,0,1-.16-.69v-.06a.09.09,0,0,0,0-.07,4.51,4.51,0,0,1,.5-2.19,3.48,3.48,0,0,1,5.06-1.4,4.55,4.55,0,0,1,2,4,1.83,1.83,0,0,0,0,.4A7.29,7.29,0,0,1,77.59,80.38Zm8.75-13a10.32,10.32,0,0,0-5.56-4.59L51.44,47.6a1.59,1.59,0,0,0,.14-.56L89.91,59.1ZM74.53,36.2a49.86,49.86,0,0,0-8.33,1.34,42.17,42.17,0,0,0-13,5.5l3.25-6.17a1.48,1.48,0,0,0-.11-1.58,1.5,1.5,0,0,0-1.46-.6l-6.35,1.08L46,30.07a1.5,1.5,0,0,0-2-.77,1.47,1.47,0,0,0-.72.67L39.2,37.79l-.67-.19L30,28.85V19.69L51.8,25.75a1.36,1.36,0,0,0,.8,0l21.93-6.06Z" transform="translate(0 -0.01)" style="fill:#fff"/></svg>