<svg xmlns="http://www.w3.org/2000/svg" viewBox="0 0 139.59 101.48"><title>institutions</title><polygon points="3.21 90.77 3.21 101.48 6 101.48 6 93.55 18.26 93.55 18.26 101.48 21.05 101.48 21.05 90.77 3.21 90.77" style="fill:#fff"/><polygon points="117.45 90.77 117.45 101.48 120.23 101.48 120.23 93.55 132.5 93.55 132.5 101.48 135.29 101.48 135.29 90.77 117.45 90.77" style="fill:#fff"/><path d="M85.33,72.4l0-3.18c-.25-4.24-3-7.39-6.42-7.39a5.43,5.43,0,0,0-2.41.56L77,64.54l-1.66-2A7.61,7.61,0,0,0,64.67,61a8,8,0,0,0-1.44,1.41l-.32.38-.44-.25a5.47,5.47,0,0,0-2.76-.75c-3.41,0-6.17,3.14-6.43,7.32v3.25Zm-8-7.31a2.75,2.75,0,0,1,1.57-.49c1.77,0,3.32,1.87,3.61,4.34l.08.67H77.7v-1a11.22,11.22,0,0,0-.57-2.81L77,65.35Zm-8.1-2.79c2.92,0,5.41,2.83,5.67,6.44v.87H63.58v-.84C63.84,65.11,66.33,62.3,69.23,62.3ZM56.1,68.94c.28-2.47,1.84-4.34,3.61-4.34a2.67,2.67,0,0,1,1.4.42l.41.25-.16.46a10.92,10.92,0,0,0-.58,2.88v1H56Z" transform="translate(0 -0.01)" style="fill:#fff"/><polygon points="95.44 90.77 95.44 101.48 98.23 101.48 98.23 93.55 110.5 93.55 110.5 101.48 113.28 101.48 113.28 90.77 95.44 90.77" style="fill:#fff"/><polygon points="25.21 90.77 25.21 101.48 28 101.48 28 93.55 40.27 93.55 40.27 101.48 43.05 101.48 43.05 90.77 25.21 90.77" style="fill:#fff"/><path d="M139.08,40.75l-13-9.41L112.9,40.75v9.52L91.7,42.53V26.92h2.92V24.14H91.71V22.4L70.23,5.87V1.4a1.39,1.39,0,1,0-2.78,0h0V5.82L46.71,22.4v1.7H43.77v2.78h2.94v16L25.8,50.81V40.75l-13-9.41L0,40.49V68.21H46.7V84.9H39.54l-.09-.5c-1.12-5.79-5.9-10-11.37-10s-10.25,4.2-11.36,10l-.1.49H10.54l-.1-.49A12,12,0,0,0,0,74.47v2.8a9.06,9.06,0,0,1,7.46,6.62l.24.77H0v3H46.69v13.81h2.78V56.9H88.9v44.57h2.78V87.68h47.88v-3h-8.8l.24-.77a9,9,0,0,1,8.38-6.68h.18V74.4h-.18c-5.47,0-10.25,4.2-11.36,10l-.1.49h-6l-.1-.49c-1.11-5.79-5.89-10-11.36-10s-10.25,4.2-11.37,10l-.09.49H91.71V67.49h47.88V64.7h-.51V56.86h.51V53.79h-.51ZM19.46,84.66l.24-.77a8.93,8.93,0,0,1,8.38-6.68,9,9,0,0,1,8.39,6.68l.23.77ZM12.79,34.77l10,7.23H2.67ZM17.35,64.7H7.9V50.1h9.5Zm5.67,0H20.13V47.32H5.07V64.7H2.42V44.79H23Zm23.68.7H25.8V56.86H46.71Zm0-11.64H25.81l20.9-7.86ZM102,83.86a8.6,8.6,0,0,1,16.77,0l.24.77H101.79ZM88.9,53.79H49.49V50.1H88.9ZM49.49,47.32V26.92h3.77v20.4Zm6.56,0V26.92h4.07v20.4Zm6.85-.92V27.67h4.85V46.4Zm8,0V27.67h4.63V46.4Zm7.41,1V26.92h4.24v20.4Zm10.62,0h-3.6V26.92H88.9ZM49.06,24.14,68.6,8.47h.53l.07.12L89.37,24.14Zm77,10.63,10,7.23H115.9ZM112.9,64.7H91.71V56.92H110.9l.6-.06h1.4ZM91.71,53.79v-8.3l22.71,8.3ZM130.62,64.7h-9.55V50.1h9.55Zm5.67,0H133.4V47.32H118.28V64.7h-2.59V44.79h20.6Z" transform="translate(0 -0.01)" style="fill:#fff"/><path d="M85.34,75H53.28v25.88H85.34ZM61.45,98.08H56.07V77.77h5.38Zm12.77,0H64.41V77.77h9.81Zm8.34,0H77.22V77.77h5.34Z" transform="translate(0 -0.01)" style="fill:#fff"/><path d="M63.5,17.2a5.38,5.38,0,1,0,5.4-5.38,5.38,5.38,0,0,0-5.4,5.38Zm8,0a2.59,2.59,0,1,1-2.6-2.59,2.59,2.59,0,0,1,2.6,2.59Z" transform="translate(0 -0.01)" style="fill:#fff"/></svg>