<svg xmlns="http://www.w3.org/2000/svg" viewBox="0 0 96.9 93.73"><title>jn-tata-scholars</title><path d="M98.44,47l-1.17-7.11a1.61,1.61,0,0,0-.79-1.09,1.51,1.51,0,0,0-1.4-.08l-8.43,3.86,4-21.59a6.09,6.09,0,0,0,.13-1.64,6.48,6.48,0,0,0-.28-1.64,9,9,0,0,0-6.41-6.1,8.82,8.82,0,0,0-4.06-.15,7.5,7.5,0,0,0-6,5.86c-1.64,8.28-3.36,16.64-5,24.45,0,.1,0,.2,0,.3l-1.08,5a1,1,0,0,0-.06.2l-1.33,6.48a1.08,1.08,0,0,0,0,.18c-1.79,8.64-3.63,17.45-5.31,26a1.52,1.52,0,0,0,0,.52l-.06.19A6.64,6.64,0,0,0,62,85.78a7,7,0,0,0,6.1,3.36,7.84,7.84,0,0,0,3.83-1,7.07,7.07,0,0,0,3.43-4.46,6.43,6.43,0,0,0,0-3.08,7,7,0,0,1,1,1.44,1.64,1.64,0,0,0,1.4.86h.32a1.59,1.59,0,0,0,1.33-1.25L84,57a1.3,1.3,0,0,0,0-.34l.38-2,4.45,6a1.51,1.51,0,0,0,1.25.62,1.65,1.65,0,0,0,1.17-.54l3.91-4.38a1.08,1.08,0,0,0,.39-1.09,1.9,1.9,0,0,0-.55-1.1l-4.55-4,6.74-1.27A1.53,1.53,0,0,0,98.44,47Zm-18,6.2-.62-.31-.65-.29-.62-.24c-.33-.12-.69-.22-1-.32l-.37-.11a15.68,15.68,0,0,0-1.63-.32h-.16a7.77,7.77,0,0,0-1.79-.14,21.69,21.69,0,0,0-3.35.31c.18-.86.36-1.73.53-2.58,0-.12,0-.24.08-.36a12.19,12.19,0,0,1,1.67-.44l.38-.06.51-.07a9.62,9.62,0,0,1,1.22-.08h.16c.4,0,.82,0,1.24.06h.13a10.9,10.9,0,0,1,5.82,2.63l-.54,2.9-.19-.12C80.93,53.46,80.68,53.3,80.41,53.15ZM74.7,42.5a8.91,8.91,0,0,1,1-.07h.74c.21,0,.43,0,.64,0A11,11,0,0,1,83,45.24l-.16.86c0,.07,0,.15-.07.23l-.18,1a14.2,14.2,0,0,0-5.91-2.12A7.71,7.71,0,0,0,74.77,45a20.09,20.09,0,0,0-3.21.31l.55-2.11a10.62,10.62,0,0,1,2.56-.7ZM82,14.43a5.25,5.25,0,0,1,1.32.18,6,6,0,0,1,4.22,4,4.47,4.47,0,0,1,.08,1.72l-4,21.38a13,13,0,0,0-6-2.31,11.33,11.33,0,0,0-1.64-.08,20.79,20.79,0,0,0-3.21.31c1.49-7,3-14.45,4.46-21.72a4.54,4.54,0,0,1,3.51-3.36A7.63,7.63,0,0,1,82,14.43ZM72.27,82.81a3.85,3.85,0,0,1-2,2.58,4.16,4.16,0,0,1-5.7-1.25,3.64,3.64,0,0,1-.39-2.73,3.19,3.19,0,0,1,.23-.7h0a4.42,4.42,0,0,1,1.72-1.87,4,4,0,0,1,.71-.31,4.58,4.58,0,0,1,.53-.14,4.27,4.27,0,0,1,4.47,1.7A3.73,3.73,0,0,1,72.27,82.81Zm-1-8A7.49,7.49,0,0,0,70,74.77a16.1,16.1,0,0,0-3.28.46,5.7,5.7,0,0,0-1.47.47c1.15-5.9,2.44-12,3.86-18.87.11-.54.22-1.09.34-1.63a12.72,12.72,0,0,1,5.47-.59,10.9,10.9,0,0,1,5.77,2.58L76.88,77.58A9.89,9.89,0,0,0,71.25,74.84ZM90.16,57.11l-5-6.67.14-.75,6.39,5.62Zm-2.74-9.84-1.33-1.18,8.36-3.9.63,3.59Z" transform="translate(-1.56 -3.14)"/><path d="M2.27,30.55a1.6,1.6,0,0,0,.86.23.71.71,0,0,0,.54-.23l5.16-2.27a1.53,1.53,0,0,0,.94-1.4V23.59a1.77,1.77,0,0,0,.07-.46V16.9l2.11.61V28.75a1.59,1.59,0,0,0,1.1,1.48l.89.27a17.08,17.08,0,0,0-1,6A17.46,17.46,0,0,0,30.16,54.14,17.63,17.63,0,0,0,47.5,36.48a17.36,17.36,0,0,0-1-6l.89-.27a1.52,1.52,0,0,0,1.1-1.48V17.49l8.9-2.57a1.59,1.59,0,0,0,1.1-1.48A1.69,1.69,0,0,0,57.34,12L30.7,3.2a2.45,2.45,0,0,0-1,0L3.05,12A1.44,1.44,0,0,0,2,13.44a1.52,1.52,0,0,0,1.1,1.48L6.72,16v5.82l-3.91.77a1.59,1.59,0,0,0-1.25,1.56v5.08A1.55,1.55,0,0,0,2.27,30.55Zm27.42-7.89a1.08,1.08,0,0,0,.47.07.61.61,0,0,0,.35-.06h.12l14.6-4.22v9.14L30.16,32,15.08,27.58V18.41ZM44.38,36.41A14.44,14.44,0,0,1,30.16,50.94,14.32,14.32,0,0,1,16,36.41a13.64,13.64,0,0,1,.86-5L25,33.77l4.67,1.39a1.08,1.08,0,0,0,.47.07,1.66,1.66,0,0,0,.54-.07l12.83-3.8A16.12,16.12,0,0,1,44.38,36.41ZM30.16,6.33l21.4,7-5.13,1.48h0l-1.49.43L30.2,19.52,14,14.84a1.37,1.37,0,0,0-.28-.05L9.16,13.48a1.64,1.64,0,0,0-.29-.16ZM4.69,25.39l2-.39v.94l-2,.86Z" transform="translate(-1.56 -3.14)"/><path d="M43.91,57.58H41.72a1.59,1.59,0,0,0-1.56,1.25L34.92,83.91H25.47L20.23,58.83a1.65,1.65,0,0,0-1.56-1.25H16.48A14.7,14.7,0,0,0,1.72,72.11v23.2a1.57,1.57,0,0,0,1.56,1.57H57a1.57,1.57,0,0,0,1.56-1.57V72A14.62,14.62,0,0,0,43.91,57.58ZM55.47,93.75H4.77V72.11A11.52,11.52,0,0,1,16.41,60.7h.93l5.24,25.08A1.66,1.66,0,0,0,24.14,87h12a1.6,1.6,0,0,0,1.57-1.25L42.89,60.7h.94A11.51,11.51,0,0,1,55.47,72Z" transform="translate(-1.56 -3.14)"/><path d="M35.39,61a3.42,3.42,0,0,0-.47-4.14,3.56,3.56,0,0,0-2.65-1.1H28a3.71,3.71,0,0,0-2.66,1.1A3.42,3.42,0,0,0,24.84,61l2,3-1.1,8.68,2.27,5.86a2.29,2.29,0,0,0,2.11,1.4,2.11,2.11,0,0,0,2-1.4l2.26-5.86L33.36,64l2-2.89Zm-2.58-1.64L30.23,63.2l1.1,9.07-1.17,3-1.18-3,1.18-9.07-2.58-3.82c-.08-.08-.08-.24.08-.4a.61.61,0,0,1,.39-.15h4.29a.61.61,0,0,1,.39.15A.35.35,0,0,1,32.81,59.38Z" transform="translate(-1.56 -3.14)"/></svg>