<?xml version="1.0" encoding="utf-8"?>
<!-- Generator: Adobe Illustrator 23.0.6, SVG Export Plug-In . SVG Version: 6.00 Build 0)  -->
<svg version="1.1" xmlns="http://www.w3.org/2000/svg" xmlns:xlink="http://www.w3.org/1999/xlink" x="0px" y="0px"
	 viewBox="0 0 70 62.1" style="enable-background:new 0 0 70 62.1;" xml:space="preserve">
<style type="text/css">
	.st0{display:none;}
	.st1{display:inline;fill:#FFFFFF;}
	.st2{fill:#FFFFFF;}
</style>
<g id="Layer_1" class="st0">
	<title>livelihood</title>
	<path class="st1" d="M46,0H19.2v19.2H46V0z M43.9,2.1v6.6l-6.4-5.3l-6.9,6l-4.1-4.2l-5.3,5.1V2h22.6V2.1z M30.7,12.6h-9l4.5-4.4
		L30.7,12.6z M33.7,12.6L32.1,11l5.5-4.7l6.3,5.3v1.3H33.8L33.7,12.6z M21.3,17v-2.3h22.6V17H21.3z"/>
	<path class="st1" d="M0,60v2.1h70V60h-5.6V41.9h-4.8c0.1-1.8,0.6-6.2,3.4-8.8c1.8-1.5,4.1-2.2,6.4-1.9l0.2-2.2
		c-2.9-0.4-5.9,0.5-8,2.5c-0.6,0.6-1.2,1.3-1.6,2c0.5-3.3,1.5-6.5,3.4-8.6c1.2-1.4,3-2.1,4.8-2v-2.1c-2.5,0-4.8,1-6.4,2.8
		c-1.9,2.3-3.1,5.1-3.6,8c-0.3-6.4-1.4-12.6-4.3-14.9l-1.3,1.7c2.1,1.7,3.3,6.4,3.6,14.3c-1.6-5.2-4.7-10.3-11.3-9.7l0.2,2.1
		c2.3-0.2,8.6-0.7,10.7,16.6v0.2h-3.2v18.2h-8v-2.3h0.1c3,0,5.6-2.2,5.6-4.8V41.4c0-2.3-2.2-4.1-5-4.1h-0.6c-1,0-2,0.3-2.8,0.7v-4.8
		c0-3.6-2.8-6.7-6.4-7c0.1,0.7,0,1.4-0.2,2.1c2.5,0.3,4.4,2.4,4.5,4.9v11.2h-1.4c0.4,0.6,0.7,1.3,0.8,2.1h2.6v-5.2c0-1,1.4-2,2.8-2
		h0.6c1.6,0,2.8,1,2.8,2v11.6c0,1.5-1.6,2.7-3.5,2.7h-7.8c0,0.2,0,0.4-0.1,0.6c0,0.5,0,0.9-0.2,1.4v0.2h5.9v2.3H8.4v-2.4h12.1
		c-0.1-0.2-0.1-0.5-0.1-0.8c-0.2-0.3-0.3-0.6-0.3-1c-0.1-0.1-0.1-0.2-0.2-0.3H6.2c-1.9,0-3.5-1.3-3.5-2.7V41.3c0-1,1.4-2,2.8-2h0.6
		c1.6,0,2.8,1,2.8,2v5.2h9.2c0.1-0.7,0.3-1.4,0.6-2h-0.6V28.2H22c-0.3-0.7-0.4-1.4-0.3-2.1h-5.5c-3.9,0-7.1,3.1-7.2,7V38
		c-0.9-0.5-1.8-0.8-2.8-0.7H5.5c-2.7,0-5,1.9-5,4.1V53c0,2.6,2.5,4.8,5.6,4.8h0.1v2.3 M11.1,33.2c0-2.8,2.2-5,5-5H16v16.2h-4.9
		L11.1,33.2z M62.3,59.9h-7.7V44h7.7L62.3,59.9z"/>
	<path class="st1" d="M34.5,27.4c-0.1,0.6-0.4,1.3-0.7,1.8c0.8,0.6,1.6,1.3,2.2,2.1c1,1.1,1.4,1.6,1.5,2.5c0.1,0.8,0,2,0,3.1
		c0.7,0.2,1.2,0.8,1.2,1.5v1.8c0,0.7-0.5,1.4-1.2,1.5V43c0,1.5-4.7,0.5-6.4,2.2c-1.4,1.3-3.6,1.3-5,0c-1-1-5.2-1.4-5.6-1.4
		c-0.4,0-0.7-0.4-0.7-0.8v-1.3c-0.7-0.2-1.2-0.8-1.2-1.5v-1.8c0-0.7,0.5-1.3,1.2-1.5v-2.3c0-1.8,0.3-2.1,1.5-3.4
		c0.7-0.7,1.4-1.4,2.2-2c-0.3-0.6-0.6-1.2-0.7-1.8v-1.6c0.4-3.3,3.4-5.6,6.7-5.2c2.7,0.3,4.9,2.5,5.2,5.2L34.5,27.4z M36,34
		c-0.3-0.6-0.7-1.2-1.2-1.7c-0.6-0.7-1.3-1.3-2.1-1.9c-2.3,2.2-6,2.2-8.3,0c-0.7,0.6-1.4,1.2-2.1,1.9c-0.5,0.5-0.9,1.1-1.2,1.7
		l7.4,2.5L36,34z M29.4,37.9v6.6c0.2-0.1,0.5-0.3,0.6-0.5c1.2-1.2,4.5-1.6,5.9-1.8v-0.5c-0.7-0.1-1.2-0.8-1.2-1.5v-1.7
		c0-0.7,0.5-1.3,1.2-1.5v-1.3L29.4,37.9z M21.3,35.7v1.2c0.7,0.1,1.3,0.8,1.3,1.5v1.8c0,0.7-0.5,1.4-1.3,1.5v0.5
		c1.5,0.2,4.7,0.6,5.9,1.8c0.2,0.2,0.4,0.4,0.6,0.5v-6.6L21.3,35.7z M24.5,46.7l2.7,11.1c0.5,1.5-0.3,3.1-1.8,3.6
		c-1.5,0.5-3-0.3-3.6-1.7c0-0.1,0-0.2-0.1-0.2c-0.1-0.2-0.1-0.3-0.1-0.5L19,48c-0.5-1.5,0.4-3.1,1.9-3.6c1.5-0.5,3.1,0.4,3.6,1.9
		C24.5,46.5,24.5,46.6,24.5,46.7L24.5,46.7z M20.5,47.7l2.6,10.9c0.6,2.4,3,1.4,2.6-0.4L23,47c-0.1-0.7-0.8-1.2-1.5-1.1
		c-0.7,0.1-1.2,0.8-1.1,1.5l0,0C20.4,47.4,20.4,47.5,20.5,47.7L20.5,47.7z M34,46.9l-2.7,11.3c-0.2,0.7,0.1,1.4,0.8,1.7
		c0.7,0.2,1.4-0.1,1.7-0.8c0-0.1,0-0.2,0.1-0.3l2.7-11.2c0.2-0.7-0.2-1.4-0.9-1.6C34.9,45.8,34.2,46.2,34,46.9L34,46.9L34,46.9
		L34,46.9z M38,47.9l-2.6,11.2c-0.3,1.5-1.9,2.5-3.4,2.2s-2.5-1.9-2.2-3.4l0,0l0,0l2.7-11.3C33.2,43,39,44,38,47.9L38,47.9z
		 M37.1,38.5h-0.9v1.7h0.9V38.5z M20.9,38.5H20v1.7h0.9L20.9,38.5z M24.1,26.6c0.1,2.7,2.4,4.8,5.1,4.7s4.8-2.4,4.7-5.1
		s-2.4-4.8-5.1-4.7c-2.6,0.1-4.6,2.2-4.7,4.7V26.6z"/>
</g>
<g id="Layer_2">
	<path class="st2" d="M42.8,28.4c-0.2-0.2-0.3-0.4-0.5-0.6c-1.9-1.7-4.1-2.8-6.7-3c-1.2-0.1-1.4,0.1-1.3,1.3
		c0.3,2.6,1.3,4.9,3.1,6.8c1.3,1.3,2.9,1.6,4.6,0.9c0.3-0.1,0.6-0.2,1-0.4c0,1.8,0,3.5,0,5.1c-0.1,0-0.2,0.1-0.3,0.1
		c-0.1-0.2-0.2-0.4-0.3-0.5c-2-1.8-4.3-2.9-7-3.2c-0.9-0.1-1.2,0.3-1.2,1.1c0.2,2.5,1.2,4.7,2.8,6.6c1.3,1.6,3.3,1.9,5.2,1.1
		c0.2-0.1,0.4-0.2,0.7-0.3c0,2.1,0,4,0,6.1c-0.2-0.1-0.3-0.1-0.3-0.2c-1.5-1.6-3.4-2.4-5.6-2.8c-1-0.2-1.4,0.1-1.3,1.1
		c0.2,2.2,1.1,4.1,2.7,5.6c1,1,2.2,1,3.5,0.6c0.3-0.1,0.6-0.2,0.9-0.3l0,0l0,8c0.3,0.1,0.6,0.3,0.9,0.4l0-8.4l0.2,0
		c0.3,0.1,0.6,0.2,0.8,0.3c1.4,0.4,2.6,0.3,3.7-0.8c1.5-1.5,2.3-3.4,2.6-5.5c0.1-1-0.3-1.3-1.2-1.2c-1.8,0.3-3.3,1-4.8,2
		c-0.4,0.3-0.7,0.6-1.2,1c0-2.1,0-4.1,0-6.2c0.4,0.2,0.7,0.3,1,0.4c1.5,0.6,3.1,0.5,4.2-0.6c2.2-2,3.4-4.5,3.5-7.5
		c0-0.6-0.2-0.9-0.8-0.8c-1.4,0.3-2.8,0.5-4.1,1.1c-1.3,0.6-2.5,1.5-3.8,2.3c0-1.6,0-3.2,0-5c0.4,0.2,0.6,0.3,0.9,0.4
		c1.6,0.6,3.2,0.6,4.4-0.6c2.1-2,3.2-4.5,3.5-7.4c0-0.7-0.2-1-1-1c-2.8,0.1-5.1,1.3-7.1,3.1c-0.2,0.2-0.4,0.3-0.7,0.6
		c0-1.8,0-3.5,0-5.2c0.3,0.1,0.4,0.2,0.6,0.2c2.4,1,4.4,0.5,5.8-1.7c0.9-1.4,1.7-3,2.1-4.6c0.6-2.7,0.4-2.8-2.3-2.3
		c-2.4,0.4-4.4,1.7-6.1,3.4c-0.1,0-0.2-0.1-0.2-0.1c0-1.4,0-2.8,0-4.2c0-0.7,0.2-1,0.8-1.4c1.4-0.7,2.3-1.8,2.3-3.4
		c0.1-2.7-0.8-5.2-2.5-7.3c-0.8-1-1.1-1-1.9,0c-1.7,2.1-2.5,4.5-2.6,7.1c0,1.3,0.5,2.6,1.7,3.2c1.4,0.7,1.5,1.7,1.4,3
		c-0.1,0.8,0,1.6,0,2.4c0,0.2-0.1,0.5-0.1,0.7c-0.1,0-0.2,0-0.2,0c-0.1-0.1-0.2-0.2-0.3-0.3c-2-1.8-4.3-3-7-3.2
		c-1.1-0.1-1.2,0.1-1.1,1.2c0.2,2.7,1.3,5,3.1,6.9c1,1.1,2.4,1.5,3.9,1.1c0.5-0.2,1.1-0.4,1.7-0.6c0,1.7,0,3.4,0,5.1
		C43,28.3,42.9,28.4,42.8,28.4z"/>
	<path class="st2" d="M23.7,28.7c-0.1-0.1-0.2-0.3-0.3-0.4c-1.3-1.2-2.8-1.9-4.6-2.1c-0.8-0.1-0.9,0.1-0.9,0.9
		c0.2,1.8,0.9,3.4,2.1,4.6c0.9,0.9,2,1.1,3.1,0.6c0.2-0.1,0.4-0.2,0.7-0.3c0,1.2,0,2.4,0,3.5c-0.1,0-0.1,0.1-0.2,0.1
		c-0.1-0.1-0.1-0.3-0.2-0.4c-1.4-1.2-2.9-2-4.8-2.2c-0.6-0.1-0.8,0.2-0.8,0.8c0.1,1.7,0.8,3.2,1.9,4.5c0.9,1.1,2.2,1.3,3.5,0.8
		c0.1-0.1,0.3-0.1,0.5-0.2c0,1.4,0,2.8,0,4.2c-0.1-0.1-0.2-0.1-0.2-0.1c-1.1-1.1-2.3-1.7-3.8-1.9c-0.7-0.1-1,0-0.9,0.8
		c0.2,1.5,0.8,2.8,1.8,3.8c0.7,0.7,1.5,0.7,2.4,0.4c0.2-0.1,0.4-0.1,0.6-0.2l0,0l0,9.7c0.2,0,0.4,0.1,0.6,0.1l0-9.8l0.1,0
		c0.2,0.1,0.4,0.2,0.6,0.2c0.9,0.3,1.8,0.2,2.5-0.5c1-1,1.6-2.3,1.8-3.7c0.1-0.7-0.2-0.9-0.8-0.8c-1.2,0.2-2.3,0.7-3.3,1.4
		c-0.3,0.2-0.5,0.4-0.8,0.7c0-1.5,0-2.8,0-4.2c0.3,0.1,0.5,0.2,0.7,0.3c1,0.4,2.1,0.3,2.9-0.4c1.5-1.4,2.3-3.1,2.4-5.2
		c0-0.4-0.2-0.6-0.6-0.6c-1,0.2-1.9,0.3-2.8,0.7c-0.9,0.4-1.7,1-2.6,1.6c0-1.1,0-2.2,0-3.4c0.3,0.1,0.4,0.2,0.6,0.3
		c1.1,0.4,2.2,0.4,3-0.4c1.5-1.3,2.2-3.1,2.4-5.1c0-0.5-0.2-0.7-0.7-0.7c-1.9,0.1-3.5,0.9-4.9,2.1c-0.1,0.1-0.3,0.2-0.4,0.4
		c0-1.3,0-2.4,0-3.6c0.2,0.1,0.3,0.1,0.4,0.1c1.7,0.7,3,0.4,4-1.2c0.6-1,1.2-2,1.4-3.1c0.4-1.9,0.3-1.9-1.6-1.6
		c-1.6,0.3-3,1.1-4.2,2.3c-0.1,0-0.1,0-0.2-0.1c0-1,0-1.9,0-2.9c0-0.5,0.1-0.7,0.6-0.9c0.9-0.5,1.5-1.3,1.6-2.3
		c0.1-1.9-0.6-3.5-1.7-5c-0.5-0.7-0.8-0.7-1.3,0c-1.2,1.4-1.7,3.1-1.8,4.9c0,0.9,0.4,1.8,1.2,2.2c1,0.5,1,1.2,1,2c0,0.5,0,1.1,0,1.6
		c0,0.2,0,0.3-0.1,0.5c-0.1,0-0.1,0-0.1,0c-0.1-0.1-0.1-0.2-0.2-0.2c-1.4-1.2-2.9-2.1-4.8-2.2c-0.7,0-0.8,0.1-0.8,0.8
		c0.1,1.8,0.9,3.4,2.1,4.7c0.7,0.7,1.6,1,2.7,0.7c0.4-0.1,0.7-0.2,1.1-0.4c0,1.2,0,2.3,0,3.5C23.8,28.6,23.8,28.7,23.7,28.7z"/>
</g>
</svg>
