<svg xmlns="http://www.w3.org/2000/svg" viewBox="0 0 88.11 77.93"><title>magazine</title><path d="M69.7,11.54c-6.88,0-13.28,2.52-19.05,7.49L50,19.6,49.35,19c-5.77-5-12.17-7.49-19-7.49-13.06,0-23,9.07-23.44,9.46a2.15,2.15,0,0,0-.7,1.59v54.2a2.13,2.13,0,0,0,1,1.83,2.15,2.15,0,0,0,2.1.11c.12-.06,12.13-5.9,23.78-5.9,6.58,0,11.76,1.84,15.41,5.49l.39.31.14.08h.2l.16.15a2.08,2.08,0,0,0,1.21,0l.65-.31.33-.28c3.61-3.61,8.79-5.46,15.37-5.46,11.58,0,23.29,5.66,23.78,5.9a2.16,2.16,0,0,0,3.12-1.93V22.59A2.18,2.18,0,0,0,93.14,21C92.72,20.62,82.72,11.54,69.7,11.54ZM47.84,72.24l-1.46-.77a28.17,28.17,0,0,0-13.31-3c-8,0-16,2.41-21.22,4.43l-1.36.53V23.57l.38-.3c2.82-2.23,10.36-7.42,19.44-7.42,6.19,0,12,2.47,17.21,7.34l.32.3Zm41.67,1.23-1.36-.53c-5.24-2-13.18-4.43-21.22-4.43a28.1,28.1,0,0,0-13.3,3l-1.47.77V23.49l.32-.3c5.23-4.87,11-7.34,17.22-7.34,9,0,16.59,5.19,19.43,7.43l.38.3Z" transform="translate(-5.95 -11.54)"/><path d="M21.35,45.71a2.38,2.38,0,0,1-1-4.54c.37-.18,9.26-4.22,17.7,0a2.38,2.38,0,1,1-2.15,4.25c-6.34-3.19-13.48,0-13.55,0A2.38,2.38,0,0,1,21.35,45.71Z" transform="translate(-5.95 -11.54)"/><path d="M21.35,57.65a2.38,2.38,0,0,1-1-4.54c.37-.18,9.26-4.22,17.7,0a2.38,2.38,0,1,1-2.15,4.25c-6.34-3.19-13.48,0-13.55,0A2.38,2.38,0,0,1,21.35,57.65Z" transform="translate(-5.95 -11.54)"/><path d="M63,46.55A2.38,2.38,0,0,1,62,42c.37-.18,9.26-4.22,17.7,0a2.39,2.39,0,1,1-2.15,4.26c-6.34-3.2-13.48,0-13.55,0A2.38,2.38,0,0,1,63,46.55Z" transform="translate(-5.95 -11.54)"/><path d="M63,58.49A2.38,2.38,0,0,1,62,54c.37-.18,9.26-4.22,17.7,0a2.38,2.38,0,1,1-2.15,4.25c-6.34-3.19-13.48,0-13.55,0A2.38,2.38,0,0,1,63,58.49Z" transform="translate(-5.95 -11.54)"/><path d="M21.35,33.63a2.39,2.39,0,0,1-1-4.55c.37-.17,9.26-4.22,17.7,0a2.39,2.39,0,0,1-2.15,4.26c-6.34-3.2-13.48,0-13.55,0A2.38,2.38,0,0,1,21.35,33.63Z" transform="translate(-5.95 -11.54)"/><path d="M63,34.47a2.39,2.39,0,0,1-1-4.55c.37-.17,9.26-4.22,17.7,0a2.39,2.39,0,1,1-2.15,4.26c-6.34-3.2-13.48,0-13.55,0A2.38,2.38,0,0,1,63,34.47Z" transform="translate(-5.95 -11.54)"/><path d="M92.73,84.94a73.06,73.06,0,0,0-16.26-5.37A43.63,43.63,0,0,0,62,78.91a24,24,0,0,0-12,5,24,24,0,0,0-12-5,43.63,43.63,0,0,0-14.48.66A73.06,73.06,0,0,0,7.27,84.94a2.38,2.38,0,0,0,1.06,4.52,2.48,2.48,0,0,0,1.06-.24c.26-.13,26.5-12.88,38.93-.45a2.38,2.38,0,0,0,3.37,0c12.4-12.41,38.66.32,38.93.45a2.41,2.41,0,0,0,1,.24,2.38,2.38,0,0,0,1.06-4.52Z" transform="translate(-5.95 -11.54)"/></svg>