<svg xmlns="http://www.w3.org/2000/svg" viewBox="0 0 61.03 72.67"><title>migration-urbanisation</title><path d="M60,18.64H53v-3a1,1,0,0,0-1-1H40a1,1,0,0,0-1,1h0v3H32a1,1,0,0,0-1,1h0v16a1,1,0,0,0,1,1H60a1,1,0,0,0,1-1h0v-16A1,1,0,0,0,60,18.64Zm-21,16H33v-14h6Zm12-15v15H41v-18H51Zm8,15H53v-14h6Z" transform="translate(0 0)" style="fill:#fff"/><path d="M51,45.64H36.79a4,4,0,0,1,1,2H51a8,8,0,0,1,0,16H42v2h9a10,10,0,0,0,0-20Z" transform="translate(0 0)" style="fill:#fff"/><rect x="47.03" y="18.64" width="2" height="2" style="fill:#fff"/><rect x="47.03" y="22.64" width="2" height="2" style="fill:#fff"/><rect x="47.03" y="26.64" width="2" height="2" style="fill:#fff"/><rect x="47.03" y="30.64" width="2" height="2" style="fill:#fff"/><rect x="43.03" y="18.64" width="2" height="2" style="fill:#fff"/><rect x="43.03" y="22.64" width="2" height="2" style="fill:#fff"/><rect x="43.03" y="26.64" width="2" height="2" style="fill:#fff"/><rect x="43.03" y="30.64" width="2" height="2" style="fill:#fff"/><rect x="55.03" y="22.64" width="2" height="2" style="fill:#fff"/><rect x="55.03" y="26.64" width="2" height="2" style="fill:#fff"/><rect x="55.03" y="30.64" width="2" height="2" style="fill:#fff"/><rect x="35.03" y="22.64" width="2" height="2" style="fill:#fff"/><rect x="35.03" y="26.64" width="2" height="2" style="fill:#fff"/><rect x="35.03" y="30.64" width="2" height="2" style="fill:#fff"/><path d="M42.7,53.69,36.58,51.2a4.13,4.13,0,0,0-5.77-5.91c-.11.11-.22.23-.32.35H11a8,8,0,0,1,0-16H28a1,1,0,0,0,1-1,1,1,0,0,0-.3-.72l-6-6-1.41,1.42,4.29,4.3H11a10,10,0,0,0,0,20H29.56q0,.33-.06.66a4.09,4.09,0,0,0,.62,2.18,3.71,3.71,0,0,0-2.27,3.42,18.7,18.7,0,0,1-.34,3.5H23a.85.85,0,0,0-.83.82v8.26a.83.83,0,0,0,.83.83h2.1L24.48,69A2.47,2.47,0,0,0,29,70.89l1.8-3.55h2a.81.81,0,0,0,.79-.64l2.57,3.86a2.68,2.68,0,0,0,4.49-2.92l-4.51-7.1.64-4.46L41,57.67a1.53,1.53,0,0,0,.9,0,2.06,2.06,0,0,0,.86-.87C43.79,55.07,43,53.87,42.7,53.69ZM27.56,70.16a.84.84,0,0,1-1.14.32h0a.91.91,0,0,1-.24-.2.85.85,0,0,1-.11-.74l.74-2.18H29ZM32,65.65H23.72v-6.6H32Zm9.55-9.77a.62.62,0,0,1-.26.09l-4.87-1.82a.83.83,0,0,0-1.07.49.75.75,0,0,0,0,.16l-.83,5.78a.92.92,0,0,0,.12.56l4.69,7.35a1,1,0,0,1,.12.83,1,1,0,0,1-.53.64,1,1,0,0,1-1.31-.35L33.6,63.75V58.22a.85.85,0,0,0-.83-.82H29.19a19.63,19.63,0,0,0,.31-3.5,2,2,0,0,1,2-2h.16a.83.83,0,0,0,.61-1.55,2.48,2.48,0,0,1-.66-3.44,2.27,2.27,0,0,1,.41-.47,2.44,2.44,0,0,1,2-.6,2.47,2.47,0,0,1,.59,4.76.83.83,0,0,0-.44,1.09h0a.79.79,0,0,0,.44.44L41.74,55a.61.61,0,0,1-.16.85l0,0Z" transform="translate(0 0)" style="fill:#fff"/><path d="M33.32,3.85A8.76,8.76,0,0,0,26.06,0H26a8.89,8.89,0,0,0-8.86,8.92h0A8.77,8.77,0,0,0,17.67,12,7.12,7.12,0,0,0,19,14.13L26,22.41l7.06-8.28A7.14,7.14,0,0,0,34.36,12,8.86,8.86,0,0,0,33.32,3.85Zm-.59,7.55h0a5.72,5.72,0,0,1-1,1.61L26,19.7,20.27,13a5.61,5.61,0,0,1-1-1.59,7.2,7.2,0,0,1,4.21-9.27A7,7,0,0,1,26,1.69H26a7.2,7.2,0,0,1,7.13,7.25A7.37,7.37,0,0,1,32.73,11.4Z" transform="translate(0 0)" style="fill:#fff"/><path d="M26,4.52a4.34,4.34,0,1,0,4.34,4.34h0A4.33,4.33,0,0,0,26,4.53Zm0,6.93a2.6,2.6,0,1,1,2.6-2.6h0A2.59,2.59,0,0,1,26,11.45Z" transform="translate(0 0)" style="fill:#fff"/><path d="M9.19,52.17.27,58.9a.68.68,0,0,0-.27.54V72a.7.7,0,0,0,.68.67H6.73A.71.71,0,0,0,7.4,72V66.84h4.48V72a.7.7,0,0,0,.68.67h6a.71.71,0,0,0,.67-.67V59.44A.7.7,0,0,0,19,58.9l-9-6.73A.68.68,0,0,0,9.19,52.17Zm.4,1.38,8.3,6.22V71.35H13.18V66.16a.71.71,0,0,0-.67-.67H6.68a.71.71,0,0,0-.67.67v5.19H1.27V59.77Z" transform="translate(0 0)" style="fill:#fff"/></svg>