<svg xmlns="http://www.w3.org/2000/svg" viewBox="0 0 88.49 88.5"><title>newsletters</title><path d="M23.24,67.5a6.4,6.4,0,0,1-6.37,6.38,2.07,2.07,0,0,0,0,4.13A10.53,10.53,0,0,0,27.37,67.5V4.88H85.12V70.31A14.85,14.85,0,0,1,70.3,85.13H16.87a12,12,0,0,1-12-12V30.94a2.06,2.06,0,1,0-4.12,0V73.13A16.16,16.16,0,0,0,16.87,89.25H70.3A19,19,0,0,0,89.24,70.31V.75h-66Z" transform="translate(-0.75 -0.75)"/><path d="M14.05,66.75a2.06,2.06,0,0,0,2.06-2.06V19a2.07,2.07,0,0,0-2.06-2.06h0A2.06,2.06,0,0,0,12,19V64.7A2.06,2.06,0,0,0,14.05,66.75Z" transform="translate(-0.75 -0.75)"/><path d="M37.3,33H55.49V14.81H37.3Zm4.13-14.06h9.94v9.94H41.43Z" transform="translate(-0.75 -0.75)"/><rect x="61.87" y="16.88" width="12.56" height="4.13"/><rect x="61.87" y="28.13" width="12.56" height="4.13"/><rect x="36.55" y="39.38" width="37.87" height="4.13"/><rect x="36.55" y="50.63" width="37.87" height="4.13"/><rect x="36.55" y="61.88" width="21" height="4.13"/></svg>