<svg xmlns="http://www.w3.org/2000/svg" viewBox="0 0 95.87 60.79"><title>Nutrition</title><path d="M22.92,59.75c6.75,0,16.06-1.53,21.9-5.69.25,3.76,2.94,6.73,6.22,6.73a5.75,5.75,0,0,0,4.18-1.88,7.83,7.83,0,0,0,5.2,1.84c3.93,0,8.33-2.67,8.33-6.25v-.14A16.34,16.34,0,0,0,71,54.21c1.89,3.43,4.83,6.44,8,6.44a5,5,0,0,0,1.16-.14,7.22,7.22,0,0,0,2.19-.94,7.39,7.39,0,0,0,2.2.94c5,1.19,9.61-5.59,10.94-10.73a11.28,11.28,0,0,0-1-8.55,8.26,8.26,0,0,0-1.36-1.7,24.67,24.67,0,0,0,2.79-11.32V26.29a1,1,0,0,0-1-1H58.67v-.35a3.08,3.08,0,0,0-.92-2.2,3.15,3.15,0,0,0-2-.89,3.09,3.09,0,0,0-.92-2,3.15,3.15,0,0,0-4.41,0,3.11,3.11,0,0,0-.62,3.53l-2,1.93H46c.28-.56.54-1.12.79-1.68A38.33,38.33,0,0,0,49.92,5.42L49.77,3.3a1,1,0,0,0-.44-.78,1.72,1.72,0,0,0-.89-.15,38.17,38.17,0,0,0-17,10.26h0a38.23,38.23,0,0,0-5.66,7.54l-3.25,5.58a19.77,19.77,0,0,0-2.66.24l.66-12.56a5.69,5.69,0,0,0-5.36-6h0a6.22,6.22,0,0,0-1.29.08L11.34,8l-.78-3.15L14.17,2.1,12.92.46,10,2.64,9.35,0l-2,.5.71,2.87H4.17V5.46H8.56l.72,2.88-1.36.24a5.7,5.7,0,0,0-4.61,6.59,5.63,5.63,0,0,0,.46,1.44L10.12,30C4.12,34.26,0,41,0,46.86,0,55.28,7.92,59.75,22.92,59.75Zm28.12-1c-2.29,0-4.16-2.33-4.16-5.21,0-3.09,2.1-6.25,4.16-6.25s4.17,3.16,4.17,6.25c0,2.82-1.87,5.15-4.17,5.15Zm9.38,0a5.79,5.79,0,0,1-4-1.52,8.16,8.16,0,0,0,.86-3.69A9.24,9.24,0,0,0,57,51.45a5.87,5.87,0,0,1,3.37-1c3.1,0,6.25,2.1,6.25,4.16s-3.14,4.08-6.24,4.08Zm7.74-6.37c-1.33-2.41-4.67-4-7.74-4a8.27,8.27,0,0,0-4.06,1.07c-1.08-2.36-3-4.19-5.32-4.19a3.77,3.77,0,0,0-1,.14,10.53,10.53,0,0,0-.62-3.47,29.4,29.4,0,0,0,18.33,6.35H68.9a11.41,11.41,0,0,0,.3,1.65A18.8,18.8,0,0,0,70,52.36c-.63,0-1.26,0-1.87,0ZM42.67,30.6a4.42,4.42,0,0,1,3.16,1,4.33,4.33,0,0,1,1.09,3.15,14.18,14.18,0,0,1-3.9,9c-3,3-7.59,3.33-10.18.76A6,6,0,0,1,31.1,40.2a8.18,8.18,0,0,1,2.51-5.71A14.53,14.53,0,0,1,42.67,30.6Zm47.44,7.2a26.23,26.23,0,0,0,3.13-4.87,22.35,22.35,0,0,1-1.89,5.38A7,7,0,0,0,90.11,37.8Zm-2.5-.31A8.38,8.38,0,0,0,83.35,39a9.5,9.5,0,0,1,1.5-5.23l-1.71-1.18a11.3,11.3,0,0,0-1.87,6.48,8,8,0,0,0-6.35-1.38,7.67,7.67,0,0,0-4.73,3.58,10.47,10.47,0,0,0-1.4,4.81H67.72a27,27,0,0,1-19.28-7.92,12.91,12.91,0,0,0,.48-3.39,7.74,7.74,0,0,0-.18-1.66l5.5-5.34a3.15,3.15,0,0,0,3.27-.37H93.09A23.33,23.33,0,0,1,87.61,37.49Zm5.81,11.79c-1.24,4.8-5.28,10-8.44,9.23a5.1,5.1,0,0,1-2-1,1,1,0,0,0-1.31,0,5.1,5.1,0,0,1-2,1c-3.15.76-7.2-4.43-8.44-9.23a9.19,9.19,0,0,1,.8-7,5.25,5.25,0,0,1,4.62-2.77,6.85,6.85,0,0,1,4.94,2.41A1,1,0,0,0,83,42l.06-.06.06-.06a6.46,6.46,0,0,1,6.13-2.27,5.46,5.46,0,0,1,3.43,2.63A9.18,9.18,0,0,1,93.42,49.28ZM51.92,24.19a1.05,1.05,0,0,0,0-1.44h0a1,1,0,0,1,0-1.41h0a1.06,1.06,0,0,1,1.48,0,1,1,0,0,1,0,1.41h0a1,1,0,0,0,0,1.48,1,1,0,0,0,1.41.06l.06-.06a1.08,1.08,0,0,1,1.49,0,1,1,0,0,1,0,1.41h0a1.08,1.08,0,0,1-1.49,0,1,1,0,0,0-1.41,0l-.05,0L47.92,31a4.59,4.59,0,0,0-1.45-1.46Zm-7.53,4.5a9.34,9.34,0,0,0-2.69-.12V27.33h4.08ZM34,13l.63-.6c.32-.29.66-.57,1-.86s.44-.38.67-.56.69-.53,1-.79l.7-.52c.36-.26.73-.5,1.1-.74l.71-.46c.39-.24.79-.47,1.18-.69s.46-.28.7-.4c.43-.24.87-.45,1.31-.66l.63-.32c.51-.24,1-.45,1.56-.67l.45-.19c.68-.26,1.36-.51,2.06-.74l.06.81c.05.68.07,1.36.08,2V9.79a1,1,0,0,0,0,.25l-4.12,5.14,1.63,1.31,2.07-2.6v.18c-.07.39-.15.78-.23,1.17s-.12.63-.19.94-.19.75-.29,1.13-.16.64-.25,1-.23.73-.35,1.1-.21.63-.32,1-.27.71-.41,1.07l-.25.63a14.64,14.64,0,0,1-11.75-8.45A5.41,5.41,0,0,1,34,13Zm-6.52,8.28a36.49,36.49,0,0,1,4.34-6A16.7,16.7,0,0,0,44.24,24c-.19.4-.41.81-.63,1.22h-3a1,1,0,0,0-1,1v2.63a15.58,15.58,0,0,0-2.22.73,32.58,32.58,0,0,0-12.47-3.79ZM7.6,19.88,14.72,19l-.26-2.07-7.79,1-1-2.17A3.59,3.59,0,0,1,7.35,11a3.74,3.74,0,0,1,.91-.3l6-1.05a3.57,3.57,0,0,1,4,2.34l-5.9.8.29,2.06L18.41,14,18,21.18l-5.7,1,.34,2,5.25-.86-.16,3.1a22.94,22.94,0,0,0-5.84,2.47Zm15.32,8a28.83,28.83,0,0,1,12.12,3A14.49,14.49,0,0,0,32.11,33,10.23,10.23,0,0,0,29,40.2,8.07,8.07,0,0,0,31.33,46a8.27,8.27,0,0,0,5.85,2.31,10.42,10.42,0,0,0,7.26-3.08A14.72,14.72,0,0,0,47,41.66a9.13,9.13,0,0,1,.88,3.7,7.31,7.31,0,0,1-.1,1.14,9.24,9.24,0,0,0-2.72,4.68c-4.18,3.86-13,6.47-22.18,6.47-9.5,0-20.83-1.9-20.83-10.79C2.09,38.29,11.7,27.83,22.92,27.83Z" transform="translate(-0.02)" style="fill:#fff"/><rect x="78.1" y="31.5" width="2.08" height="3.12" style="fill:#fff"/><rect x="71.85" y="31.5" width="2.08" height="3.12" style="fill:#fff"/><rect x="65.6" y="31.5" width="2.08" height="3.12" style="fill:#fff"/><rect x="59.35" y="31.5" width="2.08" height="3.12" style="fill:#fff"/><rect x="53.1" y="31.5" width="2.08" height="3.12" style="fill:#fff"/><path d="M23.92,33.06V31C15.31,31,8.3,36.35,8.3,43h2.12C10.42,37.5,16.49,33.06,23.92,33.06Z" transform="translate(-0.02)" style="fill:#fff"/><rect x="37.48" y="11.71" width="2.08" height="2.08" style="fill:#fff"/></svg>