<svg xmlns="http://www.w3.org/2000/svg" viewBox="0 0 90 80"><title>opinions</title><path d="M89,10H31a6,6,0,0,0-6,6V40H11a6,6,0,0,0-6,6V76a6,6,0,0,0,6,6h4l5.4,7.2a2,2,0,0,0,3.2,0L29,82H55a6,6,0,0,0,6-6V62H71l5.4,7.2a2,2,0,0,0,3.2,0L85,62h4a6,6,0,0,0,6-6V16A6,6,0,0,0,89,10ZM57,76a2,2,0,0,1-2,2H28a2.09,2.09,0,0,0-1.6.8L22,84.7l-4.4-5.9A2.09,2.09,0,0,0,16,78H11a2,2,0,0,1-2-2V46a2,2,0,0,1,2-2H25V56a6,6,0,0,0,6,6H57ZM91,56a2,2,0,0,1-2,2H84a2.09,2.09,0,0,0-1.6.8L78,64.7l-4.4-5.9A2.09,2.09,0,0,0,72,58H31a2,2,0,0,1-2-2V16a2,2,0,0,1,2-2H89a2,2,0,0,1,2,2ZM75,30.8l-9.1-1.3-4.1-8.3a2,2,0,0,0-3.6,0l-4.1,8.3L45,30.8a1.81,1.81,0,0,0-1.6,1.4,2.08,2.08,0,0,0,.5,2l6.6,6.4-1.6,9.1a2.17,2.17,0,0,0,.8,2,2.23,2.23,0,0,0,2.1.2L60,47.6l8.2,4.3a2.92,2.92,0,0,0,.9.2,1.92,1.92,0,0,0,1.2-.4,2.17,2.17,0,0,0,.8-2l-1.6-9.1,6.6-6.4a2.08,2.08,0,0,0,.5-2A1.81,1.81,0,0,0,75,30.8Zm-9,7.7a2,2,0,0,0-.6,1.8l1,6.1-5.5-2.9a1.49,1.49,0,0,0-.9-.2,2.92,2.92,0,0,0-.9.2l-5.5,2.9,1-6.1a2.11,2.11,0,0,0-.6-1.8l-4.5-4.3,6.2-.9a1.92,1.92,0,0,0,1.5-1.1L60,26.6l2.8,5.6a2.09,2.09,0,0,0,1.5,1.1l6.2.9ZM31,70a2,2,0,0,1,.6-1.4,1.93,1.93,0,0,1,2.8,0,1.93,1.93,0,0,1,0,2.8,2.09,2.09,0,0,1-.6.4,1.2,1.2,0,0,1-.8.2,2.05,2.05,0,0,1-2-2Zm10.6,1.4a1.93,1.93,0,0,1,0-2.8c.1-.1.2-.2.3-.2s.2-.1.3-.2.2-.1.4-.1a2.27,2.27,0,0,1,1.8.5,1.93,1.93,0,0,1,0,2.8c-.1.1-.2.2-.3.2s-.2.1-.3.2-.2.1-.4.1H43a1.2,1.2,0,0,1-.8-.2C42,71.8,41.8,71.6,41.6,71.4ZM24.4,68.6A2,2,0,0,1,23,72a1.2,1.2,0,0,1-.8-.2c-.2-.1-.5-.2-.6-.4a1.93,1.93,0,0,1,0-2.8A1.93,1.93,0,0,1,24.4,68.6Z" transform="translate(-5 -10)"/></svg>