<svg xmlns="http://www.w3.org/2000/svg" viewBox="0 0 93.75 87.5"><title>publications</title><path d="M95.31,81.25H93.92l.17,0a1.56,1.56,0,0,0,1.2-1.79L84.35,16.92a1.56,1.56,0,0,0-1.81-1.27l-.06,0L68.41,18.79a1.58,1.58,0,0,0-1.2,1.8l1.32,7.54H56.25V7.81a1.56,1.56,0,0,0-1.56-1.56H35.94a1.56,1.56,0,0,0-1.56,1.56v9.38H20.31a1.56,1.56,0,0,0-1.56,1.56v9.38H4.69a1.55,1.55,0,0,0-1.56,1.56v62.5a1.56,1.56,0,0,0,1.56,1.56H95.31a1.56,1.56,0,0,0,1.57-1.56V82.81A1.56,1.56,0,0,0,95.31,81.25Zm-57.81,0V71.88H53.13v9.37Zm-15.62,0V78.13h12.5v3.12Zm0-9.37h12.5V75H21.88Zm15.62-50H53.13V68.75H37.5ZM68.75,53.13H56.25V42.19h12.5Zm-12.5,3.12h12.5v25H56.25Zm15.63-9,6,34h-6Zm9.68-28.17L92,78.49,81,80.94,70.55,21.51ZM68.75,31.25v7.81H56.25V31.25ZM37.5,9.38H53.13v9.37H37.5ZM21.88,20.31h12.5V68.75H21.88ZM6.25,31.25h12.5v50H6.25Zm87.5,59.38H6.25V84.38h87.5Z" transform="translate(-3.13 -6.25)"/><path d="M12.5,35.94a1.56,1.56,0,0,0-1.56,1.56V60.94a1.56,1.56,0,0,0,3.12,0V37.5A1.56,1.56,0,0,0,12.5,35.94Z" transform="translate(-3.13 -6.25)"/><path d="M12.5,65.63a1.56,1.56,0,0,0-1.56,1.56v3.12a1.56,1.56,0,1,0,3.12,0V67.19A1.56,1.56,0,0,0,12.5,65.63Z" transform="translate(-3.13 -6.25)"/><path d="M48.44,25H42.19a1.57,1.57,0,0,0,0,3.13h6.25a1.57,1.57,0,0,0,0-3.13Z" transform="translate(-3.13 -6.25)"/><path d="M48.44,62.5H42.19a1.57,1.57,0,0,0,0,3.13h6.25a1.57,1.57,0,0,0,0-3.13Z" transform="translate(-3.13 -6.25)"/></svg>