<svg xmlns="http://www.w3.org/2000/svg" viewBox="0 0 72.53 100"><title>skilling</title><path d="M15.91,98.44A1.56,1.56,0,0,0,17.47,100h9.12a1.57,1.57,0,0,0,0-3.13H17.47a1.56,1.56,0,0,0-1.56,1.56Z" style="fill:#fff"/><path d="M22.7,90.62H14.89a5.47,5.47,0,1,0,0,3.13H22.7a1.57,1.57,0,0,0,0-3.13Zm-13,3.91A2.35,2.35,0,1,1,12,92.17v0A2.34,2.34,0,0,1,9.7,94.53Z" style="fill:#fff"/><path d="M47.59,74.84c1-7.31,5.85-14.06,10.5-20.53,1.25-1.74,2.42-3.38,3.55-5.08,2.6-4.07,5.59-9.6,5.59-16.32C67.18,14.76,52.11,0,33.59,0S0,14.76,0,32.91a31.61,31.61,0,0,0,6.36,19C7.19,53,8,54.15,8.89,55.26c4.47,5.79,8.7,11.28,10.32,18.36l.07.29a51,51,0,0,1,1.31,10.15H17.47a1.57,1.57,0,0,0,0,3.13H28a1.56,1.56,0,0,0,1.57-1.55h0V73.13a1.56,1.56,0,1,0-3.12,0h0V84.06h-2.8a53.65,53.65,0,0,0-1.34-10.93l-.07-.27c-1.79-7.73-6.41-13.76-10.87-19.59-.84-1.09-1.68-2.19-2.51-3.3A28.55,28.55,0,0,1,3.13,32.91c0-16.43,13.66-29.79,30.46-29.79S64.06,16.48,64.06,32.91c0,5.92-2.73,10.93-5.08,14.61-1.09,1.63-2.25,3.26-3.51,5-4.88,6.78-9.88,13.82-11.06,21.85v.33c-.18,1.22-.65,4.49-.9,8.33v.2a.49.49,0,0,0,0,.17v.15a.19.19,0,0,0,0,.15c.05,0,0,.09.07.13l.07.13.08.12.1.12.11.1.11.1.13.08.13.07h.14l.15,0H61.84a5.46,5.46,0,1,0,0-3.13H46.73c.25-3,.6-5.4.78-6.41Zm19.64,6a2.34,2.34,0,1,1-2.34,2.34h0a2.34,2.34,0,0,1,2.29-2.38Z" style="fill:#fff"/><path d="M12.72,48.8a2.84,2.84,0,0,0,.84,2l3.62,3.63a2.91,2.91,0,0,0,4,0L22.65,53l.71.39V49.71h-.05L22.24,49l-3,3L16,48.81l3-3-.72-1.07A18.44,18.44,0,0,1,15.51,38l-.24-1.27H10.93V32.12h4.3l.24-1.27a18.29,18.29,0,0,1,2.82-6.79L19,23l-3-3,3.2-3.19,3,3,1.07-.72a18.11,18.11,0,0,1,6.79-2.81L31.32,16V11.7h4.53V16l1.26.24a18.27,18.27,0,0,1,6.79,2.81l1.07.72,3-3,3.2,3.2-3,3L48.89,24a18.44,18.44,0,0,1,2.81,6.79l.24,1.27h4.31v4.52H52l-.24,1.27a18.29,18.29,0,0,1-2.82,6.79l-.71,1.07,3,3L48,52l-3-3L44,49.72h-.08v3.64l.72-.36L46,54.45a2.91,2.91,0,0,0,4,0l3.56-3.67a2.84,2.84,0,0,0,0-4h0l-1.44-1.46a21.37,21.37,0,0,0,2.34-5.58h2a2.84,2.84,0,0,0,2.8-2.81v-5.1A2.84,2.84,0,0,0,56.59,29h-2a21.07,21.07,0,0,0-2.35-5.58L53.59,22a2.84,2.84,0,0,0,0-4h0L50,14.39a2.91,2.91,0,0,0-4,0l-1.45,1.45A21.3,21.3,0,0,0,39,13.5v-2a2.86,2.86,0,0,0-2.8-2.84h-5.1a2.86,2.86,0,0,0-2.83,2.84v2.05a21.24,21.24,0,0,0-5.64,2.27l-1.44-1.45a2.91,2.91,0,0,0-4,0L13.59,18a2.84,2.84,0,0,0,0,4h0L15,23.46A21.2,21.2,0,0,0,12.66,29h-2a2.85,2.85,0,0,0-2.83,2.81v5.1a2.86,2.86,0,0,0,2.83,2.84h2A21.07,21.07,0,0,0,15,45.33L13.59,46.8A2.79,2.79,0,0,0,12.72,48.8Z" style="fill:#fff"/><path d="M28,66.89a1.56,1.56,0,0,0,1.57-1.55h0V48.64a14.14,14.14,0,0,0,8,0v43.9a1.56,1.56,0,0,0,1.56,1.56H49.46a5.47,5.47,0,1,0,0-3.12H40.7V47.3a13.78,13.78,0,0,0-1-24.43,1.57,1.57,0,0,0-2.09.72,1.6,1.6,0,0,0-.15.68v8.07l-3.87,2.52-3.91-2.52V24.27a1.56,1.56,0,0,0-1.56-1.56h0a1.45,1.45,0,0,0-.68.16,13.77,13.77,0,0,0-1,24.41v18A1.56,1.56,0,0,0,28,66.89ZM54.68,90.2a2.34,2.34,0,1,1-2.34,2.34h0A2.34,2.34,0,0,1,54.68,90.2Zm-32-54.86a10.58,10.58,0,0,1,3.91-8.24v6.1a1.56,1.56,0,0,0,.72,1.31L32.75,38a1.57,1.57,0,0,0,1.69,0l5.47-3.52a1.57,1.57,0,0,0,.68-1.28V27.1a10.58,10.58,0,0,1,3.91,8.24,10.94,10.94,0,0,1-21.88,0h.06Z" style="fill:#fff"/></svg>