<svg xmlns="http://www.w3.org/2000/svg" viewBox="0 0 28.2 31.92"><title>social-justice-inclusion</title><path d="M20,28.9H16V25.4a1.54,1.54,0,0,0-1.5-1.5V18.6a.54.54,0,0,0-.5-.5.47.47,0,0,0-.5.5v5.3A1.54,1.54,0,0,0,12,25.4v3.5H8a.47.47,0,0,0-.5.5v2a.47.47,0,0,0,.5.5H20a.47.47,0,0,0,.5-.5v-2A.47.47,0,0,0,20,28.9Zm-7-3.5a.47.47,0,0,1,.5-.5h1a.47.47,0,0,1,.5.5v3.5H13Zm6.5,5.5H8.5v-1h11Z" transform="translate(0 0.02)" style="fill:#fff"/><circle cx="14" cy="16.92" r="0.5" style="fill:#fff"/><path d="M28,18.7l-3.5-11a.66.66,0,0,0-.5-.4H20.5V5.9a6.52,6.52,0,0,0-13,1v.5H4a.55.55,0,0,0-.5.3L0,18.7v.9a3.8,3.8,0,0,0,7.6,0v-.9L4.7,8.4h3v.1a6.5,6.5,0,0,0,5.8,4.9v1.7a.5.5,0,1,0,1,0V13.4a6.5,6.5,0,0,0,5.8-4.9V8.4h3L20.6,18.8v.9a3.8,3.8,0,0,0,7.6,0V19C28,18.8,28,18.8,28,18.7ZM3.8,22.4A2.89,2.89,0,0,1,1,19.9H6.5A2.72,2.72,0,0,1,3.8,22.4Zm2.7-3.5H1L4,9.7Zm13-11.6c0,.3-.1.6-.1.9a5.54,5.54,0,0,1-4.9,4.2h-.9A5.54,5.54,0,0,1,8.7,8.2a2.92,2.92,0,0,1-.2-.9V6.9A5.46,5.46,0,0,1,14,1.5,5.55,5.55,0,0,1,19.5,7Zm4.8,15.1a2.72,2.72,0,0,1-2.7-2.5H27A2.72,2.72,0,0,1,24.3,22.4Zm-2.8-3.5L24,9.7l3,9.2Z" transform="translate(0 0.02)" style="fill:#fff"/><path d="M14,6.7a1.24,1.24,0,0,0,1.3-1.4A1.32,1.32,0,0,0,14,4a1.43,1.43,0,0,0-1.4,1.4A1.24,1.24,0,0,0,14,6.7Zm0-1.9a.58.58,0,0,1,.6.6.6.6,0,0,1-1.2,0A.65.65,0,0,1,14,4.8Z" transform="translate(0 0.02)" style="fill:#fff"/><path d="M12.6,7.6c-.2,0-.4.1-.4.3a1.65,1.65,0,0,0-.58-.18,1.34,1.34,0,0,0,1-1.32A1.43,1.43,0,0,0,11.2,5a1.4,1.4,0,0,0-.49,2.71,1.24,1.24,0,0,0-.91.39.33.33,0,0,0,0,.5.35.35,0,0,0,.5.1.76.76,0,0,1,.5-.2h.7a.71.71,0,0,1,.6.3v1.3a.4.4,0,1,0,.8,0v-2C12.8,7.9,12.8,7.7,12.6,7.6ZM11.2,5.8a.58.58,0,0,1,.6.6.6.6,0,0,1-1.2,0A.65.65,0,0,1,11.2,5.8Z" transform="translate(0 0.02)" style="fill:#fff"/><path d="M15.5,9.3a.43.43,0,0,0-.4.4v.4a.4.4,0,1,0,.8,0V9.7C15.8,9.5,15.7,9.3,15.5,9.3Z" transform="translate(0 0.02)" style="fill:#fff"/><path d="M18.2,6.3a1.43,1.43,0,0,0-1.4-1.4,1.37,1.37,0,0,0-1.4,1.4,1.35,1.35,0,0,0,1,1.32,2.3,2.3,0,0,0-.58.18,1.5,1.5,0,0,0-1.4-1h-.7A1.85,1.85,0,0,0,13,7c-.2.1-.2.3-.1.5s.3.2.5.2.2-.1.4-.1h.7a.79.79,0,0,1,.8.8v.5a.4.4,0,0,0,.8,0V8.6a.71.71,0,0,1,.6-.3h.7a.76.76,0,0,1,.5.2.45.45,0,0,0,.5,0,.45.45,0,0,0,0-.5,1.28,1.28,0,0,0-1-.4h-.08A1.35,1.35,0,0,0,18.2,6.3Zm-1.4.6a.65.65,0,0,1-.6-.6.6.6,0,0,1,1.2,0A.65.65,0,0,1,16.8,6.9Z" transform="translate(0 0.02)" style="fill:#fff"/></svg>