<svg xmlns="http://www.w3.org/2000/svg" viewBox="0 0 91.14 87.71"><title>sports</title><path d="M90.53,69.37a7.45,7.45,0,0,0-.76-1.71,4.49,4.49,0,0,1-.57-3,28.18,28.18,0,0,0-.42-8.46A7.68,7.68,0,0,1,88.63,55c0-.24,0-.49-.07-.73a1.54,1.54,0,0,1,.17-1,6.93,6.93,0,0,0,.41-.93c.06-.16.12-.32.19-.48a16.87,16.87,0,0,0,1.45-8,4.61,4.61,0,0,1,0-.51c0-.11,0-.22,0-.33a41.14,41.14,0,0,0-.48-8.19c-.24-1.48-.56-3-.86-4.38-.11-.48-.21-.95-.31-1.43a15.15,15.15,0,0,1-.24-4.94,14.94,14.94,0,0,0,0-1.63v-.82l.06-.91c0-.37,0-.73.06-1.1.05-1.6.09-3.21.11-4.81a3.12,3.12,0,0,0-.12-.91c-.18-.62-.33-1.27-.48-1.89a17.37,17.37,0,0,0-1.53-4.54c-.15-.27-.31-.53-.48-.79a10.09,10.09,0,0,1-.59-1,4.4,4.4,0,0,0-3-2.39,9.2,9.2,0,0,0-5.57,0,4.08,4.08,0,0,1-1.2.19A16.84,16.84,0,0,0,69.89,5a9.41,9.41,0,0,1-2.2.67c-.69.13-1.4.22-2.08.31-.86.12-1.75.24-2.63.42a27.56,27.56,0,0,1-10.93-.06l-2.13-.45C49,5.73,48,5.52,47,5.35a38.12,38.12,0,0,0-9.64-.26l-.41,0a10.1,10.1,0,0,1-4.87-.32,1.47,1.47,0,0,0-.5-.1h-.14L28.8,4.21c-1.85-.33-3.76-.68-5.64-1a14.49,14.49,0,0,0-7.62.4L14.62,4a19,19,0,0,0-1.92.75,1.77,1.77,0,0,1-1.76-.17l-.12-.1a1.59,1.59,0,0,0-.54-.36A1.92,1.92,0,0,0,9,4a2.81,2.81,0,0,0-1.34.83A8.34,8.34,0,0,0,5.57,8.74a28.13,28.13,0,0,0-.43,6c.07,1.64.16,3.58.29,5.56a8.77,8.77,0,0,1-.21,2.38c-.06.31-.13.61-.19.92a23.81,23.81,0,0,0-.59,3.51c-.11,1.66-.1,3.35-.08,5v1.35a54.8,54.8,0,0,0,.8,7.84l.18,1.25A3.12,3.12,0,0,1,5,44.77a19.5,19.5,0,0,0-2.09,5.87,9.76,9.76,0,0,0,.18,5.63,17.31,17.31,0,0,0,1.35,2.92,10.31,10.31,0,0,1,1.67,4.5A35.21,35.21,0,0,0,6.77,68a3.27,3.27,0,0,1-.3,2.1c-.25.57-.48,1.15-.71,1.73s-.4,1-.61,1.48a8.26,8.26,0,0,0-.33,4.9c0,.22.1.44.15.66s.1.4.13.6a12,12,0,0,0,2.09,4.73,2.9,2.9,0,0,0,2.05,1.32,2.81,2.81,0,0,1,1.32.54,9,9,0,0,0,5.89,1.8,20.87,20.87,0,0,1,2.62.1h.1c1.44.12,2.76.18,4,.18a28.2,28.2,0,0,0,6-.6c1.56-.34,3.17-.63,4.78-.85l.91-.13a21.77,21.77,0,0,1,5.58-.32c2.39.29,4.88.47,7.59.55a12.24,12.24,0,0,0,2.39-.17,18.44,18.44,0,0,1,6.76,0c.38.08.77.17,1.15.27.64.16,1.3.32,2,.42,1.44.2,2.82.32,4.09.37a20.79,20.79,0,0,0,5-.26,30,30,0,0,0,8.43-3.07,1.92,1.92,0,0,1,2.05-.07,6.9,6.9,0,0,0,3.88.78l.07,0a1.93,1.93,0,0,0,2,.94,2.25,2.25,0,0,0,1.78-1.54,8.28,8.28,0,0,0,.42-1.73,3.09,3.09,0,0,1,1-2.33,3.12,3.12,0,0,0,1.07-2.26,16.37,16.37,0,0,1,.51-3c.16-.69.32-1.4.43-2.12a5.22,5.22,0,0,0-.22-2.88C90.71,69.88,90.62,69.62,90.53,69.37Zm-.79,3.45c-.1.67-.25,1.33-.41,2a18.26,18.26,0,0,0-.54,3.28,1.85,1.85,0,0,1-.59,1.31,4.36,4.36,0,0,0-1.43,3.19,6.65,6.65,0,0,1-.35,1.46,1,1,0,0,1-.81.67c-.19,0-.36,0-.69-.43a1.38,1.38,0,0,0-.3-.29l-.19-.16-.23-.2-.3,0a5.37,5.37,0,0,1-3.4-.62,3.23,3.23,0,0,0-3.25.1,28.38,28.38,0,0,1-8.07,2.94,19.87,19.87,0,0,1-4.74.23A36.42,36.42,0,0,1,60.49,86a16.54,16.54,0,0,1-1.85-.39l-1.2-.29a20.12,20.12,0,0,0-7.23,0,11.29,11.29,0,0,1-2.13.17c-2.68-.09-5.13-.27-7.49-.55a22.45,22.45,0,0,0-5.92.33l-.9.13c-1.64.22-3.28.51-4.87.86a31.72,31.72,0,0,1-9.62.39h-.1c-.74,0-1.49-.11-2.25-.11h-.54A7.64,7.64,0,0,1,11.33,85,4.16,4.16,0,0,0,9.4,84.2a1.59,1.59,0,0,1-1.14-.77,10.77,10.77,0,0,1-1.88-4.22c0-.23-.09-.45-.15-.68s-.09-.39-.13-.58a6.87,6.87,0,0,1,.24-4.16c.22-.49.42-1,.62-1.5s.46-1.14.7-1.7a4.56,4.56,0,0,0,.39-2.88,32.68,32.68,0,0,1-.61-4.12,11.7,11.7,0,0,0-1.85-5.06,17.07,17.07,0,0,1-1.25-2.7,8.48,8.48,0,0,1-.13-4.9,18.49,18.49,0,0,1,1.93-5.48,4.5,4.5,0,0,0,.49-3.09l-.19-1.25a54.47,54.47,0,0,1-.78-7.66c0-.45,0-.9,0-1.35,0-1.61,0-3.27.09-4.88a22.7,22.7,0,0,1,.56-3.33c.06-.31.13-.62.19-.93a10.07,10.07,0,0,0,.24-2.73c-.13-2-.22-3.89-.29-5.53A26.85,26.85,0,0,1,6.85,9a7.14,7.14,0,0,1,1.83-3.3,1.58,1.58,0,0,1,.76-.43.9.9,0,0,1,.39.06.5.5,0,0,1,.11.1,1.7,1.7,0,0,0,.38.28,3.05,3.05,0,0,0,2.93.21c.57-.27,1.17-.48,1.8-.71l1-.34A13,13,0,0,1,23,4.51c1.87.3,3.78.65,5.62,1L31.25,6l.27,0h.13a11.27,11.27,0,0,0,5.47.42l.39,0a36.46,36.46,0,0,1,9.31.24c.94.16,1.9.37,2.83.57.72.16,1.44.32,2.16.45a28.81,28.81,0,0,0,11.44.06c.83-.17,1.69-.29,2.53-.4s1.43-.19,2.14-.32a11.22,11.22,0,0,0,2.5-.76,15.5,15.5,0,0,1,5.87-1.44,5.2,5.2,0,0,0,1.57-.26,7.9,7.9,0,0,1,4.79,0,3.08,3.08,0,0,1,2.18,1.68,8.57,8.57,0,0,0,.68,1.19c.15.24.3.48.43.73a15.56,15.56,0,0,1,1.4,4.21c.15.64.31,1.3.5,1.95a1.61,1.61,0,0,1,.07.53c0,1.6-.06,3.2-.11,4.79q0,.53-.06,1.05c0,.32,0,.63,0,1s0,.58,0,.87A12,12,0,0,1,87.63,24a16.84,16.84,0,0,0,.27,5.35c.1.48.2,1,.31,1.44.3,1.41.62,2.87.85,4.31A40,40,0,0,1,89.52,43a2.45,2.45,0,0,1,0,.27,5.84,5.84,0,0,0,0,.73,15.58,15.58,0,0,1-1.36,7.38c-.08.17-.14.35-.21.53a4.83,4.83,0,0,1-.32.75,2.78,2.78,0,0,0-.33,1.82c0,.22,0,.45.06.67a10.26,10.26,0,0,0,.19,1.42,26.93,26.93,0,0,1,.38,8.08,5.71,5.71,0,0,0,.79,3.75,6.3,6.3,0,0,1,.61,1.41c.1.28.2.56.31.84A3.89,3.89,0,0,1,89.74,72.82Z" transform="translate(-0.98 -2.35)" style="fill-rule:evenodd"/><path d="M31.35,48.49a1.64,1.64,0,0,0-.09-.44,20.82,20.82,0,0,0-.82-2,7.3,7.3,0,0,1-.7-2.33h0v0l-.05,0,.05,0v.06h0a1.18,1.18,0,0,0,.09-.56,3.66,3.66,0,0,1,0-.81,3.51,3.51,0,0,1,.11-1.07.45.45,0,0,0-.06-.42l-.37,0a.54.54,0,0,0-.47.11,3.37,3.37,0,0,0-.7.71c-.12.19-.24.38-.37.57A3.52,3.52,0,0,0,27.35,44a7.51,7.51,0,0,0,.09,1.77,3,3,0,0,1,0,.94.4.4,0,0,1-.29.37.66.66,0,0,1-.65-.1,3.86,3.86,0,0,1-.54-.6,3.61,3.61,0,0,1-.67-1.85,9.14,9.14,0,0,1,0-1.17,6.83,6.83,0,0,1,.23-1.11,1.35,1.35,0,0,1,.26-.62.33.33,0,0,0,.09-.33.26.26,0,0,1,0-.17,25.05,25.05,0,0,1,.88-2.52,5.87,5.87,0,0,0,.26-.81,6.7,6.7,0,0,0,.25-1.88,2.3,2.3,0,0,0-.25-1.44c-.1-.51-.47-.92-.52-1.45,0,0,0-.05,0-.08a6.09,6.09,0,0,1-.17-.61,4,4,0,0,0-.26-1A.8.8,0,0,1,26,31a.65.65,0,0,0-.11-.29,3.15,3.15,0,0,1-.4-.8,4.89,4.89,0,0,0-.23-.77,6.28,6.28,0,0,1-.44-1.08,2.46,2.46,0,0,0-.14-.38c-.12-.24-.19-.52-.48-.67-.24.06-.5.11-.76.19a.57.57,0,0,0-.27.16c-.31.32-.62.66-.93,1a1,1,0,0,0-.08.11,6.8,6.8,0,0,0-.8,1.86,4.16,4.16,0,0,0,.12,2.42,2.54,2.54,0,0,0,.66,1.07,3,3,0,0,1,.62.89,3.48,3.48,0,0,1-.12,2.86.87.87,0,0,1-.76.52,1.7,1.7,0,0,1-1.55-.69,9.16,9.16,0,0,1-.49-.81,2.46,2.46,0,0,1-.32-1.55c0-.27,0-.55.06-.82s.05-.68.05-1,0-.52,0-.77a2.7,2.7,0,0,1,0-.28,3.65,3.65,0,0,0-.43-1.51,15.91,15.91,0,0,0-1-1.58,8.61,8.61,0,0,1-.62-1.16,1.63,1.63,0,0,1-.14-1.15,2.64,2.64,0,0,0,.06-.63.39.39,0,0,0-.1-.33c-.17-.14-.15-.32-.17-.5s0-.24-.08-.33a3.11,3.11,0,0,0-.68,0,8.1,8.1,0,0,0-.89.34.68.68,0,0,0-.21.17.43.43,0,0,0,0,.7.71.71,0,0,1,.28.49.72.72,0,0,1-.07.57,10.59,10.59,0,0,0-.84,2.1c-.21.63-.37,1.28-.54,1.92-.06.24-.1.48-.14.72a6.34,6.34,0,0,0,.07,2.17,8.18,8.18,0,0,0,1.05,3c.26.42.5.86.76,1.29a11.31,11.31,0,0,0,1.16,1.67,4.6,4.6,0,0,1,.55.83c.21.37.42.73.6,1.12a2.72,2.72,0,0,1,0,2.72c-.07.11-.11.22-.17.32a2.43,2.43,0,0,1-.3.46,1.34,1.34,0,0,1-1.31.46,2.38,2.38,0,0,1-1.41-.84,1.93,1.93,0,0,1-.48-1.29,9.8,9.8,0,0,0,0-1.21c0-.5-.07-1-.06-1.49a13.93,13.93,0,0,0-.09-1.45c0-.16,0-.33,0-.5a1.91,1.91,0,0,0-.14-.74,4.22,4.22,0,0,1-.2-.6c-.11-.36-.19-.73-.32-1.09a2.9,2.9,0,0,0-.29-.51c0-.06-.1-.11-.14-.17A2.87,2.87,0,0,0,11.76,35a2.78,2.78,0,0,1-.83-.31c-.13-.09-.24,0-.29.11s-.15.4-.21.6a1.59,1.59,0,0,0,0,.37c.33.29.33.29.4.66.12.69.26,1.37.36,2.07A8.77,8.77,0,0,1,11,42c-.11.42-.17.87-.3,1.28a13.06,13.06,0,0,0-.48,2.3,5.83,5.83,0,0,0,0,1.32,7.81,7.81,0,0,0,.33,1.91,9.25,9.25,0,0,0,.82,1.91,3.18,3.18,0,0,0,.56.72,9.24,9.24,0,0,0,.84.68l1,.69a.57.57,0,0,1,.11.14.79.79,0,0,1-.5.12,6.89,6.89,0,0,1-1.75-.23,2,2,0,0,1-.26-.09A5.71,5.71,0,0,1,10,51.8a1.37,1.37,0,0,0-.65-.34c-.2.09-.33.19-.31.41a.44.44,0,0,1-.07.22,1.32,1.32,0,0,0,0,.81c.11.33.19.66.33,1a5.5,5.5,0,0,0,1.82,2.39,6.14,6.14,0,0,0,2,1c.72.2,1.44.38,2.13.63a2.82,2.82,0,0,0,1.11.26.26.26,0,0,1,.25.15c.08.15.21.14.33.16,0-.21.2-.33.25-.51s.14-.35.21-.52c-.2-.24-.2-.23-.4-.31-.39-.15-.78-.32-1.18-.46a11.65,11.65,0,0,0-1.92-.54,3.41,3.41,0,0,1-1.37-.58c-.15-.11-.28-.24-.42-.36a6.5,6.5,0,0,1-1.28-1.34,1.2,1.2,0,0,1-.19-.41c.31.11.57.23.84.31s.56.16.84.23A3.9,3.9,0,0,0,14,54a.38.38,0,0,0,.22-.06l.79-.73a.94.94,0,0,1,.25-.42,2.12,2.12,0,0,0,.14-.31l-.33-.4a.37.37,0,0,0-.26-.16,2.57,2.57,0,0,1-1.29-.82,4.92,4.92,0,0,1-1-1.3c-.26-.51-.49-1-.7-1.57a1.9,1.9,0,0,1-.15-.94c.07-.53.15-1.07.27-1.6a3.05,3.05,0,0,0,.07-.95,4.41,4.41,0,0,1,.29-1.68,4.32,4.32,0,0,1,.28-.67c0-.1,0-.24.2-.29a1.48,1.48,0,0,1,0,.19c0,.29,0,.57.06.85s.13.75.2,1.13a4.22,4.22,0,0,0,.93,2,3.18,3.18,0,0,0,1.62,1.05,2.38,2.38,0,0,0,.71.08,3.09,3.09,0,0,0,1.89-.79,5.29,5.29,0,0,0,1.3-1.73,2.87,2.87,0,0,0,.23-.64,2.41,2.41,0,0,0,0-1.07c-.07-.48-.17-1-.2-1.44a3.08,3.08,0,0,0-.26-1,11.65,11.65,0,0,0-.86-1.44c-.09-.15-.18-.31-.29-.46A16.7,16.7,0,0,1,17,37.15a2.4,2.4,0,0,0-.18-.26c-.06-.09-.11-.18-.16-.27-.12-.26-.25-.51-.36-.78a4,4,0,0,1-.35-1.35c0-.21,0-.42-.08-.63-.07-.43-.14-.87-.18-1.3a2.18,2.18,0,0,1,.21-1.28c.09-.17.17-.35.27-.52a2.43,2.43,0,0,1,.2-.35.51.51,0,0,0,.1-.34,2.11,2.11,0,0,1,0-.35,1,1,0,0,1,0-.34l.07,0,.25.38a6.93,6.93,0,0,1,1,2.7,2.49,2.49,0,0,1,0,.86c-.06.29-.12.59-.17.88a4.2,4.2,0,0,0,0,1.54A6,6,0,0,0,19,38.4a3,3,0,0,0,1.58,1A2.49,2.49,0,0,0,22.73,39l.22-.16a1.64,1.64,0,0,0,.73-1.1,10,10,0,0,1,.25-1.05,4.59,4.59,0,0,0,.24-1.56,1,1,0,0,0-.06-.35,3.05,3.05,0,0,1-.24-.87,4.24,4.24,0,0,0-.41-1.06,3.45,3.45,0,0,1-.25-.63,8.54,8.54,0,0,0-.44-1.13,2.4,2.4,0,0,1-.2-.82A1.92,1.92,0,0,1,23,28.93a.49.49,0,0,1,.38-.24c.06.13.12.27.19.41.14.3.26.61.41.9.25.51.52,1,.78,1.49a3.29,3.29,0,0,1,.29.85l.24,1.07a6.59,6.59,0,0,1,.15,2.17,10.12,10.12,0,0,1-.31,2,5.25,5.25,0,0,0-.18.65,8.39,8.39,0,0,1-.5,1.46c-.14.33-.28.66-.41,1-.06.14-.11.29-.17.43a9.27,9.27,0,0,0-.66,2.9,5.52,5.52,0,0,0,0,.91A6.14,6.14,0,0,0,24,47.23a3.81,3.81,0,0,0,.83,1,2.48,2.48,0,0,0,1.42.67A1.63,1.63,0,0,0,28,48.35l.16-.17a1.74,1.74,0,0,0,.34-.68,3,3,0,0,0,.06-1.07,1.45,1.45,0,0,1,0-.51l.08.1c.23.57.44,1.16.7,1.72A5.33,5.33,0,0,1,29.68,49a.45.45,0,0,1,0,.36,4.76,4.76,0,0,1-.6.73,8.33,8.33,0,0,0-1.54,1.6,4.43,4.43,0,0,1-.87.86,6.05,6.05,0,0,0-.78.74.61.61,0,0,0-.17.74.81.81,0,0,1,0,.27l.29.12c.11-.06.23-.07.29-.19-.3-.24-.3-.24-.34-.54.33-.3.63-.15.93.06,0,.1,0,.2,0,.31a.43.43,0,0,0,.41-.2.94.94,0,0,1,.49-.31.78.78,0,0,0,.37-.16c.16-.19.37-.31.53-.47a4.8,4.8,0,0,1,.7-.51,3.88,3.88,0,0,0,.33-.23.8.8,0,0,1,.61-.23l.42-.48a1.8,1.8,0,0,0,.59-1c0-.07.07-.13.1-.2a1.5,1.5,0,0,0,.12-.93A5.36,5.36,0,0,1,31.35,48.49Zm-18.76-9.8c0-.26-.07-.43-.1-.59A.78.78,0,0,1,12.59,38.69Z" transform="translate(-0.98 -2.35)" style="fill-rule:evenodd"/><path d="M27.5,66.54a.63.63,0,0,0-.75-.12,1.29,1.29,0,0,1-.44.11,17.47,17.47,0,0,0-2.49.52,1.28,1.28,0,0,1-.75,0L22.82,67a3.35,3.35,0,0,1-1.07.38.8.8,0,0,0-.26.09.43.43,0,0,0-.28.33.91.91,0,0,0,0,.49c.1.46.22.91.32,1.37a8.65,8.65,0,0,0,.29,1.14c.26.74.5,1.49.73,2.23.13.41.22.82.33,1.22,0,.08.05.15.07.22.15.49.33,1,.46,1.47a22.58,22.58,0,0,0,.72,2.2c.21.57.4,1.16.63,1.74.11.31.26.61.4.91a1.88,1.88,0,0,0,.27.36.51.51,0,0,0,.53.17,5.17,5.17,0,0,0,.84-.28c0-.12.06-.22.09-.3a2.43,2.43,0,0,1,.28-.1.27.27,0,0,0,.2-.28,13.88,13.88,0,0,1,.07-1.44,2,2,0,0,1,.13-.94.31.31,0,0,0,0-.17c-.06-.53-.12-1-.17-1.58-.08-.74-.16-1.48-.22-2.22s-.08-1.23-.1-1.85a6.92,6.92,0,0,1,0-.91c.06-.55.06-1.11.16-1.66s.17-1,.24-1.44a1.71,1.71,0,0,1,.38-1s0-.08.05-.14A5.23,5.23,0,0,0,27.5,66.54Z" transform="translate(-0.98 -2.35)" style="fill-rule:evenodd"/><path d="M29.49,63.5a.87.87,0,0,1-.47-.9c0-.19.05-.38.07-.58a.3.3,0,0,0,0-.21,2.32,2.32,0,0,0-.39-.54,5.21,5.21,0,0,0-.72-.46.77.77,0,0,0-.43-.12c-.35,0-.72,0-1.08.09-1,.17-2.09.36-3.13.55-.74.14-1.48.31-2.22.46a12.06,12.06,0,0,0-1.49.39,6.77,6.77,0,0,1-.89.21,4.07,4.07,0,0,1-.49,0,1,1,0,0,0-.63.34.46.46,0,0,0,.1.74,5.22,5.22,0,0,0,.54.24l.21.13-.29.45a1.79,1.79,0,0,1,0,.23.71.71,0,0,0,.56.69l.26.08c.2,0,.4.11.61.15.43.09.86.18,1.29.25l1.17.16a7.07,7.07,0,0,0,2.34,0c.43-.08.86-.12,1.3-.19a12.61,12.61,0,0,0,1.62-.22l1-.25a4.09,4.09,0,0,0,1.05-.41.45.45,0,0,0,.25-.52Z" transform="translate(-0.98 -2.35)" style="fill-rule:evenodd"/><path d="M15.36,61l1.37,0a11.93,11.93,0,0,1,2.07-.12.65.65,0,0,0,.19,0l2.38-.32c.33-.05.66-.07,1-.11l1.22-.16.41,0c.18,0,.36,0,.54,0a8.59,8.59,0,0,0,1.73-.36l.22-.05a7.29,7.29,0,0,0,1.89-.59.69.69,0,0,0,.46-.82,2.52,2.52,0,0,0-.49-.43,4.51,4.51,0,0,0-1.48-.57.92.92,0,0,1-.26-.07.88.88,0,0,0-.62,0,5.27,5.27,0,0,1-.6.2l-2.31.5c-.23.06-.46.14-.7.18-.68.15-1.37.24-2,.44l-.87.26-2.16.7c-.48.15-.94.33-1.43.45a1.3,1.3,0,0,0-.77.43l-.16.14v.15c.05.23.08.26.29.28Z" transform="translate(-0.98 -2.35)" style="fill-rule:evenodd"/><path d="M26.64,32.59s0,0,0,0,0,0,0,.06l0,0Z" transform="translate(-0.98 -2.35)" style="fill-rule:evenodd"/><path d="M27.26,34.53a.1.1,0,0,1,0,0l0,0Z" transform="translate(-0.98 -2.35)" style="fill-rule:evenodd"/><path d="M19.66,35.28l.05,0,0,0h0Z" transform="translate(-0.98 -2.35)" style="fill-rule:evenodd"/><polygon points="65.08 68.69 65.06 68.68 65.06 68.7 65.08 68.69" style="fill-rule:evenodd"/><polygon points="68.14 64.37 68.14 64.38 68.16 64.37 68.14 64.37" style="fill-rule:evenodd"/><path d="M60.26,68.35h0s0,0,0,0Z" transform="translate(-0.98 -2.35)" style="fill-rule:evenodd"/><path d="M60.22,68.3h0l0,0h0Z" transform="translate(-0.98 -2.35)" style="fill-rule:evenodd"/><path d="M72.12,67.52a.3.3,0,0,1-.05-.33.43.43,0,0,0,0-.27,2.05,2.05,0,0,0-.2-.39s-.06-.06-.09-.09l-.17.08-.19,0,.18.18a2.38,2.38,0,0,1-.18,1.14A5.88,5.88,0,0,1,70.73,69c-.12.15-.24.3-.34.45a3.44,3.44,0,0,1-.66.71,3.76,3.76,0,0,0-.65.61,5.3,5.3,0,0,1-.79.78A8,8,0,0,0,67,72.81c-.16.17-.32.33-.46.51a5.36,5.36,0,0,0-1,2.09c-.08.35-.14.71-.19,1.07a.79.79,0,0,1-.13.4,1.51,1.51,0,0,0-.12.26,2.5,2.5,0,0,1-.39.57.6.6,0,0,1-.25.19,4,4,0,0,0-1.07.64,3.39,3.39,0,0,0-.82.91,7,7,0,0,0-.5,1.07,3.93,3.93,0,0,1-.38.77,1.23,1.23,0,0,1-.83.55,1.54,1.54,0,0,1-.37,0,2.11,2.11,0,0,1-.86-.19c-.16-.07-.31-.15-.46-.23a.32.32,0,0,1-.1-.1c-.21-.23-.42-.47-.62-.71a2.2,2.2,0,0,1-.23-.4,5.27,5.27,0,0,0-.22-.49c-.08-.21-.2-.42-.26-.63s-.09-.34-.15-.5-.2-.51-.3-.77a5.1,5.1,0,0,0-.49-1.06,2.44,2.44,0,0,1-.25-.48c-.06-.15-.13-.3-.2-.44a12.34,12.34,0,0,0-.73-1.1,2.33,2.33,0,0,0-.17-.26c-.37-.4-.77-.76-1.18-1.13a7.72,7.72,0,0,0-1.51-1c-.34-.19-.7-.38-1-.6a3.14,3.14,0,0,0-.39-.24,1.4,1.4,0,0,1-.24-.15,9.21,9.21,0,0,0-.76-.61c-.49-.32-.91-.74-1.38-1.09a.71.71,0,0,1-.12-.13l-.3-.38s0,0-.06-.06c-.19,0-.28-.23-.41-.35s-.06-.13-.1-.19a.67.67,0,0,1,.54-.36,1.14,1.14,0,0,1,.45.06,5.84,5.84,0,0,0,.93.27.62.62,0,0,1,.24.1,4.53,4.53,0,0,1,.78.67,6.91,6.91,0,0,0,.77.76L53,71.2a9.35,9.35,0,0,0,1.59,1.13,3.3,3.3,0,0,0,1,.38.44.44,0,0,0,.43-.16l.17-.22a.64.64,0,0,0,.16-.59l0-.19a1.71,1.71,0,0,0-.23-.91,5.41,5.41,0,0,0-.45-.72,2.86,2.86,0,0,1-.22-.3,3.92,3.92,0,0,0-.44-.7,5.23,5.23,0,0,1-.39-.57,6.43,6.43,0,0,0-.69-.87c-.11-.13-.24-.26-.37-.39a.18.18,0,0,0-.12-.08c-.12,0-.18-.09-.25-.16a2.91,2.91,0,0,0-.43-.43,5.27,5.27,0,0,1-.58-.48,6.89,6.89,0,0,1-.56-.52,3.8,3.8,0,0,1-.46-.53l-.1-.12a2.32,2.32,0,0,1-.39-.62,4,4,0,0,0-.2-.42.68.68,0,0,1-.1-.44c0-.19.08-.39.13-.58a.7.7,0,0,1,.47-.46,1.51,1.51,0,0,1,1.49.21,5.9,5.9,0,0,1,.8.7,8.55,8.55,0,0,1,1,1.24c.21.32.41.65.61,1l.3.56c.06.11.09.25.23.31s0,.06.06.1c.14.27.27.54.41.82.21.46.42.92.64,1.37a3.52,3.52,0,0,0,.28.46c.08.1.18.18.25.28a1.34,1.34,0,0,0,.6.43h0l0,0,0,0a.37.37,0,0,0,.32-.06,1,1,0,0,0,.36-.39,1.41,1.41,0,0,0,.12-.5c0-.09,0-.21,0-.28a.5.5,0,0,0,0-.46c0-.14,0-.28-.07-.42a.32.32,0,0,0,0-.14.9.9,0,0,1-.08-.36,1.07,1.07,0,0,0-.14-.46.47.47,0,0,1,0-.16,1.17,1.17,0,0,0,0-.2c-.11-.28-.22-.57-.34-.85a.32.32,0,0,0-.13-.18.32.32,0,0,1-.13-.15,5.3,5.3,0,0,0-.43-.9s0,0,0-.05a1.11,1.11,0,0,0-.14-.41,1.71,1.71,0,0,1-.09-.3,2.3,2.3,0,0,0-.31-.8c-.08-.15-.15-.3-.22-.46s-.13-.38-.2-.56a2.88,2.88,0,0,1-.15-.5.77.77,0,0,0-.12-.35.65.65,0,0,1-.11-.43,3.71,3.71,0,0,1,.06-.45.61.61,0,0,1,.26-.42,2.1,2.1,0,0,1,.3-.22.75.75,0,0,1,.68-.1,1.1,1.1,0,0,1,.69.57,10.36,10.36,0,0,1,.8,1.72c.21.5.37,1,.54,1.54a2.72,2.72,0,0,1,.13.49c0,.23.05.46.08.68s0,.31.13.43a.3.3,0,0,1,0,.14V65c0,.39,0,.78,0,1.17a4.2,4.2,0,0,0,.42,1.74,2.2,2.2,0,0,0,.3.43h0v0l0,0,.29.11a.31.31,0,0,0,.19,0,1.09,1.09,0,0,0,.53-.51c.06-.13.13-.27.18-.41a.13.13,0,0,0,0-.11.36.36,0,0,1,.06-.32,1.52,1.52,0,0,0,.22-.67,7.57,7.57,0,0,0,.2-1.25,1.32,1.32,0,0,0,0-.56,1,1,0,0,1,0-.17,1.79,1.79,0,0,0,0-.23,3.84,3.84,0,0,0,0-.48c0-.11,0-.23-.05-.33a3.62,3.62,0,0,1,0-.57,1.3,1.3,0,0,0,0-.68A.29.29,0,0,1,62,62a.33.33,0,0,0,0-.14l0-.45a2.48,2.48,0,0,1,.26-.93.62.62,0,0,1,.53-.38.57.57,0,0,1,.69.41,3.71,3.71,0,0,1,.21,1.15,8,8,0,0,1,0,.85c0,.07,0,.16,0,.2s0,.18,0,.27c0,.34-.1.68-.16,1a25.82,25.82,0,0,0-.46,2.63c0,.4-.06.81,0,1.23a8.6,8.6,0,0,0,.22,1.41,1.7,1.7,0,0,0,.17.54,1.79,1.79,0,0,1,.2.59l.56.65a.25.25,0,0,1,0,.07.5.5,0,0,1,.37.12.51.51,0,0,0,.54.08,4.93,4.93,0,0,0,.53-.22.36.36,0,0,0,.16-.11,1.91,1.91,0,0,1,.38-.31.87.87,0,0,0,.15-.13c.33-.36.65-.74,1-1.12s.61-.8.91-1.19a1.5,1.5,0,0,0,.11-.13,3.91,3.91,0,0,0,.36-.47.78.78,0,0,1,.38-.38.28.28,0,0,0,.13-.11s.06-.12.1-.17a.77.77,0,0,1,.16-.15l-.06,0a1.3,1.3,0,0,1-.35.11.58.58,0,0,0-.33.14,6,6,0,0,0-.56.57q-.6.77-1.23,1.5a8,8,0,0,1-1,1,1.94,1.94,0,0,1-.62.36,1,1,0,0,1-1.11-.31,1.65,1.65,0,0,1-.31-.93.74.74,0,0,0,0-.26c0-.22-.08-.43-.11-.65a.41.41,0,0,1,0-.11c0-.12,0-.25,0-.37a.33.33,0,0,0,0-.17.66.66,0,0,1,0-.55.29.29,0,0,0,0-.24.24.24,0,0,1,.07-.26.09.09,0,0,0,.05-.12.21.21,0,0,1,0-.19.27.27,0,0,0,0-.3.31.31,0,0,1,0-.25,2.43,2.43,0,0,1,.2-.35.72.72,0,0,0,.24-.5.35.35,0,0,1,.05-.13.53.53,0,0,0,.08-.25,2.48,2.48,0,0,0,0-.27c0-.09.08-.15,0-.25s.06-.17.07-.26,0,0,0-.06a.24.24,0,0,1,0-.24.21.21,0,0,0,0-.11c-.07-.14,0-.27,0-.39a.36.36,0,0,0,0-.25.32.32,0,0,1,0-.35.27.27,0,0,1-.17-.22,2.53,2.53,0,0,0-.14-.59.51.51,0,0,1,0-.25,3.31,3.31,0,0,1,0-.45h-.26a.27.27,0,0,1,0-.26.33.33,0,0,0-.09-.34A.62.62,0,0,1,64,60c-.09-.13-.17-.26-.26-.38a.73.73,0,0,0-.46-.32,1,1,0,0,0-.48,0,1.29,1.29,0,0,0-.59.33l-.07,0h0l-.11.08h0a1.83,1.83,0,0,0-.18.3,5.53,5.53,0,0,0-.42,1.75l-.09,1.45a.61.61,0,0,0,0,.44s0,.06,0,.08l0,1.12a4.82,4.82,0,0,1-.08,1,2.58,2.58,0,0,1-.06.37,5.54,5.54,0,0,1-.14.55,1.26,1.26,0,0,1-.22.47c-.1.1-.19.24-.37.24l-.09-.07c-.18-.1-.19-.13-.14-.31a.65.65,0,0,0,0-.2,3.68,3.68,0,0,0-.06-.56,1.88,1.88,0,0,1,.05-.67c0-.13.1-.27.08-.39a.66.66,0,0,1,.09-.37.27.27,0,0,0,0-.09,1.62,1.62,0,0,1,0-.22.76.76,0,0,0,0-.26,2.13,2.13,0,0,1,0-.25s0-.09,0-.11-.06-.18-.08-.27a.76.76,0,0,1,0-.3.71.71,0,0,0-.05-.38,2.37,2.37,0,0,1-.09-.36,2.1,2.1,0,0,0-.27-.72,1.54,1.54,0,0,1-.17-.42,1.14,1.14,0,0,0-.13-.38,1.31,1.31,0,0,1-.15-.53.44.44,0,0,1-.21-.46.5.5,0,0,1-.23-.44.39.39,0,0,0-.06-.19,1,1,0,0,1-.23-.39.6.6,0,0,0-.23-.29.63.63,0,0,1-.32-.26.34.34,0,0,0-.12-.09l-.83-.39a.77.77,0,0,0-.56,0,3.57,3.57,0,0,0-.45.19.87.87,0,0,0-.37.29h0l.07,0h0l-.07,0h0c0,.06-.11.12-.16.19a1.92,1.92,0,0,0-.37.61,3.64,3.64,0,0,0-.17.93,4.62,4.62,0,0,0,.16,1.33A6.08,6.08,0,0,0,55.81,63a6,6,0,0,0,.37.71A13,13,0,0,1,57,65.24a.31.31,0,0,0,.16.19.32.32,0,0,1,.17.19A12.6,12.6,0,0,1,58,67.35a5.28,5.28,0,0,1,.18.88.64.64,0,0,1-.12.45c-.24.28-.5.3-.73,0a3.06,3.06,0,0,1-.33-.47.14.14,0,0,1,0-.2s0,0,.06-.07L57,67.69a1.63,1.63,0,0,0-.31-.58.26.26,0,0,1-.06-.13c-.08-.24-.15-.49-.23-.73s-.1-.35-.29-.43c0,0,0-.08-.07-.12a2.75,2.75,0,0,1-.2-.5l-.6-1c-.08-.15-.16-.3-.25-.45a1,1,0,0,0-.39-.45c-.05,0-.09-.09-.13-.14s-.07-.13-.11-.2-.1-.14-.21-.11-.06,0-.08,0a1.86,1.86,0,0,1-.29-.27,4.25,4.25,0,0,0-.84-.74,4.16,4.16,0,0,0-1-.45,2.06,2.06,0,0,0-.82,0,1.45,1.45,0,0,0-.71.3,2.46,2.46,0,0,0-.56.64,2,2,0,0,0-.21,1.17,4.63,4.63,0,0,0,.24,1.09A4,4,0,0,0,50.77,66c.44.47.91.9,1.38,1.33a.38.38,0,0,0,.16.11.5.5,0,0,1,.32.24,4.52,4.52,0,0,0,.61.63l.52.45a7.88,7.88,0,0,1,1.48,1.78c.15.23.28.47.42.72a.78.78,0,0,1,.13.38.3.3,0,0,1-.28,0c-.28-.16-.56-.33-.83-.51s-.56-.4-.83-.61l-.69-.56c-.19-.17-.41-.33-.61-.5a7.16,7.16,0,0,1-1.06-.91,3.4,3.4,0,0,0-.47-.38.33.33,0,0,0-.15,0L50.62,68c-.13,0-.26-.11-.4-.16a3.18,3.18,0,0,0-1.88-.14.6.6,0,0,0-.43.31,2.9,2.9,0,0,1-.19.29.68.68,0,0,0-.08.57c0,.07,0,.14.07.22a.45.45,0,0,0,.18.25.37.37,0,0,1,.13.17,2.81,2.81,0,0,0,.63.85,9.22,9.22,0,0,0,1.26,1.08c.28.21.55.41.82.63a10.41,10.41,0,0,0,1.42,1A10.54,10.54,0,0,1,54,74.32a6.31,6.31,0,0,1,1.51,2c.11.22.19.45.31.67a13.37,13.37,0,0,1,.54,1.45,4.27,4.27,0,0,1,.18.61,8.05,8.05,0,0,0,.57,1.65,6.64,6.64,0,0,0,.71,1.2,3.11,3.11,0,0,0,1.55,1,3.46,3.46,0,0,0,1.11.14,1.85,1.85,0,0,0,.69-.14,2.64,2.64,0,0,0,1.07-.83,2,2,0,0,1,.49-.47,1,1,0,0,0,.31-.32.54.54,0,0,1,.14-.18,2.19,2.19,0,0,0,.5-.46.87.87,0,0,1,.15-.13c.17-.1.33-.18.51-.27.44-.24.9-.47,1.34-.7A4.69,4.69,0,0,0,66.6,79s.07-.11.11-.17a.91.91,0,0,1,.08-.18.83.83,0,0,0,.1-.38,1.47,1.47,0,0,1,0-.42A3.53,3.53,0,0,0,67,76.9a8.34,8.34,0,0,1,0-1,2.11,2.11,0,0,1,.17-.75c.09-.19.19-.38.29-.57.28-.44.56-.88.83-1.34s.61-.73.87-1.13c0,0,0,0,0,0l.52-.49c.16-.16.32-.32.5-.47s.29-.25.42-.39a1.74,1.74,0,0,0,.5-.64.62.62,0,0,1,.15-.21,1.51,1.51,0,0,0,.2-.34c0-.08.06-.16.1-.24s.12-.24.17-.36l.29-.63a.26.26,0,0,0,0-.29.25.25,0,0,1,0-.38S72.1,67.57,72.12,67.52Zm-8.09-3c0,.11,0,.11-.07.42C63.86,64.76,63.87,64.7,64,64.47Zm-1.91-4.71a.09.09,0,0,1-.08.05Z" transform="translate(-0.98 -2.35)" style="fill-rule:evenodd"/><polygon points="73.04 44.11 73.04 44.11 73.04 44.11 73.04 44.11" style="fill-rule:evenodd"/><path d="M87.12,47.13c-.16.1-.2.1-.3,0a.61.61,0,0,1-.13-.15.46.46,0,0,0-.48-.22H85.8l-.15,0-.37.17a4.58,4.58,0,0,0-1.44,1.4l-.4.47c-.07.08-.15.16-.22.25-.2.26-.4.53-.62.78a8.1,8.1,0,0,0-.77,1.05,1,1,0,0,1-.44.41.47.47,0,0,1-.17,0,.3.3,0,0,1-.3-.21,3,3,0,0,1,.49-1.27c.13-.19.28-.37.42-.55h0v0h0a.11.11,0,0,1,0-.12h0a.52.52,0,0,1,.1-.27.43.43,0,0,0,.11-.21.52.52,0,0,1,.22-.32.43.43,0,0,0,.18-.36,2.65,2.65,0,0,1,.1-.55,1,1,0,0,1,.15-.38.59.59,0,0,0,.14-.37.66.66,0,0,1,.11-.36,5.25,5.25,0,0,0,.31-.63,1.71,1.71,0,0,0,.18-.77.24.24,0,0,1,0-.08c.07-.12.12-.25.2-.36a.81.81,0,0,0,.16-.58.89.89,0,0,1,.11-.51,2,2,0,0,0,.1-.21A.49.49,0,0,0,84,43a2.12,2.12,0,0,1,.07-.61c0-.26.08-.52.1-.78a4.18,4.18,0,0,0-.08-1c0-.09,0-.19-.08-.29a.28.28,0,0,0-.18-.17.45.45,0,0,1-.33-.31.33.33,0,0,0-.34-.23.36.36,0,0,1-.27-.08.3.3,0,0,0-.34,0,.29.29,0,0,1-.3.08c-.27-.08-.45.12-.66.24a5,5,0,0,0-.63.92c-.27.59-.55,1.17-.81,1.77a9.1,9.1,0,0,0-.5,1.35c0,.14-.09.28-.13.42l-.25.82a5.76,5.76,0,0,1-.18.59c-.25.62-.45,1.26-.74,1.86l-.17.31a.84.84,0,0,1-.57.38.36.36,0,0,1-.23,0,.52.52,0,0,1-.34-.47,2.52,2.52,0,0,1,.06-.73,1.56,1.56,0,0,0,0-.61,3.75,3.75,0,0,1,.09-.82l0,0h0v0s0,0,0,0h0a.21.21,0,0,0,0-.23.18.18,0,0,1,0-.21h0a.86.86,0,0,0,.13-.23,1.18,1.18,0,0,0,0-.26,1.3,1.3,0,0,0,.39-.83c0-.1,0-.2.06-.3a1.11,1.11,0,0,0,.07-.26.37.37,0,0,1,.18-.36.14.14,0,0,0,.08-.13.76.76,0,0,1,.13-.44c-.13-.06-.15-.07-.15-.15a1.36,1.36,0,0,1,0-.21,1.9,1.9,0,0,0,.14-.57,6.39,6.39,0,0,0,.09-.75c0-.25,0-.51,0-.76s0-.22,0-.32a4.81,4.81,0,0,0,0-.85c0-.2,0-.39,0-.59a3.68,3.68,0,0,0-.19-.92,8.09,8.09,0,0,0-.48-1,.66.66,0,0,0-.14-.15.64.64,0,0,1-.27-.35.23.23,0,0,1-.35,0c-.1-.09-.25-.14-.26-.29s-.06-.06-.09-.07v0s0,0,0,0h0a.52.52,0,0,1,0,.11,1,1,0,0,1-.42-.14h0c-.06,0-.13,0-.18,0a.2.2,0,0,0-.21,0,.36.36,0,0,1-.18,0,1.6,1.6,0,0,0-.9.24.39.39,0,0,1-.16.07,2.38,2.38,0,0,0-1,.81,2.83,2.83,0,0,0-.58,1,5.16,5.16,0,0,0-.27,1.56c0,.47,0,.94,0,1.41a5.86,5.86,0,0,0,0,.59c0,.41.06.82.08,1.23s.06,1,.11,1.5.09.82.12,1.23c0,.26,0,.53.06.79a3.24,3.24,0,0,1,0,.88c-.06.36-.12.72-.19,1.07a.62.62,0,0,1-.44.47.28.28,0,0,1-.2,0,.66.66,0,0,1-.41-.32,1.35,1.35,0,0,1-.19-.33c0-.12-.18-.21-.14-.36a.13.13,0,0,0-.07-.08c-.07,0-.07-.09-.07-.15a.26.26,0,0,1,0-.11.72.72,0,0,0-.07-.48A3,3,0,0,1,71.1,46c-.06-.21-.11-.42-.17-.63s-.08-.22,0-.34,0-.09,0-.14-.09-.32-.14-.48a.7.7,0,0,1-.06-.19c0-.32,0-.63,0-.94a.5.5,0,0,1,.06-.17,1,1,0,0,1-.09-.16,1.4,1.4,0,0,1-.15-1l-.17-.3a.87.87,0,0,1-.13-.44,1.8,1.8,0,0,0-.18-.65c-.17-.32-.34-.64-.53-.94-.08-.13-.18-.24-.35-.21a.27.27,0,0,1-.23-.09h0s0,0-.07,0a2,2,0,0,0-.93.15,1.81,1.81,0,0,0-.73.52,2.47,2.47,0,0,0-.45.92,8.21,8.21,0,0,0-.25,1.78c0,.31,0,.63,0,.94a5.89,5.89,0,0,0,.09,1c.1.6.26,1.21.4,1.81,0,.2.1.4.15.6s.09.35.15.51.18.5.27.75a2.56,2.56,0,0,0,.11.24c0,.13.12.25.17.38a9.76,9.76,0,0,0,.78,1.59,3.31,3.31,0,0,1,.52,1.27c0,.13.06.26.08.4a3.46,3.46,0,0,1,.07.91,2.3,2.3,0,0,1-.17.81.71.71,0,0,1-.45.43,1,1,0,0,1-.5,0,1.52,1.52,0,0,1-.86-.32c-.21-.17-.39-.35-.59-.53A2.69,2.69,0,0,0,66,53a.84.84,0,0,1-.18-.15,2.09,2.09,0,0,0-.53-.41c-.13-.07-.26-.14-.38-.22a2.28,2.28,0,0,1-.53-.37c-.22-.06-.39-.24-.62-.26a.33.33,0,0,1-.13-.07.45.45,0,0,0-.36-.12.65.65,0,0,1-.13,0L62.08,51a4.57,4.57,0,0,0-1.42-.21,6.66,6.66,0,0,0-.77,0,.25.25,0,0,1-.17,0,.52.52,0,0,0-.47.09l-.4.26a2.26,2.26,0,0,0-.66.78,2,2,0,0,0-.2.53,2,2,0,0,0,.64,1.86,4.33,4.33,0,0,0,1.29.77,10.65,10.65,0,0,0,1.66.52,4.6,4.6,0,0,1,1.46.62l.67.48a3.42,3.42,0,0,1,.86.92,7.65,7.65,0,0,1,.5.88l.38.86a1.32,1.32,0,0,1,0,.23c0,.19.07.38.11.58a5.72,5.72,0,0,1,.19.74,8.79,8.79,0,0,0,.19.89,6,6,0,0,0,.36,1,4.08,4.08,0,0,0,.94,1.28,1.9,1.9,0,0,0,1.71.49,1.65,1.65,0,0,1,.38,0l1,.08a8.93,8.93,0,0,1,1.45.23L72,65a7,7,0,0,1,1.28.72,4.59,4.59,0,0,0,.61.35,2.52,2.52,0,0,0,.76.25,3.07,3.07,0,0,0,1,0H76a2.79,2.79,0,0,0,.76-.11c.34-.11.69-.23,1-.37a2.14,2.14,0,0,0,.91-.64,2.44,2.44,0,0,0,.5-.81c.08-.27.22-.5.32-.76a1,1,0,0,0,.15-.58s0,0,0-.07a1.54,1.54,0,0,0,.08-.19c.1-.25.18-.51.27-.77s.13-.38.19-.56,0-.17,0-.23a1.79,1.79,0,0,0,.22-.81.58.58,0,0,1,0-.14l.21-.71a2.65,2.65,0,0,1,.35-.81.92.92,0,0,0,.2-.54.3.3,0,0,1,.09-.24c.15-.14.17-.35.28-.52s.22-.4.37-.58h0a1.39,1.39,0,0,1,.41-.66s.06-.1.09-.15a1.58,1.58,0,0,1,.43-.65.81.81,0,0,0,.25-.35.4.4,0,0,1,.19-.25.43.43,0,0,0,.25-.36c0-.09,0-.1.17-.09s.16-.19.11-.34,0-.11,0-.16l.17-.25a.64.64,0,0,1,.28-.26l.24-.11c0-.09,0-.2.13-.25s0-.08.08-.12a1.49,1.49,0,0,1,.23-.27,2.67,2.67,0,0,0,.38-.44,1.15,1.15,0,0,1,.31-.38h0s0-.08,0-.1a.57.57,0,0,0,.23-.39s.06-.1.09-.14h0l.11-.08v0h0l-.09.07a1.46,1.46,0,0,1,0-.2h0a.64.64,0,0,0,.3-.29c0-.1.11-.17.1-.29a.35.35,0,0,1,.06-.17,1.81,1.81,0,0,0,.18-.4c0-.11.13-.19.16-.3s0-.23,0-.35c.06-.32.12-.65.19-1A1.93,1.93,0,0,0,87.12,47.13ZM73.9,40.58a.09.09,0,0,1,.07,0s0,0,0,0h-.08A.45.45,0,0,1,73.9,40.58Zm-.53-2.25s0,0,0,0l0,.06s0,0,0,0Zm-.08,1a.09.09,0,0,1,0,0,.05.05,0,0,1,0,0l-.05,0Zm0,.7a0,0,0,0,1,0,0l0,0,0,0Zm-.06.54v0a1.39,1.39,0,0,1-.06-.19.39.39,0,0,1,.06-.14c.1.13,0,.23,0,.33v0a2,2,0,0,1,.08.22l.26-.09c.05,0,.1.06.08.09a.67.67,0,0,1-.14.19c-.09.09-.19.16-.3.25a.07.07,0,0,1-.08-.08,1.15,1.15,0,0,1,.1-.58Zm13.41,8.1c-.09.24-.14.49-.22.73a1.65,1.65,0,0,1-.18.41c-.24.43-.5.86-.76,1.29s-.37.6-.56.9a.5.5,0,0,1-.1.14c-.32.34-.61.69-.95,1a4.45,4.45,0,0,0-.71.85,4.69,4.69,0,0,1-.62.79,5.63,5.63,0,0,0-.71,1L81,57.47c-.19.38-.37.76-.55,1.14-.08.17-.15.35-.22.52a11.94,11.94,0,0,1-.56,1.27,1.93,1.93,0,0,1-.31.49,11.56,11.56,0,0,0-.69,1c-.09.13-.16.27-.24.41s-.29.44-.42.68a5.12,5.12,0,0,1-.63.84.7.7,0,0,1-.19.15,2.57,2.57,0,0,0-.66.52.64.64,0,0,1-.32.2,3.31,3.31,0,0,1-1.29.13,1.75,1.75,0,0,1-.53-.18l-1-.58a.37.37,0,0,1-.18-.14.68.68,0,0,0-.35-.21,10.27,10.27,0,0,0-1.45-.37,4.45,4.45,0,0,1-1.28-.46,4.9,4.9,0,0,1-1-.75c-.16-.17-.31-.36-.45-.54s-.37-.49-.55-.73a1.3,1.3,0,0,1-.14-.26,5.9,5.9,0,0,1-.29-.93,3.55,3.55,0,0,0-.22-.7c-.17-.43-.33-.86-.52-1.28a3.38,3.38,0,0,0-.73-1.13,1.47,1.47,0,0,1-.31-.35s0-.05-.09-.07c-.31-.21-.63-.4-.93-.62a5,5,0,0,0-.76-.4l-.11,0a3.47,3.47,0,0,0-1.14-.37c-.44-.1-.89-.17-1.33-.26a7,7,0,0,1-2.09-.76.58.58,0,0,1-.28-.3A2.58,2.58,0,0,1,59,53a.53.53,0,0,1,0-.35,1.46,1.46,0,0,1,.35-.5,3.31,3.31,0,0,1,.61-.45l0,0a.58.58,0,0,1,.64-.1c.32.11.67.18,1,.32l1.13.43A6.75,6.75,0,0,1,64,53a4.5,4.5,0,0,0,.41.25,5.79,5.79,0,0,1,1.41,1.2,2.43,2.43,0,0,0,.63.52.59.59,0,0,1,.27.27c.28.05.55.11.83.15a1.56,1.56,0,0,0,1.5-.57l.08-.09A1.78,1.78,0,0,0,69.6,54a4.06,4.06,0,0,0,.21-.85c0-.14.09-.26.09-.4a1.68,1.68,0,0,0,0-.5.22.22,0,0,1,0-.14,1.43,1.43,0,0,0-.05-.82.6.6,0,0,1-.06-.19A2.28,2.28,0,0,0,69.37,50a.69.69,0,0,1-.05-.13,8.57,8.57,0,0,0-.52-1.16,3.27,3.27,0,0,1-.33-1,.72.72,0,0,0-.07-.25,2.33,2.33,0,0,1-.16-.63,2.42,2.42,0,0,0-.1-.45,1,1,0,0,1-.07-.41,1.68,1.68,0,0,0-.07-.43,1.16,1.16,0,0,1-.07-.42,1.4,1.4,0,0,0-.1-.45.94.94,0,0,1-.08-.47,1,1,0,0,0,0-.37,2.46,2.46,0,0,1-.09-.87.59.59,0,0,0,0-.23,1.06,1.06,0,0,1,0-.61.39.39,0,0,0,0-.26.34.34,0,0,1,0-.28,1.39,1.39,0,0,0,0-.41c0-.14.13-.22.12-.37l-.06,0a.1.1,0,0,1,0-.14.29.29,0,0,1,.18-.19.4.4,0,0,0,.25-.19.43.43,0,0,1,.26-.17,2.33,2.33,0,0,1,.25-.07.41.41,0,0,1,.46.19,2.88,2.88,0,0,1,.28.62c.08.33.16.65.21,1,.08.56.17,1.13.24,1.69,0,.39.06.78.1,1.17s.1.9.16,1.35a8.41,8.41,0,0,0,.26,1.21.15.15,0,0,0,0,.09,3.62,3.62,0,0,0,.74,1.29,4.6,4.6,0,0,0,.52.47,1.23,1.23,0,0,0,.74.19.79.79,0,0,0,.34-.15,2.6,2.6,0,0,0,.32-.26l.19-.19a1.28,1.28,0,0,0,.42-.62,1,1,0,0,0,.09-.31.61.61,0,0,0,0-.23c-.08-.22,0-.31.21-.36l.07,0a.86.86,0,0,0,0-.53c0-.05,0-.11,0-.17l-.09-.17c-.12,0-.13.07-.19.12s-.06,0-.07,0,0-.07,0-.1a.34.34,0,0,1,.09-.15c.18-.15.31-.37.49-.54a.48.48,0,0,0,0-.12,1.26,1.26,0,0,1,0-.61.61.61,0,0,0,0-.26c0-.27-.06-.54-.09-.82a.78.78,0,0,0-.07-.25,1.7,1.7,0,0,1-.15-.89c0-.22,0-.45.05-.66a.15.15,0,0,0-.21,0l-.37.29c-.06-.09-.06-.09,0-.3.09,0,.21,0,.28-.1a2,2,0,0,0,.3-.36.62.62,0,0,0,.12-.36V40.6a2,2,0,0,1,0-.26,1.94,1.94,0,0,0,.15-.63.35.35,0,0,1,0-.2.51.51,0,0,0,.1-.35,7.12,7.12,0,0,0,0-.8,2.74,2.74,0,0,1,0-.7.28.28,0,0,0,0-.2h0s-.09,0-.07-.06a1.13,1.13,0,0,1,.13-.2.24.24,0,0,0,.08-.27.17.17,0,0,1,.11-.21l.48-.23s.06,0,.09,0a1,1,0,0,0,.42-.08,1,1,0,0,1,.77.14,2.37,2.37,0,0,1,.78.91,2.66,2.66,0,0,1,.3,1.1c0,.18,0,.35.05.53s0,.39,0,.59a8.13,8.13,0,0,1-.26,2.3c-.07.24-.12.48-.18.71s-.13.52-.19.78-.06.26-.09.4a4.09,4.09,0,0,1-.17.69,2.5,2.5,0,0,0-.11.39c-.14.83-.24,1.66-.31,2.49a4.7,4.7,0,0,0,0,.65,2.18,2.18,0,0,0,.16.62,1.13,1.13,0,0,0,.48.58,1.71,1.71,0,0,1,.25.18c.08,0,.17-.1.27,0s.06,0,.1,0,.12-.07.19,0,.1,0,.14,0a1.71,1.71,0,0,0,.76-.7,9.28,9.28,0,0,0,.39-.85,6.09,6.09,0,0,0,.28-.75c.08-.25.18-.5.28-.74a6.3,6.3,0,0,0,.3-1c0-.2.11-.4.17-.6s.17-.54.24-.82a1.63,1.63,0,0,1,.19-.52,6.67,6.67,0,0,0,.29-.74c0-.1.07-.23.19-.29l0,0c0-.17.13-.28.15-.44a.83.83,0,0,1,.23-.5s0,0,.06-.08c0-.21.2-.34.29-.53a1.13,1.13,0,0,1,.57-.49.41.41,0,0,1,.39,0,1,1,0,0,1,.56.65,2,2,0,0,1,.08.64,5.75,5.75,0,0,1-.1.93,9.6,9.6,0,0,1-.31,1.17c-.23.61-.43,1.24-.63,1.86-.12.36-.23.72-.34,1.07-.27.82-.57,1.61-.92,2.4a5.18,5.18,0,0,0-.34,1,2.38,2.38,0,0,1-.15.45,4.45,4.45,0,0,0-.32,1.34,1.06,1.06,0,0,0,.25.74.66.66,0,0,0,.74.21,7.42,7.42,0,0,0,.7-.44s0,0,.06-.06l.42-.74a1.32,1.32,0,0,1,.12-.2c.14-.15.29-.29.43-.45a3.27,3.27,0,0,0,.35-.46A7.61,7.61,0,0,1,84,49.29a4.07,4.07,0,0,0,.33-.48,2.56,2.56,0,0,1,.39-.48,1.94,1.94,0,0,0,.32-.42,2,2,0,0,1,.39-.44.31.31,0,0,1,.15-.08,2.57,2.57,0,0,1,.4-.08.7.7,0,0,1,.65.37A1.36,1.36,0,0,1,86.67,48.69Z" transform="translate(-0.98 -2.35)" style="fill-rule:evenodd"/><path d="M86.12,46.68l.16,0A.15.15,0,0,0,86.12,46.68Z" transform="translate(-0.98 -2.35)" style="fill-rule:evenodd"/><path d="M71.1,45.5a.53.53,0,0,1,0,.12h0S71.16,45.54,71.1,45.5Z" transform="translate(-0.98 -2.35)" style="fill-rule:evenodd"/><polygon points="69.64 40.14 69.63 40.11 69.62 40.14 69.64 40.14" style="fill-rule:evenodd"/><path d="M71.14,45.71l0-.05s0,0,0,.05Z" transform="translate(-0.98 -2.35)" style="fill-rule:evenodd"/><path d="M71.11,45.62h0a.43.43,0,0,0,0,0Z" transform="translate(-0.98 -2.35)" style="fill-rule:evenodd"/><polygon points="81.27 37.02 81.25 37.03 81.27 37.04 81.27 37.02" style="fill-rule:evenodd"/><polygon points="69.72 40.53 69.7 40.51 69.7 40.53 69.72 40.53" style="fill-rule:evenodd"/><path d="M86.23,50.94s0,.08,0,.12A.11.11,0,0,0,86.23,50.94Z" transform="translate(-0.98 -2.35)" style="fill-rule:evenodd"/><polygon points="81.31 46.21 81.29 46.21 81.29 46.22 81.31 46.21" style="fill-rule:evenodd"/><path d="M76.4,35.33h0l0,0-.14,0h0Z" transform="translate(-0.98 -2.35)" style="fill-rule:evenodd"/><path d="M78.41,34.53h0s0,0,0,0,0,0,0,0Z" transform="translate(-0.98 -2.35)" style="fill-rule:evenodd"/><path d="M76.16,35.25v.09l.09,0Z" transform="translate(-0.98 -2.35)" style="fill-rule:evenodd"/><path d="M76.16,35.25l-.06,0,.06,0Z" transform="translate(-0.98 -2.35)" style="fill-rule:evenodd"/><path d="M82,56.87Z" transform="translate(-0.98 -2.35)" style="fill-rule:evenodd"/><path d="M82.08,56.83l0,0h0Z" transform="translate(-0.98 -2.35)" style="fill-rule:evenodd"/><path d="M85.83,51.76l0,0h0Z" transform="translate(-0.98 -2.35)" style="fill-rule:evenodd"/><path d="M86.48,46.59h0Z" transform="translate(-0.98 -2.35)" style="fill-rule:evenodd"/><path d="M86.34,46.62h0Z" transform="translate(-0.98 -2.35)" style="fill-rule:evenodd"/><polygon points="72.78 45.54 72.79 45.51 72.77 45.52 72.78 45.54" style="fill-rule:evenodd"/><path d="M59.48,19.33a11.66,11.66,0,0,0-.28,3,.93.93,0,0,1-.14.61.4.4,0,0,0-.06.22c0,.44,0,.88,0,1.33a1.51,1.51,0,0,0,.06.36c0,.16.1.32.12.49a5.13,5.13,0,0,0,.79,1.88,2.08,2.08,0,0,0,.27.32,2.9,2.9,0,0,0,1.28.77,2.84,2.84,0,0,0,.57.16,3.62,3.62,0,0,0,2-.28,14.89,14.89,0,0,1,1.49-.59,2,2,0,0,1,1.34-.05,4.51,4.51,0,0,1,1.84,1.08,2.09,2.09,0,0,0,.29.23,1.85,1.85,0,0,1,.58.69,3.83,3.83,0,0,0,.68,1c.44.48.88,1,1.31,1.46a3.38,3.38,0,0,0,1.1.81c.28.12.55.27.84.39s.73.3,1.1.43a6,6,0,0,0,2.35.27,6.19,6.19,0,0,0,1.76-.25h0c0-.09.08-.12.16-.14h0c.15,0,.32,0,.42-.14a1.69,1.69,0,0,1,.55-.41,3,3,0,0,0,1.08-1.15,2.81,2.81,0,0,0,.3-.81,12.28,12.28,0,0,0,.22-1.48,3.43,3.43,0,0,0-.07-1,1.52,1.52,0,0,1,0-.67,1.37,1.37,0,0,0-.28-1.12l-.22-.29a2.82,2.82,0,0,0-.84-.88l-.17-.14a3.45,3.45,0,0,0-.91-.67,3.45,3.45,0,0,0-1.24-.58.31.31,0,0,1-.12-.05c-.31-.13-.62-.35-1-.12l-.4-.1v0c-.22.13-.24.12-.4-.09v0l-.18,0h0l-.28-.1c-.14.17-.32.13-.5.1-.5-.09-1-.3-1.47-.36l-.13,0a2.51,2.51,0,0,1-1.07-1c-.23-.4-.45-.8-.66-1.21a1.92,1.92,0,0,1-.25-.88,2.14,2.14,0,0,1-.35-.28c-.27-.38-.51-.78-.77-1.18-.06-.09-.09-.21-.17-.27s-.28-.43-.49-.59a5.58,5.58,0,0,1-.56-.53,1.46,1.46,0,0,0-.64-.43L68,17a11.25,11.25,0,0,0-1.46-.66,3.37,3.37,0,0,0-.94-.21,3.06,3.06,0,0,1-.72-.14,7.4,7.4,0,0,0-2.24-.37,2.36,2.36,0,0,0-1.37.45,3.75,3.75,0,0,0-1.36,1.73A8.4,8.4,0,0,0,59.48,19.33Zm1.4,1a2.9,2.9,0,0,1,.54-1.15,2.16,2.16,0,0,1,.92-.8,4.49,4.49,0,0,1,2.22-.44A.79.79,0,0,1,65,18a6.64,6.64,0,0,0,1.41.77,5.82,5.82,0,0,1,1.12.62c.27.2.54.39.8.62.6.53,1.19,1.08,1.79,1.63a1.5,1.5,0,0,1,.2.24,13.46,13.46,0,0,0,2,2.24,7.64,7.64,0,0,0,1,.79,5.62,5.62,0,0,0,.77.4c.34.14.66.33,1,.49a12.22,12.22,0,0,0,2.13.83,5.94,5.94,0,0,1,1.93.93,2.24,2.24,0,0,1,.71,2.7,1.82,1.82,0,0,1-.94.95,4.58,4.58,0,0,1-1.45.43c-.41,0-.82.08-1.23.08a2.19,2.19,0,0,1-.72-.09,13.22,13.22,0,0,1-2-.72,8.56,8.56,0,0,1-.75-.44,5.31,5.31,0,0,1-1.45-1.39,2.85,2.85,0,0,0-.73-.74,7.69,7.69,0,0,1-1-.82,4.93,4.93,0,0,0-1.6-1,2.68,2.68,0,0,1-.3-.12,2.44,2.44,0,0,0-2-.18,15.54,15.54,0,0,0-1.82.61,1.36,1.36,0,0,1-1.6-.31,5,5,0,0,1-1.08-1.47.94.94,0,0,1-.09-.62.61.61,0,0,0,0-.35,11,11,0,0,1-.38-1.6,2.86,2.86,0,0,1,0-.59.57.57,0,0,0,0-.13A3.52,3.52,0,0,1,60.88,20.29Z" transform="translate(-0.98 -2.35)" style="fill-rule:evenodd"/><path d="M56.83,13.69a9,9,0,0,0,1.65,1.94,2.58,2.58,0,0,0,.6.42.92.92,0,0,0,.79.11,1.31,1.31,0,0,0,.92-1,2.27,2.27,0,0,0,0-.86A2,2,0,0,0,60,13l-.53-.4-.36-.24a1.4,1.4,0,0,0-.8-.31L57.83,12l-.25-.07a.45.45,0,0,0-.63.17,2.67,2.67,0,0,0-.31.51.92.92,0,0,0,0,.84Z" transform="translate(-0.98 -2.35)" style="fill-rule:evenodd"/><path d="M54.71,22a3,3,0,0,0,1.67.57,1.37,1.37,0,0,0,1.44-.76.61.61,0,0,0,0-.12c0-.14-.09-.28-.13-.41a1.08,1.08,0,0,0-.19,0c0-.19.06-.35.06-.51a.41.41,0,0,0-.06-.3.91.91,0,0,0-.66-.37l-.46,0a5.36,5.36,0,0,0-2.11.41c-.11.21-.24.43-.36.65l.52.67A1.58,1.58,0,0,0,54.71,22Z" transform="translate(-0.98 -2.35)" style="fill-rule:evenodd"/><path d="M55.14,17.73A3,3,0,0,0,56.81,19a2,2,0,0,0,1.08.09.7.7,0,0,0,.54-.92,6.23,6.23,0,0,1-.15-.62.48.48,0,0,0-.08-.16c-.25-.22-.49-.46-.75-.66a2.72,2.72,0,0,0-1.32-.49.39.39,0,0,1-.3-.18c-.53.19-.53.2-.74.7A1.28,1.28,0,0,1,55,17a.48.48,0,0,0,0,.48C55,17.54,55.08,17.64,55.14,17.73Z" transform="translate(-0.98 -2.35)" style="fill-rule:evenodd"/><path d="M58.75,27.29a2.22,2.22,0,0,1-.09-.33c-.21-.05-.41-.11-.61-.14s-.36,0-.5-.18a.61.61,0,0,0-.33-.13,3.55,3.55,0,0,0-.72-.09.65.65,0,0,0-.62.31c-.12.19-.24.39-.34.57s.13.3,0,.46a.19.19,0,0,0,.06.24c.15.19.3.37.48.57l.29.06h.18a2.43,2.43,0,0,0,2-.82A.53.53,0,0,0,58.75,27.29Z" transform="translate(-0.98 -2.35)" style="fill-rule:evenodd"/><path d="M56.51,25.58a1.37,1.37,0,0,0,.93-.44c.14-.13.26-.29.39-.42a1.64,1.64,0,0,1-.14-.32.57.57,0,0,0-.51-.46c-.25,0-.5-.11-.75-.17a1.2,1.2,0,0,1-.75-.43c-.24.08-.44.12-.56.3l-.28.41a1.1,1.1,0,0,0-.1,1.29.56.56,0,0,1,0,.08A5,5,0,0,0,56.51,25.58Z" transform="translate(-0.98 -2.35)" style="fill-rule:evenodd"/><path d="M42.66,39.72a14.31,14.31,0,0,0-4,5.81,7.68,7.68,0,0,1-.72,1.81,3.1,3.1,0,0,0-.29.5.57.57,0,0,0,.22.77,1.57,1.57,0,0,0,.23.09,36.71,36.71,0,0,0,3.79.56q.61,0,1.23,0c.33,0,.65-.08,1-.09a13.48,13.48,0,0,0,5-1.07,11.34,11.34,0,0,0,1.41-.66c1.07-.75,2.1-1.55,3.16-2.33l.17-.17c.43-.43.83-.88,1.28-1.28a5.78,5.78,0,0,1,1.51-1.24A3.2,3.2,0,0,0,58,41.22a4.86,4.86,0,0,1,1.63-1.59l.13-.08a.72.72,0,0,0,.21-.66.5.5,0,0,0-.54-.3l-.9.06c-.33,0-.66,0-1,0-.66-.06-1.31-.15-1.95-.23a10.2,10.2,0,0,1-2.87-.69,6.91,6.91,0,0,0-3-.56h-.65a7.52,7.52,0,0,0-4.39,1.05A13.77,13.77,0,0,0,42.66,39.72Zm8.48-.39c1.07.31,2.14.62,3.21,1a2.71,2.71,0,0,1,.41.23,12.92,12.92,0,0,1-3.42,3.21,10.31,10.31,0,0,1,.17-1.61,1.71,1.71,0,0,0,0-.87c-.14-.47-.31-.93-.46-1.39,0-.13-.08-.26-.13-.41S51.09,39.31,51.14,39.33ZM44.5,47.09c-.46.07-.91.2-1.36.28s-.76.08-1.14.1c-.68,0-1.35.05-2,.06l-.49,0c-.16,0-.36,0-.44-.12s.09-.34.23-.46a4.37,4.37,0,0,0,1.21-1.62,8.57,8.57,0,0,1,1.07-1.64c.39-.52.85-1,1.28-1.49a3.94,3.94,0,0,1,.48-.37,6.55,6.55,0,0,0,.47,2.8,8.52,8.52,0,0,0,1.75,2.06A2.49,2.49,0,0,1,44.5,47.09Zm1.73-7.28a3.17,3.17,0,0,1,2.22-.29,1,1,0,0,1,.55.31,6.19,6.19,0,0,1,1.1,1.73,1.26,1.26,0,0,1,.07,1c-.21.56-.41,1.13-.66,1.67a2.06,2.06,0,0,1-.45.58c-.18.17-.38.32-.56.48s-.43.54-.79.53a2.9,2.9,0,0,1-1.41-.31,3.15,3.15,0,0,1-1.55-1.8A2.94,2.94,0,0,1,46.23,39.81Z" transform="translate(-0.98 -2.35)" style="fill-rule:evenodd"/><path d="M38.07,53.42a.36.36,0,0,0,.44-.13,4.3,4.3,0,0,0,.47-.65,3,3,0,0,1,.85-1.07,1.66,1.66,0,0,0,.45-.74.55.55,0,0,0-.31-.69c-.26-.12-.55-.2-.78-.29a1.47,1.47,0,0,0-.76.8c-.17.43-.4.84-.53,1.29a4.42,4.42,0,0,0-.14,1A.44.44,0,0,0,38.07,53.42Z" transform="translate(-0.98 -2.35)" style="fill-rule:evenodd"/><path d="M59.82,44.72a.74.74,0,0,0-.13-1.14,12.49,12.49,0,0,0-1.7-1,1.29,1.29,0,0,0-.8,0,.66.66,0,0,0-.36.88l0,.07a3.4,3.4,0,0,0,2.62,1.34A.56.56,0,0,0,59.82,44.72Z" transform="translate(-0.98 -2.35)" style="fill-rule:evenodd"/><path d="M39.73,40.16c-.12-.15-.16-.35-.27-.51a7.34,7.34,0,0,0-.51-.73.54.54,0,0,0-.36-.16,1.08,1.08,0,0,0-.92.59,1,1,0,0,0,.12,1.08,7.12,7.12,0,0,0,1.26,1.37l.81-.32a1.91,1.91,0,0,1,0-.48A.85.85,0,0,0,39.73,40.16Z" transform="translate(-0.98 -2.35)" style="fill-rule:evenodd"/><path d="M45.27,52.87a.57.57,0,0,0,.59.22c.23,0,.31-.19.35-.39s.09-.47.13-.71.06-.6.13-.89c.18-.7.06-1-.57-1.3-.44-.21-.71-.15-.93.28a1.72,1.72,0,0,0-.19.62A3.3,3.3,0,0,0,45,52.31C45.07,52.5,45.15,52.7,45.27,52.87Z" transform="translate(-0.98 -2.35)" style="fill-rule:evenodd"/><path d="M36,42.83a2.31,2.31,0,0,0-.46.66c-.2.44-.09.69.37.82s1.21.32,1.77.46l.79-.45a1.73,1.73,0,0,0,.06-.3c0-.62-.08-.79-.65-1a11.63,11.63,0,0,0-1.44-.35A.56.56,0,0,0,36,42.83Z" transform="translate(-0.98 -2.35)" style="fill-rule:evenodd"/><path d="M41.42,39.42l.66-.2a2.19,2.19,0,0,0,0-2.12,1.34,1.34,0,0,0-.86-.83l-.62.29c-.49.72-.14,1.29.08,1.86C40.81,38.82,40.89,39.28,41.42,39.42Z" transform="translate(-0.98 -2.35)" style="fill-rule:evenodd"/><path d="M55.42,46.44A8.09,8.09,0,0,1,56,47a.77.77,0,0,0,1.16.1,1.07,1.07,0,0,0-.08-1.23,3.6,3.6,0,0,0-1-1.06,1.07,1.07,0,0,0-.93-.16.8.8,0,0,0-.53.58A2.32,2.32,0,0,0,55.42,46.44Z" transform="translate(-0.98 -2.35)" style="fill-rule:evenodd"/><path d="M44.15,34.19a.93.93,0,0,0-.45.66,3.24,3.24,0,0,0,0,.88c.06.37.18.73.31,1.22,0,0,.11.2.24.23a.81.81,0,0,0,.83-.21,1.35,1.35,0,0,0,.4-1.18c-.09-.4-.14-.81-.25-1.2A.7.7,0,0,0,44.15,34.19Z" transform="translate(-0.98 -2.35)" style="fill-rule:evenodd"/><path d="M48.32,36.26l.07,0a6.51,6.51,0,0,0,.68-2.07,1.57,1.57,0,0,0-.13-1A.46.46,0,0,0,48.4,33a.81.81,0,0,0-.67.64c-.12.44-.24.89-.34,1.34a2.36,2.36,0,0,0-.08.65C47.31,36.36,47.58,36.53,48.32,36.26Z" transform="translate(-0.98 -2.35)" style="fill-rule:evenodd"/><path d="M62.5,41.62s-.07-.1-.1-.13a6.75,6.75,0,0,0-2.2-.83,1.28,1.28,0,0,0-.7.14.46.46,0,0,0-.15.79,3.27,3.27,0,0,0,1.94.94C62.36,42.6,62.35,42.56,62.5,41.62Z" transform="translate(-0.98 -2.35)" style="fill-rule:evenodd"/><path d="M50.79,35.92a2,2,0,0,0,0,.24.41.41,0,0,0,.32.43.51.51,0,0,0,.59-.13,2.51,2.51,0,0,0,.49-.74,12,12,0,0,1,.62-1.24c.07-.15.13-.3.21-.45a.47.47,0,0,0,0-.53.53.53,0,0,0-.59-.16l-.26.08a.82.82,0,0,0-.53.44A7.62,7.62,0,0,0,50.79,35.92Z" transform="translate(-0.98 -2.35)" style="fill-rule:evenodd"/><path d="M50,48.85c0,.18.08.37.13.61a3.14,3.14,0,0,0,.93,1.17.54.54,0,0,0,.82-.2A1.89,1.89,0,0,0,51,48,.75.75,0,0,0,50,48.85Z" transform="translate(-0.98 -2.35)" style="fill-rule:evenodd"/><path d="M48.59,52c.35,0,.5-.27.66-.53l0-.07c-.12-.5-.21-.92-.3-1.34a1,1,0,0,0-1.79-.3,3.71,3.71,0,0,0,.58,1.76A1.09,1.09,0,0,0,48.59,52Z" transform="translate(-0.98 -2.35)" style="fill-rule:evenodd"/><path d="M54.28,37a1.83,1.83,0,0,0,.37-.42,15,15,0,0,1,1.55-2c-.07-.28-.21-.49-.5-.46a1.24,1.24,0,0,0-.86.42c-.39.52-.81,1-1.17,1.56a1.23,1.23,0,0,0-.17,1.07A.73.73,0,0,0,54.28,37Z" transform="translate(-0.98 -2.35)" style="fill-rule:evenodd"/><path d="M53.59,47a1,1,0,0,0-.94,0,.51.51,0,0,0-.26.75.63.63,0,0,0,.19.26,7.5,7.5,0,0,0,1.07.73c.58.3.89.13,1.14-.56A3.83,3.83,0,0,0,53.59,47Z" transform="translate(-0.98 -2.35)" style="fill-rule:evenodd"/><path d="M42.54,52.25a2,2,0,0,0,.36-.53,5.07,5.07,0,0,1,.65-1.32c.15-.2,0-.43-.25-.46a1,1,0,0,0-1.1.64c-.08.19-.17.4-.26.59a2.33,2.33,0,0,0-.23,1.15C42.05,52.57,42.32,52.54,42.54,52.25Z" transform="translate(-0.98 -2.35)" style="fill-rule:evenodd"/><path d="M58,35.24a1.16,1.16,0,0,0-.61.38c-.22.28-.48.53-.68.82a2,2,0,0,0-.26.58.31.31,0,0,0,.12.27.33.33,0,0,0,.29,0c.51-.35.9-.85,1.43-1.17a1.62,1.62,0,0,0,.34-.35s0-.1.07-.15C58.51,35.17,58.39,35.11,58,35.24Z" transform="translate(-0.98 -2.35)" style="fill-rule:evenodd"/><path d="M46.54,43.87a1.19,1.19,0,0,0,1.52,0c.19-.15.33-.4.54-.5.53-.26.56-.69.5-1.18,0-.19-.05-.38-.07-.57a1.23,1.23,0,0,0-1.64-.9c-.59.35-1.19.69-1.26,1.48a1.92,1.92,0,0,1-.11.31A1.17,1.17,0,0,0,46.54,43.87Z" transform="translate(-0.98 -2.35)" style="fill-rule:evenodd"/><path d="M47,58.33c-.1.05-.13.15-.2.23a.68.68,0,0,1-.12.12.75.75,0,0,0-.29.27c-.11.2-.23.39-.36.59a3.72,3.72,0,0,0-.32.63c-.05.11-.1.22-.16.33a4.69,4.69,0,0,0-.34.67,3.36,3.36,0,0,1-.26.54c-.06.09-.1.18-.15.27-.22.44-.46.88-.72,1.3a3,3,0,0,0-.2.4c-.12.36-.34.67-.49,1-.07.18-.16.35-.24.53a3.46,3.46,0,0,0-.24.57.51.51,0,0,1-.09.16,3,3,0,0,0-.3.56l-.29.52c-.07.14-.13.29-.2.42a8.12,8.12,0,0,0-.6,1.22.61.61,0,0,1-.05.12h-.16l-.33,0a2.58,2.58,0,0,0-.29,0,9.07,9.07,0,0,0-1,0H39.5a1.3,1.3,0,0,0-.52,0l-.47.06a.51.51,0,0,1,0-.4c0-.11.1-.21.15-.32a2.44,2.44,0,0,1,.1-.24c.09-.18,0-.36,0-.55a.76.76,0,0,0,0-.21.66.66,0,0,0,0-.15,7.62,7.62,0,0,1-.41-1c-.1-.28-.25-.53-.37-.8s-.24-.42-.35-.63-.25-.5-.38-.76-.31-.65-.46-1c-.05-.11-.11-.21-.16-.31l-.33-.7c-.13-.25-.27-.49-.39-.75s-.31-.64-.46-1l-.49-.92a3.16,3.16,0,0,0-.67-.87,4.23,4.23,0,0,0-.42-.32.14.14,0,0,0-.18,0,.42.42,0,0,0-.07.34,7.17,7.17,0,0,0,.3,1c.1.29.2.59.29.88s.25.8.38,1.2c.08.24.18.47.27.71l.3.85c.08.23.15.46.25.69l.56,1.28c0,.11.11.22.15.34.16.43.35.86.54,1.28,0,.1.07.2.17.25s0,0,0,.07c.14.32.28.64.41,1a4.61,4.61,0,0,1,.22.51,3.48,3.48,0,0,0,.24.52s.05.1.08.16l-.11,0a3.83,3.83,0,0,0-.7.29c-.22.11-.42.27-.63.4a2.72,2.72,0,0,0-.69.62,3.5,3.5,0,0,1-.38.39,3.49,3.49,0,0,0-.32.35,6.39,6.39,0,0,0-.79,1.33c-.08.18-.15.36-.23.55a7.69,7.69,0,0,0-.37,1,2.75,2.75,0,0,0-.09.5c0,.31-.05.63-.05,1s.1.67.13,1a2,2,0,0,0,.06.35,3.77,3.77,0,0,0,.14.58c.1.25.19.5.29.74l.36.76a1.3,1.3,0,0,0,.14.26c.14.21.27.42.4.63a3.25,3.25,0,0,0,.4.5l.38.37a1.62,1.62,0,0,0,.8.53l.11.07c.24.15.48.3.73.44a4.24,4.24,0,0,0,.84.38,3.37,3.37,0,0,0,1.61.06,5.82,5.82,0,0,0,1.07-.28.24.24,0,0,0,.13-.05.67.67,0,0,1,.28-.1.85.85,0,0,0,.42-.19.1.1,0,0,1,.05,0l.57-.19s.12,0,.17,0a6.74,6.74,0,0,0,.72-.34c.23-.14.48-.25.73-.38s.28-.09.35-.25l0,0a.75.75,0,0,0,.25-.22,2.28,2.28,0,0,1,.22-.22.86.86,0,0,0,.14-.13l.27-.38.29-.39a.13.13,0,0,1,.1-.08c.06,0,.08,0,.11-.09s.12-.21.16-.32c.16-.35.27-.72.4-1.08,0-.1,0-.21.12-.28s0,0,0-.06a1.75,1.75,0,0,1,0-.24c.05-.29.12-.58.15-.88s.06-.6.09-.9a.82.82,0,0,0,0-.31c0-.22,0-.45,0-.66s-.06-.21-.08-.32-.07-.45-.11-.68a.83.83,0,0,0,0-.15,3.92,3.92,0,0,1-.29-.74A.35.35,0,0,0,46,72a2.35,2.35,0,0,1-.21-.42s0-.1-.08-.14l-.22-.3a4.1,4.1,0,0,0-.6-.71l-.65-.5c-.25-.17-.51-.33-.77-.49a3.65,3.65,0,0,0-1-.46L42,68.9a.17.17,0,0,1-.14-.16.54.54,0,0,0,.13-.07.75.75,0,0,0,.09-.15l.18-.25a6.12,6.12,0,0,0,.5-.64l0,0a1.16,1.16,0,0,0,.36-.4l0-.05a3.53,3.53,0,0,0,.51-.58.44.44,0,0,0,.08-.11c.09-.22.23-.4.34-.61s.23-.41.33-.62a2.39,2.39,0,0,0,.15-.37l.09-.32a.87.87,0,0,0,0-.28.91.91,0,0,1,.07-.35,3.43,3.43,0,0,0,.18-.7,1.09,1.09,0,0,0,0-.18,2.08,2.08,0,0,1,.22-.82,7.06,7.06,0,0,0,.33-.68,1.71,1.71,0,0,1,.17-.33,2.44,2.44,0,0,0,.21-.43c.07-.22.16-.42.24-.62a.35.35,0,0,1,.13-.18.63.63,0,0,0,.2-.26c.13-.28.27-.56.41-.84a1.33,1.33,0,0,0,.16-.34C47.15,58.41,47.15,58.41,47,58.33ZM46.24,76a.14.14,0,0,1,0,.19A.28.28,0,0,1,46.24,76Zm-.31,2s0,0,0,0,0,0,0,0,0,0,0,0Zm-3.24-8.13L43,70l.17.08a.21.21,0,0,1,.1.06,1.87,1.87,0,0,0,.35.26.1.1,0,0,1,0,0,3.49,3.49,0,0,0,.53.56.25.25,0,0,1,0,.07,1.18,1.18,0,0,0,.13.18,4.27,4.27,0,0,1,.46.73,3.71,3.71,0,0,1,.22.55,3.93,3.93,0,0,1,.19.75,5.78,5.78,0,0,1,.11,1,1.8,1.8,0,0,1,0,.4,8.36,8.36,0,0,1-.14.85c0,.11,0,.22-.06.32a4.56,4.56,0,0,1-.3,1c-.12.29-.24.57-.35.86a3.07,3.07,0,0,1-.17.31c-.06.1-.13.18-.18.28a6.72,6.72,0,0,1-.8,1.12,6,6,0,0,1-.79.71,2.91,2.91,0,0,1-.33.26.93.93,0,0,1-.38.2.49.49,0,0,0-.15.1,1.24,1.24,0,0,1-.78.26,3,3,0,0,1-.42,0l-1.16-.18a5,5,0,0,1-1.26-.35,4.34,4.34,0,0,1-.88-.52,3.94,3.94,0,0,1-.82-.86,6.81,6.81,0,0,1-.53-.79,3.74,3.74,0,0,1-.42-.85c-.07-.28-.17-.53-.23-.81a3.31,3.31,0,0,1-.16-.94,2.6,2.6,0,0,0-.05-.39.84.84,0,0,1,.05-.44,1.77,1.77,0,0,0,.1-.61,3.46,3.46,0,0,1,.14-.91c0-.11,0-.22.07-.33a2.76,2.76,0,0,1,.35-.81,1,1,0,0,0,.13-.25,3.9,3.9,0,0,1,.2-.47,1.05,1.05,0,0,1,.18-.25l.37-.47a2.28,2.28,0,0,1,.22-.22c.11-.08.2-.18.3-.26a.73.73,0,0,1,.26-.19,4.5,4.5,0,0,0,.43-.23.72.72,0,0,1,.24-.1,1.7,1.7,0,0,0,.53-.16l.06,0a.23.23,0,0,0,.33.07,1.73,1.73,0,0,1,.44-.14.8.8,0,0,1,.31,0,.65.65,0,0,0,.24,0c.23,0,.46,0,.69,0a.86.86,0,0,1,.17,0,7.54,7.54,0,0,0,.82.06h.06A3.64,3.64,0,0,1,42.69,69.81Z" transform="translate(-0.98 -2.35)" style="fill-rule:evenodd"/><path d="M40.17,70.84a.66.66,0,0,0-.2,0c-.35,0-.7.1-1,.17a2.24,2.24,0,0,0-.81.42s0,0-.06.06-.1.13-.16.18a4.51,4.51,0,0,0-.91,1,5.64,5.64,0,0,0-.46,1,4,4,0,0,0-.23,1.57c0,.22.09.43.12.66a3.82,3.82,0,0,0,.28,1,4.59,4.59,0,0,0,1.24,1.62,2.55,2.55,0,0,0,1.34.54l.18,0,.24,0a5,5,0,0,1,.77,0s.07,0,.11,0,.32,0,.48-.07.56-.18.85-.27l.11-.06a2.79,2.79,0,0,0,.79-.74l.16-.21a4.77,4.77,0,0,0,.62-1.13,2.33,2.33,0,0,0,.11-.28.2.2,0,0,0,0-.11,2.22,2.22,0,0,1,.13-.49s0-.07,0-.11c0-.2,0-.41.07-.61a5.61,5.61,0,0,0,0-.58c0-.17,0-.34,0-.51a2.88,2.88,0,0,0-.1-.51,3.64,3.64,0,0,0-.37-.88c-.05-.11-.14-.21-.2-.32a3.57,3.57,0,0,0-.86-.83.91.91,0,0,0-.17-.09s-.07,0-.09,0A2.28,2.28,0,0,0,41.2,71Zm1.23.63a5.56,5.56,0,0,1,.77.39,2,2,0,0,1,.77.9,1.81,1.81,0,0,1,.18.69,4.26,4.26,0,0,1,.12.82c0,.16,0,.35,0,.52a1.12,1.12,0,0,1,0,.32,6.32,6.32,0,0,1-.21,1,5.67,5.67,0,0,1-.42,1,5.08,5.08,0,0,1-.86,1.15l-.25.22a.63.63,0,0,1-.23.12,3,3,0,0,1-.6.06,5.32,5.32,0,0,1-.89-.14,2.69,2.69,0,0,1-1-.52,3.76,3.76,0,0,1-.8-.89l-.15-.24a2.94,2.94,0,0,1-.32-1,9.68,9.68,0,0,1-.09-1.06,1.49,1.49,0,0,1,.1-.72,1.42,1.42,0,0,0,0-.22c0-.1.06-.19.1-.29s.14-.33.2-.49a2.55,2.55,0,0,1,.5-.82l.18-.2a2.67,2.67,0,0,1,.54-.36,1.87,1.87,0,0,0,.52-.23,1.19,1.19,0,0,1,.41-.11,2.65,2.65,0,0,1,.69,0l.26,0,.3.05Z" transform="translate(-0.98 -2.35)" style="fill-rule:evenodd"/><path d="M62,5.11a1.43,1.43,0,0,0,1.11-.3,3.73,3.73,0,0,0,1.31-1.63,2.79,2.79,0,0,0-2.66-.77c-.57.09-.76.48-.71,1.11a5.2,5.2,0,0,0,.12.87A.93.93,0,0,0,62,5.11Z" transform="translate(-0.98 -2.35)" style="fill-rule:evenodd"/><path d="M79.4,86.5c-.74.11-1,.62-.93,1.44a7.24,7.24,0,0,0,.16,1.15,1.2,1.2,0,0,0,1.09,1,1.92,1.92,0,0,0,1.45-.39,4.93,4.93,0,0,0,1.72-2.15A3.66,3.66,0,0,0,79.4,86.5Z" transform="translate(-0.98 -2.35)" style="fill-rule:evenodd"/><path d="M72,14.32a1.87,1.87,0,0,0,1,.4,2,2,0,0,0,1-.32c.17-.12.22-.43.37-.72a3.14,3.14,0,0,1-.84-.36,1.15,1.15,0,0,0-1.32-.2A.67.67,0,0,0,72,14.32Z" transform="translate(-0.98 -2.35)" style="fill-rule:evenodd"/><path d="M78.37,77.78a.75.75,0,0,0,1.15,0A1.5,1.5,0,0,0,80,76.73l-.75-.8C77.85,76.27,77.6,76.88,78.37,77.78Z" transform="translate(-0.98 -2.35)" style="fill-rule:evenodd"/><path d="M91.58,54.17a.44.44,0,0,0-.06-.1,1.55,1.55,0,0,0-1.17-.53.63.63,0,0,0-.66.82,1.25,1.25,0,0,0,1.25.91h.22c.36-.08.83,0,1-.46S91.74,54.4,91.58,54.17Z" transform="translate(-0.98 -2.35)" style="fill-rule:evenodd"/><path d="M90.36,23.48a1.2,1.2,0,0,0,1.08-.93c0-.14,0-.29.06-.43l-.71-.54a1.27,1.27,0,0,0-1.2.73C89.25,23,89.6,23.51,90.36,23.48Z" transform="translate(-0.98 -2.35)" style="fill-rule:evenodd"/><path d="M3,38.31,2.3,37.25c-.56,0-.95.51-1.19,1.46-.34,1.34,0,2.39.77,2.32.51-.05.94-.78,1.08-1.86C3,38.89,3,38.6,3,38.31Z" transform="translate(-0.98 -2.35)" style="fill-rule:evenodd"/><path d="M38.91,87.07c-.34.68,0,1.2.77,1.17a1.18,1.18,0,0,0,1.08-.93c0-.14,0-.29.06-.43l-.72-.53A1.27,1.27,0,0,0,38.91,87.07Z" transform="translate(-0.98 -2.35)" style="fill-rule:evenodd"/><path d="M9.33,30.34a5.64,5.64,0,0,0,.83-1.05.87.87,0,0,0-.07-.95c-.41.22-.81.41-1.18.63a1,1,0,0,0-.38,1.09A.52.52,0,0,0,9.33,30.34Z" transform="translate(-0.98 -2.35)" style="fill-rule:evenodd"/><path d="M77.11,68.41c-.29-.18-.64-.51-1-.25s-.31.63-.22,1.06c1.26.5,1.38.51,2.11.16A1.82,1.82,0,0,0,77.11,68.41Z" transform="translate(-0.98 -2.35)" style="fill-rule:evenodd"/><path d="M84.67,71.55c-.34.06-.81.07-.91.51s.22.67.58.92c1.26-.51,1.35-.59,1.63-1.35A1.78,1.78,0,0,0,84.67,71.55Z" transform="translate(-0.98 -2.35)" style="fill-rule:evenodd"/><path d="M4.67,63.47c-.06-.12-.23-.18-.39-.3-.28.22-.56.41-.8.63a.68.68,0,0,0-.14.83.62.62,0,0,0,.78.28,1,1,0,0,0,.21-.1,9.24,9.24,0,0,0,.36-.92A.51.51,0,0,0,4.67,63.47Z" transform="translate(-0.98 -2.35)" style="fill-rule:evenodd"/><path d="M50.05,30.42a1,1,0,0,0,1.29-.14.8.8,0,0,0,.11-1,7.42,7.42,0,0,0-.48-.78,3.46,3.46,0,0,0-.4-.28.76.76,0,0,0-1.21.52A1.48,1.48,0,0,0,50.05,30.42Z" transform="translate(-0.98 -2.35)" style="fill-rule:evenodd"/><path d="M15.62,19.07a.94.94,0,0,0,.94-.64,9.69,9.69,0,0,0,.33-1c0-.28,0-.42-.06-.55a.88.88,0,0,0-1.37-.68,1.73,1.73,0,0,0-1,1.86A1.24,1.24,0,0,0,15.62,19.07Z" transform="translate(-0.98 -2.35)" style="fill-rule:evenodd"/><path d="M34.22,35.61c.64-.13,1.29-.24,1.94-.4s1.08-.29,1.61-.46a7,7,0,0,0,.77-.27,2.52,2.52,0,0,1,.69-.22,4,4,0,0,0,.83-.25c.1,0,.14-.2.24-.28a.65.65,0,0,0,.27-.54.65.65,0,0,0-.47,0,4.67,4.67,0,0,0-.76.17c-.41.15-.84.27-1.27.41l-.93.33L34.4,35c-.16.05-.32.13-.46,0-.16.06-.2,0-.23-.17a.79.79,0,0,1,.07-.67,5.7,5.7,0,0,1,.46-.67.89.89,0,0,1,.53-.35.73.73,0,0,0,.5-.25,1.11,1.11,0,0,0-.19-.63.62.62,0,0,1-.07-.68,4.57,4.57,0,0,1,.76-1.08,1,1,0,0,0,.36-.92.29.29,0,0,1,0-.13,3.43,3.43,0,0,0,0-1.06,1.77,1.77,0,0,0-.3-.93c-.11-.17-.24-.33-.36-.49s0,0,0-.07.08-.25,0-.37a1.64,1.64,0,0,1-.39,0c-.41-.09-.81-.18-1.21-.29a9.05,9.05,0,0,1-1.14-.4c-.85-.39-1.7-.78-2.53-1.2s-1.37-.73-2-1.11a2.59,2.59,0,0,1-1-1c-.11-.2-.25-.39-.36-.59a.57.57,0,0,1-.14-.41l.15,0a4.86,4.86,0,0,0,1.6-.33l1.72-.7,2.32-1c.25-.12.49-.24.75-.34.45-.18.91-.35,1.37-.51l3-1.07L40,16.58l.3-.07c0,.09.08.15.09.21a5.19,5.19,0,0,1,.13,1.88c-.1.68-.21,1.36-.34,2a8.37,8.37,0,0,1-.23.86h0s.11,0,.13,0a.15.15,0,0,1,0,.11c-.09,0-.1-.05-.09-.13h0c-.25.67-.48,1.35-.75,2a3.29,3.29,0,0,1-.84,1.24l-1.09.91c-.26.2-.53.39-.8.58s-.28.2-.25.4.36.05.54.13c0,.06,0,.12,0,.17a6,6,0,0,0,.1,1.2,2.9,2.9,0,0,0,.61,1.44.73.73,0,0,1,.19.34.47.47,0,0,0,.35.34,4.39,4.39,0,0,1,.61.21,2.41,2.41,0,0,1,.78.45,9.33,9.33,0,0,1,1.5,1.87,3.3,3.3,0,0,1,.19.43.5.5,0,0,0,.56.07l.58-.27c.28-.14.57-.26.87-.4,0-.2,0-.4,0-.6a7.36,7.36,0,0,0-1.24-1.13,4.59,4.59,0,0,0-1.19-.6c-.41-.16-.85-.25-1.28-.37s-.72-.18-1.12-.28a2.77,2.77,0,0,1-.18-.28,6.71,6.71,0,0,1-.44-1.53,10.77,10.77,0,0,0-.23-1.13.43.43,0,0,1,.18-.52c.4-.32.79-.66,1.17-1a7.88,7.88,0,0,0,.64-.75.61.61,0,0,0,.11-.23.26.26,0,0,1,.3-.23.56.56,0,0,0,.39-.17c.24-.2.47-.42.7-.63A.38.38,0,0,0,41,23a1.11,1.11,0,0,1,.41-.54,8,8,0,0,0,1.31-1.59c.5-.8,1-1.6,1.56-2.37a5.35,5.35,0,0,0,.77-1.43,1.54,1.54,0,0,0,.09-.76,1.31,1.31,0,0,0-.87-1.09,2.68,2.68,0,0,0-1.06-.17,3.32,3.32,0,0,0-1.08.24,2.31,2.31,0,0,0-.88.54l-.25.22L40.9,16a1.31,1.31,0,0,0-.95-.16c-.91.27-1.81.56-2.73.8s-1.64.52-2.46.8-1.71.6-2.56.91l-2.26.85-1.12.45-1.93.83a1.4,1.4,0,0,1-.34.08.53.53,0,0,0-.45.27.34.34,0,0,1-.23.18.32.32,0,0,0-.23.29c0,.13-.05.27-.08.42l-.75-.06a2.61,2.61,0,0,0-1.14.15l-.87.38a2.2,2.2,0,0,0-.32.21.56.56,0,0,0-.21.27,1.47,1.47,0,0,1-.23.45,1.39,1.39,0,0,0-.2.79,2.35,2.35,0,0,0,.44,1.28A3.38,3.38,0,0,0,24,26.49a6.74,6.74,0,0,0,2.71.39c.81-.06,1.63-.06,2.45-.08h.64c.14,0,.25,0,.31-.16a.22.22,0,0,1,.19-.07,1,1,0,0,1,.33.06c.43.13.85.26,1.27.41a6.65,6.65,0,0,0,1.46.37,2.36,2.36,0,0,0,1.15,0,.67.67,0,0,1,.42,0,1.34,1.34,0,0,1,.48.8,8.72,8.72,0,0,1,.1,1.44l-.31.37c-.1.12-.21.23-.32.35a.54.54,0,0,0-.11.18,2.75,2.75,0,0,0-.38,1.87c-.18.14-.37.25-.52.39A3.25,3.25,0,0,0,33.07,34a1.45,1.45,0,0,0,.06,1.33c.15.24.26.34.54.32ZM41,20.6c.08-.38.17-.75.26-1.13s.13-.7.21-1a3.48,3.48,0,0,0,0-1c0-.13,0-.26,0-.39a9.89,9.89,0,0,1,1.68-1.17c.33.09.67.24,1,0a1.06,1.06,0,0,1,.29,1,3.82,3.82,0,0,1-.31.75c-.28.54-.58,1.06-.88,1.59a2.69,2.69,0,0,1-.2.27h.12s.05,0,.05.06,0,0,0,0a.07.07,0,0,1-.07,0,.31.31,0,0,1,0-.1h0A7.16,7.16,0,0,1,42,21.2a.8.8,0,0,0-.29.46h0l0,0h0a.14.14,0,0,1-.13.09l0,0,0,0h0a3.45,3.45,0,0,1-.28.26.41.41,0,0,0-.14.3c0,.15-.08.27-.28.25a.16.16,0,0,0-.17.2.28.28,0,0,1-.15.32,1.14,1.14,0,0,0-.38.34.5.5,0,0,1-.13.07.25.25,0,0,1,0-.12,2.79,2.79,0,0,1,.32-.78A6.88,6.88,0,0,0,41,20.6ZM29,26a27.37,27.37,0,0,1-3.39-.13,4.14,4.14,0,0,1-1.38-.32,2.84,2.84,0,0,1-1.28-1,1.91,1.91,0,0,1-.21-.43.87.87,0,0,1,.33-1.2,4.93,4.93,0,0,1,.74-.43,1,1,0,0,1,.29-.07h1a.89.89,0,0,1,.45.12.49.49,0,0,1,.25.28A2.73,2.73,0,0,0,27,24.28c.6.43,1.22.86,1.83,1.28l.48.28a1.57,1.57,0,0,1,.18.16Z" transform="translate(-0.98 -2.35)" style="fill-rule:evenodd"/><path d="M25.45,20.36a5.41,5.41,0,0,0,1.19-.83A8.26,8.26,0,0,0,27.77,18a.59.59,0,0,1,.11-.19,3.06,3.06,0,0,0,.45-.73,6.18,6.18,0,0,1,.73-1.21c.16-.2.3-.42.45-.63a1.35,1.35,0,0,1,.15-.26c.34-.44.69-.88,1-1.31a4.64,4.64,0,0,0,.51-.74,1.69,1.69,0,0,1,.33-.49h.06a10.76,10.76,0,0,1,1.24,1A6.51,6.51,0,0,0,35.47,15l1,.33a2.41,2.41,0,0,0,.67.13,2.47,2.47,0,0,1,.38.05l1.28.14a.93.93,0,0,0,.62-.15c.17-.12.37-.21.56-.32l.17-.11c.13-.09.25-.19.38-.3l-.21-.09a1.56,1.56,0,0,0,.08-.21c-.26-.06-.51-.11-.75-.19a3.47,3.47,0,0,1-.92-.33,3,3,0,0,0-.87-.34L35.73,13a14,14,0,0,1-2.3-1,1.12,1.12,0,0,1-.49-.45c-.14-.24-.29-.46-.44-.7A1.22,1.22,0,0,0,32,11l-1,.42a1.13,1.13,0,0,0,.05.32.51.51,0,0,1-.09.52c-.13.21-.25.42-.38.62a1.47,1.47,0,0,1-.1.13c-.12.13-.25.24-.36.37a4.72,4.72,0,0,1-.7,1,1,1,0,0,0-.13.17L29,15c-.4.56-.82,1.11-1.22,1.67s-.94,1.41-1.44,2.09c-.33.43-.7.84-1.06,1.25-.13.14-.29.26-.45.41A.67.67,0,0,0,25.45,20.36Z" transform="translate(-0.98 -2.35)" style="fill-rule:evenodd"/><path d="M30.41,10a1.08,1.08,0,0,1,.33.55.37.37,0,0,0,.24.3,2,2,0,0,0,.25-.13,2.11,2.11,0,0,1,.09-.45,4,4,0,0,1,.28-.43c.1-.15.08-.2-.06-.37a2.15,2.15,0,0,1-.18-.24A2.15,2.15,0,0,0,31.18,9a5.43,5.43,0,0,0-.74-.54l-.37.3a1.85,1.85,0,0,1,.15.74A.64.64,0,0,0,30.41,10Z" transform="translate(-0.98 -2.35)" style="fill-rule:evenodd"/><path d="M21.67,14c.86-.32,1.47-.79,1.49-1.77-.13-.06-.23-.16-.33-.15l-1.93.14C20.34,13.41,20.39,13.52,21.67,14Z" transform="translate(-0.98 -2.35)" style="fill-rule:evenodd"/><path d="M15.52,75.48a.74.74,0,0,0,1.15,0,1.42,1.42,0,0,0,.42-1l-.75-.81C15,74,14.75,74.57,15.52,75.48Z" transform="translate(-0.98 -2.35)" style="fill-rule:evenodd"/><path d="M80.6,14.9a1,1,0,0,0,1.07-.74A9.93,9.93,0,0,0,82.06,13c0-.33,0-.49-.07-.64a1,1,0,0,0-1.58-.78,2,2,0,0,0-1.09,2.15A1.4,1.4,0,0,0,80.6,14.9Z" transform="translate(-0.98 -2.35)" style="fill-rule:evenodd"/><path d="M42.89,64a.77.77,0,0,1,.12-.24,3.28,3.28,0,0,0,.32-.58l.31-.63a4.22,4.22,0,0,0,.39-.87l0,0a8.08,8.08,0,0,0,.37-.79,1.85,1.85,0,0,0,.13-.7,2.35,2.35,0,0,1,0-.26,4,4,0,0,1,.22-.9.55.55,0,0,0,.06-.22,1.06,1.06,0,0,0,0-.53,1.34,1.34,0,0,0-.09-.26c0-.07,0-.1,0-.15s-.07-.07-.17-.07h-.05c0-.09-.13-.09-.21-.09l-.11.14a5.16,5.16,0,0,0-.43.75c-.21.41-.41.83-.61,1.23h0l0,0h0l0,0h0l-.11.23h0v0h0a.08.08,0,0,1,0,.09h0a.53.53,0,0,1-.15.36.12.12,0,0,1,0,.1l0,.09h0c0,.06-.12.07-.16.14L42.05,62c-.11.22-.22.45-.32.68s-.22.44-.32.67-.16.32-.24.47l-.81,1.63s0,.09-.09.09a.47.47,0,0,1-.06-.09c-.08-.2-.17-.39-.24-.59s-.23-.53-.34-.79l-.21-.52c-.06-.15-.12-.31-.19-.46s-.1-.19-.14-.28c-.18-.37-.3-.76-.49-1.11s-.25-.5-.37-.76a3.31,3.31,0,0,1-.35-.85.89.89,0,0,0-.22-.43.86.86,0,0,1-.13-.2c-.14-.26-.27-.51-.39-.77a2.1,2.1,0,0,0-.58-.74.23.23,0,0,0-.12-.06.21.21,0,0,1-.15,0A.24.24,0,0,0,36,58a.38.38,0,0,0,0,.4,7,7,0,0,0,.71,1.39,3.56,3.56,0,0,1,.35.67,4.6,4.6,0,0,0,.31.63c.09.16.16.32.25.46s.16.33.25.5.12.17.17.26.09.18.14.26h0a0,0,0,0,1,0,0l0,0h0l0,0s0,0,0,0h-.05a1.42,1.42,0,0,0,.08.18s0,0,.07,0h0l0,0s0,0,0-.05a.31.31,0,0,1,0,.09h0a1.33,1.33,0,0,1,.16.34h0a.21.21,0,0,1,0,.13.11.11,0,0,1,0,.14v0h0a.8.8,0,0,1,.08.16c.06.15.12.31.19.47a1.47,1.47,0,0,0,.3.49.38.38,0,0,1,.09.12c.19.37.37.73.53,1.12,0,.09.07.19.11.29.22.51.47,1,.71,1.52a.92.92,0,0,1,.09.23c.07.18.14.36.2.53s.08.09.12.08a.28.28,0,0,0,.15-.08s0-.08,0-.12a.51.51,0,0,0,0-.13,2.83,2.83,0,0,0-.13-.44v0l.1,0a3,3,0,0,0-.24-.72.48.48,0,0,1,0-.42s0,0,0,0h0a3.24,3.24,0,0,1,.33-.13.49.49,0,0,1,.36,0h0a.4.4,0,0,0,.29-.18c.15-.27.32-.52.48-.78a.56.56,0,0,0,.07-.18.85.85,0,0,1,.31-.63.08.08,0,0,0,0,0l.17-.31,0,0v0A.08.08,0,0,1,42.89,64Z" transform="translate(-0.98 -2.35)" style="fill-rule:evenodd"/><path d="M38.39,63.14l0,.06a.37.37,0,0,0,0-.11S38.38,63.1,38.39,63.14Z" transform="translate(-0.98 -2.35)" style="fill-rule:evenodd"/><path d="M38.43,63.2v0h0Z" transform="translate(-0.98 -2.35)" style="fill-rule:evenodd"/><path d="M38.44,63.22a.37.37,0,0,0,.05.11.45.45,0,0,1,0-.11Z" transform="translate(-0.98 -2.35)" style="fill-rule:evenodd"/><polygon points="37.5 60.86 37.5 60.86 37.5 60.86 37.5 60.85 37.5 60.86" style="fill-rule:evenodd"/><path d="M43.07,60.05l0,.08h0Z" transform="translate(-0.98 -2.35)" style="fill-rule:evenodd"/><path d="M43,60.31l0-.09,0-.09h0l0,.09a.36.36,0,0,1,0,.09.21.21,0,0,1,0,.1v0A1,1,0,0,0,43,60.31Z" transform="translate(-0.98 -2.35)" style="fill-rule:evenodd"/><path d="M42.89,60.5h0Z" transform="translate(-0.98 -2.35)" style="fill-rule:evenodd"/><path d="M42.92,60.43a.09.09,0,0,0,0,.07h0Z" transform="translate(-0.98 -2.35)" style="fill-rule:evenodd"/><polygon points="41.94 58.14 41.94 58.15 41.95 58.14 41.95 58.14 41.94 58.14" style="fill-rule:evenodd"/><path d="M42.88,60.51l0,.07h0Z" transform="translate(-0.98 -2.35)" style="fill-rule:evenodd"/><polygon points="41.9 58.23 41.9 58.24 41.91 58.23 41.91 58.23 41.9 58.23" style="fill-rule:evenodd"/><path d="M42.85,60.58h0Z" transform="translate(-0.98 -2.35)" style="fill-rule:evenodd"/><path d="M42.84,60.67V60.6A0,0,0,0,0,42.84,60.67Z" transform="translate(-0.98 -2.35)" style="fill-rule:evenodd"/><path d="M38.26,62.94l0,0S38.25,62.92,38.26,62.94Z" transform="translate(-0.98 -2.35)" style="fill-rule:evenodd"/><path d="M38.26,63h0v0h0Z" transform="translate(-0.98 -2.35)" style="fill-rule:evenodd"/><path d="M46.12,4.69a1.21,1.21,0,0,0,1.08-.94c0-.14,0-.29.06-.43l-.72-.53a1.28,1.28,0,0,0-1.19.73C45,4.19,45.36,4.72,46.12,4.69Z" transform="translate(-0.98 -2.35)" style="fill-rule:evenodd"/></svg>