<svg id="Capa_1" enable-background="new 0 0 512 512" height="512" viewBox="0 0 512 512" width="512" xmlns="http://www.w3.org/2000/svg"><g><path d="m180.583 456.856h-165.583c-8.284 0-15 6.716-15 15s6.716 15 15 15h165.583c8.284 0 15-6.716 15-15 0-8.285-6.716-15-15-15z"/><path d="m15 426.856h105.583c8.284 0 15-6.716 15-15s-6.716-15-15-15h-105.583c-8.284 0-15 6.716-15 15s6.716 15 15 15z"/><path d="m15 366.856h45.583c8.284 0 15-6.716 15-15s-6.716-15-15-15h-45.583c-8.284 0-15 6.716-15 15s6.716 15 15 15z"/><path d="m511.999 381.857c0-20.034-7.8-38.869-21.966-53.034-14.165-14.166-33-21.967-53.033-21.967-44.252 0-63.614-13.682-75.537-25.603-.001-.001-.003-.003-.004-.004s-.002-.001-.003-.002c-12.492-12.498-9.26-39.455-6.171-52.418l83.321-83.321c2.813-2.813 4.394-6.628 4.394-10.606s-1.581-7.793-4.394-10.606l-94.756-94.758c-5.857-5.858-15.355-5.858-21.213 0l-194.96 194.96-29.402 16.11c-1.248.684-2.392 1.542-3.398 2.548-17.546 17.545-17.546 46.094 0 63.64l158.09 158.091c14.164 14.165 32.999 21.966 53.033 21.968h161c24.429 0 44.594-19.853 44.985-44.239.008-.237.014-.475.015-.761 0-.213-.004-.425-.011-.652 0 .001.01-58.836.01-59.346zm-130.499-53.388v18.277c0 8.284 6.716 15 15.001 15 8.284 0 14.999-6.716 14.999-15v-11.383c8 .997 16.482 1.494 25.499 1.494 12.02 0 23.321 4.681 31.82 13.18 8.5 8.499 13.18 19.799 13.18 31.849 0 .287-.001 6.247-.002 14.971h-164.759l-159.289-160.205 88.382-88.382c8.278 11.32 9.536 19.928 10.84 28.913 1.528 10.529 3.261 22.462 15.121 34.322 15.055 15.055 36.283 20.904 51.491 23.166-.523 3.789-.951 7.991-1.145 12.426-.744 16.991 2.205 31.634 8.562 43.198l-11.881 11.881c-5.857 5.858-5.857 15.355 0 21.213 2.929 2.929 6.768 4.393 10.607 4.393s7.678-1.464 10.607-4.393l11.025-11.025c8.958 6.826 18.874 12.174 29.942 16.105zm-48.256-267.111 73.543 73.542-70.928 70.928c-9.906-.749-30.541-3.724-42.353-15.536-4.631-4.631-5.344-8.454-6.646-17.42-1.688-11.627-3.901-26.873-19.145-45.987zm148.746 380.721c-.118 8.148-6.842 14.776-14.99 14.776h-161c-12.021 0-23.322-4.682-31.821-13.181l-158.09-158.091c-2.833-2.833-4.393-6.6-4.393-10.607 0-3.405 1.127-6.636 3.204-9.269l19.183-10.511 166.28 167.235c2.815 2.832 6.643 4.424 10.637 4.424h170.992l-.002 14.563c0 .068 0 .136.001.204.001.084.003.168.005.254z"/></g></svg>