<svg xmlns="http://www.w3.org/2000/svg" viewBox="0 0 85.74 90.27"><title>students-benefited</title><path d="M73.05,21.87a3.94,3.94,0,0,0-2.63,1.36c-1,1.22-1.29,3.11-.81,5.6a7.05,7.05,0,0,0,3,5.75v1.71L72.33,36a.4.4,0,0,0-.28-.16.44.44,0,0,0-.31.09l-1.67,1.41a.41.41,0,0,0-.09.51l0,.07c-3.48.17-6.27,3.37-6.27,7.29v6.74a.4.4,0,0,0,.4.41H88.37a.41.41,0,0,0,.41-.41V45.18c0-3.94-2.82-7.15-6.32-7.29l0-.07a.4.4,0,0,0-.09-.51L80.73,35.9a.41.41,0,0,0-.31-.09.37.37,0,0,0-.27.16l-.27.34V34.7A7.06,7.06,0,0,0,83,28.76c0-.1,0-.2,0-.31V28.4c-.08-1.42,0-3.52.54-4.1a.36.36,0,0,0,.11-.29c0-.65-2.39-3.13-4.85-3.94A5,5,0,0,0,73.05,21.87ZM71.94,36.8l3.56,4.63-1.77,1.48-2.88-5.19Zm10.28,1.89c3.17,0,5.74,2.91,5.74,6.49v6.34H83.51V49a.41.41,0,1,0-.81,0v2.54H69.93V49a.41.41,0,0,0-.41-.41.41.41,0,0,0-.41.41v2.54H64.56V45.18c0-3.58,2.58-6.49,5.75-6.49h.15l2.8,5.05a.41.41,0,0,0,.28.2h.08a.44.44,0,0,0,.26-.1l2.36-2,2.36,2a.4.4,0,0,0,.26.1h.07a.41.41,0,0,0,.28-.2L82,38.69ZM80.53,36.8l1.09.92-2.88,5.19L77,41.43Zm-1.46.57-2.83,3.68-2.85-3.7V35.06a6.45,6.45,0,0,0,5.68.1ZM76.33,35a6.05,6.05,0,0,1-5.91-6.14,5.44,5.44,0,0,1,2.9-4.15,1.66,1.66,0,0,0,.49.51c.79.58,2.09.7,3.86.38C80.87,25,82,28,82.21,28.46c0,.16,0,.28,0,.33A6,6,0,0,1,76.33,35ZM73.58,22.52a4.23,4.23,0,0,1,4.1-1.89A9.12,9.12,0,0,1,82.8,24a5.9,5.9,0,0,0-.61,2.74,4.43,4.43,0,0,0-4.66-1.95c-3.29.6-3.59-.67-3.59-.67a.42.42,0,0,0-.19-.29.41.41,0,0,0-.34,0,5.8,5.8,0,0,0-3.21,3,4.5,4.5,0,0,1,.84-3,3.12,3.12,0,0,1,2.21-1.08A.37.37,0,0,0,73.58,22.52Z" transform="translate(-6.61 -3)"/><path d="M70.89,43.82a1.88,1.88,0,1,0,1.88,1.88A1.88,1.88,0,0,0,70.89,43.82Zm0,2.94A1.06,1.06,0,1,1,72,45.7,1.06,1.06,0,0,1,70.89,46.76Z" transform="translate(-6.61 -3)"/><path d="M43.36,50.37A4.76,4.76,0,0,0,40.15,52c-1.25,1.49-1.58,3.8-1,6.84a8.59,8.59,0,0,0,3.62,7V68l-.3-.39a.47.47,0,0,0-.34-.19.58.58,0,0,0-.38.11l-2,1.72a.49.49,0,0,0-.11.62l0,.09c-4.26.21-7.66,4.11-7.66,8.9v8.25a.49.49,0,0,0,.49.49H62.08a.5.5,0,0,0,.5-.49V78.84c0-4.81-3.44-8.73-7.73-8.9l0-.09a.5.5,0,0,0-.11-.62l-2-1.72a.53.53,0,0,0-.37-.11.47.47,0,0,0-.34.19L51.7,68V66a8.63,8.63,0,0,0,3.87-7.26c0-.11,0-.24,0-.37s0,0,0-.07c-.1-1.73,0-4.3.66-5a.54.54,0,0,0,.14-.36c0-.79-2.92-3.83-5.93-4.81A6.07,6.07,0,0,0,43.36,50.37ZM42,68.61l4.35,5.65L44.2,76.07l-3.52-6.34Zm12.55,2.3c3.87,0,7,3.56,7,7.93v7.75H56.14V83.48a.5.5,0,0,0-1,0v3.11H39.55V83.48a.5.5,0,0,0-.5-.49.49.49,0,0,0-.5.49v3.11H33V78.84c0-4.37,3.15-7.93,7-7.93h.19l3.42,6.17a.51.51,0,0,0,.34.25h.09a.47.47,0,0,0,.32-.12l2.88-2.41,2.89,2.41a.47.47,0,0,0,.32.12h.09a.51.51,0,0,0,.34-.25l3.42-6.17Zm-2.06-2.3,1.33,1.12-3.52,6.34-2.16-1.81Zm-1.79.7L47.25,73.8l-3.48-4.53V66.48a8,8,0,0,0,3.59.87,7.83,7.83,0,0,0,3.35-.75Zm-3.35-3a7.38,7.38,0,0,1-7.21-7.49,6.62,6.62,0,0,1,3.54-5.07,2.31,2.31,0,0,0,.6.63c1,.69,2.56.85,4.72.45,3.91-.71,5.33,2.93,5.54,3.55,0,.19,0,.34,0,.41A7.38,7.38,0,0,1,47.36,66.35ZM44,51.16a5.15,5.15,0,0,1,5-2.3c2.95.43,5.68,3.21,6.25,4.07a7.28,7.28,0,0,0-.74,3.35,5.42,5.42,0,0,0-5.7-2.38c-4,.73-4.39-.82-4.39-.82a.49.49,0,0,0-.23-.36.53.53,0,0,0-.41,0,7.16,7.16,0,0,0-3.92,3.72,5.57,5.57,0,0,1,1-3.72,3.86,3.86,0,0,1,2.71-1.32A.45.45,0,0,0,44,51.16Z" transform="translate(-6.61 -3)"/><path d="M40.73,77.19A2.29,2.29,0,1,0,43,79.48,2.3,2.3,0,0,0,40.73,77.19Zm0,3.59a1.3,1.3,0,1,1,1.3-1.3A1.3,1.3,0,0,1,40.73,80.78Z" transform="translate(-6.61 -3)"/><path d="M17.22,74.63a2.36,2.36,0,0,0-1.61.83,4.07,4.07,0,0,0-.5,3.43,4.31,4.31,0,0,0,1.82,3.51v1l-.15-.19a.23.23,0,0,0-.17-.1.22.22,0,0,0-.19.06l-1,.86a.24.24,0,0,0-.06.31l0,0a4.28,4.28,0,0,0-3.84,4.46V93a.25.25,0,0,0,.25.25H26.6a.25.25,0,0,0,.25-.25V88.89A4.29,4.29,0,0,0,23,84.43l0,0a.23.23,0,0,0-.06-.31l-1-.86a.21.21,0,0,0-.18-.06.27.27,0,0,0-.18.1l-.16.21v-1a4.34,4.34,0,0,0,1.94-3.64c0-.06,0-.12,0-.18s0,0,0,0a4.72,4.72,0,0,1,.34-2.51.21.21,0,0,0,.06-.17,5.48,5.48,0,0,0-3-2.42A3.06,3.06,0,0,0,17.22,74.63Zm-.68,9.13,2.18,2.84-1.08.91-1.76-3.18Zm6.29,1.16a3.77,3.77,0,0,1,3.52,4v3.88H23.63V91.22a.25.25,0,0,0-.25-.25.25.25,0,0,0-.25.25v1.55H15.31V91.22a.25.25,0,0,0-.5,0v1.55H12V88.89a3.77,3.77,0,0,1,3.52-4h.1L17.35,88a.27.27,0,0,0,.17.13h.05a.25.25,0,0,0,.16-.06l1.44-1.21,1.45,1.21a.23.23,0,0,0,.16.06h0A.25.25,0,0,0,21,88l1.72-3.09Zm-1-1.16.67.57L20.7,87.51l-1.08-.91Zm-.9.35-1.73,2.26L17.43,84.1V82.7a4,4,0,0,0,1.8.43,3.92,3.92,0,0,0,1.67-.37Zm-1.67-1.47a3.71,3.71,0,0,1-3.62-3.76,3.3,3.3,0,0,1,1.78-2.54,1,1,0,0,0,.29.31,3.16,3.16,0,0,0,2.37.23,2.5,2.5,0,0,1,2.78,1.78c0,.1,0,.17,0,.2A3.71,3.71,0,0,1,19.23,82.64ZM17.55,75a2.59,2.59,0,0,1,2.51-1.15,5.61,5.61,0,0,1,3.13,2,3.54,3.54,0,0,0-.37,1.68A2.72,2.72,0,0,0,20,76.39c-2,.37-2.2-.41-2.2-.41a.25.25,0,0,0-.11-.17.26.26,0,0,0-.21,0,3.61,3.61,0,0,0-2,1.86A2.77,2.77,0,0,1,16,75.78a1.94,1.94,0,0,1,1.36-.66A.23.23,0,0,0,17.55,75Z" transform="translate(-6.61 -3)"/><path d="M15.9,88.06a1.15,1.15,0,1,0,1.15,1.15A1.16,1.16,0,0,0,15.9,88.06Zm0,1.8a.65.65,0,1,1,.65-.65A.65.65,0,0,1,15.9,89.86Z" transform="translate(-6.61 -3)"/><path d="M50.08,21.85h-.2v-3.4a8.38,8.38,0,0,0,3.7-7.1A8.11,8.11,0,0,0,45.73,3a8.11,8.11,0,0,0-7.85,8.35,8.52,8.52,0,0,0,1.6,5c-.15.6-.65,1.9-1.5,2.2a.53.53,0,0,0-.3.35.51.51,0,0,0,.1.45s1,1.35,3.65,1.35h.2v1.15h-.15c-5.25,0-9.7,5.15-9.7,11.25v8.35a.47.47,0,0,0,.5.5h27a.47.47,0,0,0,.5-.5V33.1C59.78,27,55.33,21.85,50.08,21.85Zm1.8,1.25L49.38,26,47.63,23.7a5.7,5.7,0,0,0,1.7-.75l.15-.1h.6A7.44,7.44,0,0,1,51.88,23.1Zm-6,2.4c-.55,0-1.05-.35-1.05-.75s.5-.75,1.05-.75,1,.35,1,.75S46.48,25.5,45.88,25.5Zm-.7.85a3.4,3.4,0,0,0,.75.1,3.86,3.86,0,0,0,.75-.1l.8,8.35-1.55,1.95-1.5-1.9Zm3.7-4.3-.1.05a5.56,5.56,0,0,1-6,0l-.15-.1V19a7.21,7.21,0,0,0,6.2,0Zm3.75-10.7a7.11,7.11,0,0,1-6.85,7.35A7,7,0,0,1,39,12.5c1.65-.4,7.95-2.1,11.8-6A7.56,7.56,0,0,1,52.63,11.35ZM45.78,4a6.71,6.71,0,0,1,4.4,1.7c-3.55,3.6-9.45,5.35-11.2,5.8v-.15A7.07,7.07,0,0,1,45.78,4Zm-6.7,15.1a4.94,4.94,0,0,0,1.2-1.8,6.13,6.13,0,0,0,1.4,1.15V19.7A4.65,4.65,0,0,1,39.08,19.1Zm3,3.75.2.1a5.7,5.7,0,0,0,1.7.75l-1.9,2.4-2.6-3a6.6,6.6,0,0,1,2-.3h.65ZM58.78,41h-4.9v-5.6a.5.5,0,0,0-1,0V41H38.68v-5.6a.5.5,0,0,0-1,0V41h-4.9V33.1a10.61,10.61,0,0,1,5.75-9.6l3.25,3.7a.57.57,0,0,0,.4.15h0a.45.45,0,0,0,.4-.2L44,25.3a.9.9,0,0,0,.25.35l-.85,9.15a.72.72,0,0,0,.1.35l2,2.55a.62.62,0,0,0,.4.2h0a.45.45,0,0,0,.4-.2l2-2.6a.48.48,0,0,0,.1-.35l-.85-9c0-.1.1-.15.15-.25L49.08,27a.62.62,0,0,0,.4.2h0a.57.57,0,0,0,.4-.15L53,23.45c3.25,1.45,5.75,5.35,5.75,9.65Z" transform="translate(-6.61 -3)"/><path d="M21.22,47.31h-.16V44.6a6.7,6.7,0,0,0,3-5.67,6.48,6.48,0,0,0-6.27-6.67,6.48,6.48,0,0,0-6.27,6.67,6.81,6.81,0,0,0,1.28,4c-.12.48-.52,1.52-1.2,1.76a.42.42,0,0,0-.24.28.39.39,0,0,0,.08.35,3.55,3.55,0,0,0,2.92,1.08h.16v.92h-.12c-4.2,0-7.75,4.11-7.75,9V63a.38.38,0,0,0,.4.4H28.57A.38.38,0,0,0,29,63V56.29C29,51.42,25.41,47.31,21.22,47.31Zm1.44,1-2,2.27-1.39-1.79a4.62,4.62,0,0,0,1.35-.6l.12-.08h.48A6,6,0,0,1,22.66,48.31Zm-4.79,1.91c-.44,0-.84-.27-.84-.59s.4-.6.84-.6.84.28.84.6S18.35,50.22,17.87,50.22Zm-.56.68a2.72,2.72,0,0,0,.6.08,3.09,3.09,0,0,0,.6-.08l.64,6.67-1.24,1.56-1.2-1.52Zm3-3.43-.08,0a4.43,4.43,0,0,1-4.75,0l-.12-.08V45a5.92,5.92,0,0,0,2.48.55A5.84,5.84,0,0,0,20.26,45Zm3-8.54a5.68,5.68,0,0,1-5.47,5.87,5.6,5.6,0,0,1-5.39-4.95c1.32-.32,6.35-1.68,9.42-4.83A6,6,0,0,1,23.26,38.93Zm-5.47-5.87a5.34,5.34,0,0,1,3.51,1.36c-2.83,2.87-7.54,4.27-8.94,4.63v-.12A5.64,5.64,0,0,1,17.79,33.06ZM12.44,45.12a4,4,0,0,0,1-1.44,4.91,4.91,0,0,0,1.12.92v1A3.83,3.83,0,0,1,12.44,45.12Zm2.39,3,.16.08a4.56,4.56,0,0,0,1.36.6L14.83,50.7l-2.07-2.39a5.28,5.28,0,0,1,1.56-.24h.51ZM28.17,62.56H24.26V58.09a.4.4,0,0,0-.8,0v4.47H12.12V58.09a.4.4,0,1,0-.8,0v4.47H7.41V56.29A8.48,8.48,0,0,1,12,48.63l2.6,2.95a.43.43,0,0,0,.31.12h0a.36.36,0,0,0,.32-.16l1.16-1.48a.72.72,0,0,0,.2.28l-.68,7.31a.58.58,0,0,0,.08.28l1.64,2a.49.49,0,0,0,.32.16h0a.36.36,0,0,0,.32-.16l1.63-2.07a.38.38,0,0,0,.08-.28l-.67-7.23c0-.08.08-.12.12-.2l1,1.24a.49.49,0,0,0,.32.16h0a.45.45,0,0,0,.32-.12l2.52-2.87a8.53,8.53,0,0,1,4.59,7.7Z" transform="translate(-6.61 -3)"/><path d="M83.72,74.6h-.18v-3a7.46,7.46,0,0,0,3.29-6.32,7,7,0,1,0-14,0,7.57,7.57,0,0,0,1.43,4.45c-.14.54-.58,1.7-1.34,2a.52.52,0,0,0-.27.31.49.49,0,0,0,.09.41A4,4,0,0,0,76,73.58h.18v1h-.13c-4.68,0-8.64,4.59-8.64,10v7.43a.43.43,0,0,0,.45.45h24a.42.42,0,0,0,.44-.45V84.62C92.35,79.19,88.39,74.6,83.72,74.6Zm1.6,1.11-2.23,2.54-1.56-2a5,5,0,0,0,1.52-.67l.13-.09h.54A6.85,6.85,0,0,1,85.32,75.71ZM80,77.85c-.49,0-.94-.31-.94-.67s.45-.66.94-.66.93.31.93.66S80.51,77.85,80,77.85Zm-.63.76a3.39,3.39,0,0,0,.67.09,3.85,3.85,0,0,0,.67-.09L81.4,86,80,87.78l-1.34-1.69Zm3.3-3.83-.09,0a4.93,4.93,0,0,1-5.3,0l-.13-.08V72.06a6.36,6.36,0,0,0,5.52,0ZM86,65.25a6.33,6.33,0,0,1-6.1,6.55,6.25,6.25,0,0,1-6-5.52c1.47-.36,7.08-1.87,10.5-5.39A6.73,6.73,0,0,1,86,65.25Zm-6.1-6.54a6,6,0,0,1,3.91,1.51c-3.16,3.21-8.41,4.76-10,5.17v-.14A6.3,6.3,0,0,1,79.89,58.71Zm-6,13.44A4.37,4.37,0,0,0,75,70.55a5.28,5.28,0,0,0,1.25,1v1.12A4.11,4.11,0,0,1,73.92,72.15Zm2.67,3.34.18.09a5.07,5.07,0,0,0,1.51.67l-1.69,2.14-2.31-2.68A6.1,6.1,0,0,1,76,75.45h.58ZM91.46,91.61H87.1v-5a.45.45,0,0,0-.89,0v5H73.56v-5a.41.41,0,0,0-.44-.44.42.42,0,0,0-.45.44v5H68.31v-7a9.45,9.45,0,0,1,5.12-8.55l2.89,3.3a.57.57,0,0,0,.36.13h0a.43.43,0,0,0,.36-.18l1.29-1.65a.74.74,0,0,0,.22.32l-.76,8.14a.63.63,0,0,0,.09.31l1.83,2.28a.58.58,0,0,0,.35.17h0a.41.41,0,0,0,.36-.17l1.83-2.32a.42.42,0,0,0,.09-.31L81.58,78c0-.09.09-.13.13-.22l1.12,1.38a.52.52,0,0,0,.35.18h0a.52.52,0,0,0,.36-.14l2.8-3.2a9.48,9.48,0,0,1,5.12,8.59Z" transform="translate(-6.61 -3)"/></svg>