<svg xmlns="http://www.w3.org/2000/svg" viewBox="0 0 70.02 90"><title>survey-reports</title><path d="M21,5a6,6,0,0,0-6,6V89a6,6,0,0,0,6,6H79a6,6,0,0,0,6-6V11a6,6,0,0,0-6-6Zm0,4H79a2,2,0,0,1,2,2V89a2,2,0,0,1-2,2H21a1.94,1.94,0,0,1-2-2V11A1.94,1.94,0,0,1,21,9Zm4,6a2.17,2.17,0,0,0-2,2V31a2.07,2.07,0,0,0,2,2H43a2.07,2.07,0,0,0,2-2V17a2.09,2.09,0,0,0-2-2Zm2,4H41V29H27Zm24,3a2,2,0,0,0-2,2,2,2,0,0,0,2,2H75a2,2,0,0,0,2-2,2,2,0,0,0-2-2ZM46.81,37a2.13,2.13,0,0,0-1.49.89L37.46,49.22l-4.33-2.91a2.11,2.11,0,0,0-2.8.54,2.07,2.07,0,0,0,.54,2.8l6,4a2.08,2.08,0,0,0,2.8-.53l9-13A2,2,0,0,0,48.76,38,2.09,2.09,0,0,0,46.81,37ZM25,39a2.15,2.15,0,0,0-2,2V59a2.05,2.05,0,0,0,2,2H43a2.05,2.05,0,0,0,2-2V57A2.12,2.12,0,0,0,43,55,2.06,2.06,0,0,0,41,57H27V43H37a2,2,0,1,0,0-4Zm26,9a2,2,0,0,0,0,4H75a2,2,0,1,0,0-4ZM25,67a2.13,2.13,0,0,0-2,2V83a2.09,2.09,0,0,0,2,2H43a2.09,2.09,0,0,0,2-2V69a2.07,2.07,0,0,0-2-2Zm2,4H41V81H27Zm24,3a2,2,0,0,0-2,2,2,2,0,0,0,2,2H75a2,2,0,0,0,2-2,2,2,0,0,0-2-2Z" transform="translate(-14.99 -5)"/></svg>