<svg xmlns="http://www.w3.org/2000/svg" viewBox="0 0 92.25 92.25"><title>videos</title><path d="M90.62.75H3.12A2.38,2.38,0,0,0,.75,3.13v87.5a2.37,2.37,0,0,0,.68,1.67,2.3,2.3,0,0,0,1.65.7H90.62A2.38,2.38,0,0,0,93,90.63V3.13A2.39,2.39,0,0,0,90.62.75ZM19.5,88.26H5.5v-14h14Zm0-18.75H5.5V49.26h14Zm0-25H5.5V24.26h14Zm0-25H5.5V5.5h14Zm50,68.74H24.24V5.5H69.49Zm18.76,0h-14v-14h14Zm0-18.75h-14V49.26h14Zm0-25h-14V24.26h14Zm0-25h-14V5.5h14Z" transform="translate(-0.75 -0.75)"/><path d="M58.25,45.56a2.27,2.27,0,0,0-.65-.66L38.81,32.4a2.45,2.45,0,0,0-1.34-.4h0a2.39,2.39,0,0,0-2.35,2.38v25a2.37,2.37,0,0,0,2.37,2.37,2.34,2.34,0,0,0,1.31-.39L57.56,48.85a2.36,2.36,0,0,0,1-1.51A2.33,2.33,0,0,0,58.25,45.56ZM39.87,55V38.85L52,46.91Z" transform="translate(-0.75 -0.75)"/></svg>