<svg xmlns="http://www.w3.org/2000/svg" viewBox="0 0 84 88"><title>water-sanitation-hygeine</title><path d="M41.93,0a2,2,0,0,0-1.67.91S27.38,20.75,19.2,36.25h0C13.83,46.41,15,55.71,20,62.17S33.25,72.33,41.91,72.45H42c8.66-.12,17-3.81,21.94-10.28s6.14-15.76.78-25.92h0C56.5,20.75,43.62.91,43.62.91A2,2,0,0,0,41.93,0Zm0,5.71c3.68,5.78,12.89,20.44,19.21,32.41h0c4.81,9.1,3.63,16.33-.42,21.62s-11.26,8.6-18.79,8.71c-7.53-.11-14.74-3.41-18.78-8.7s-5.23-12.53-.43-21.63h0C29,26.12,38.25,11.49,41.93,5.71Z" transform="translate(0 0)" style="fill:#fff;fill-rule:evenodd"/><path d="M71.78,65.67a2,2,0,0,0-.56,3.92,24.68,24.68,0,0,1,6.93,3c1.46,1,1.85,1.85,1.85,2.4s-.49,1.46-2.23,2.59a30,30,0,0,1-8,3.23C62.77,82.78,52.89,84,42,84s-20.77-1.22-27.76-3.14a29.72,29.72,0,0,1-8-3.23C4.49,76.5,4,75.57,4,75s.38-1.38,1.81-2.41a24.15,24.15,0,0,1,6.84-3,2,2,0,0,0-1-3.88l-.1,0H11.5a27.11,27.11,0,0,0-8,3.61C1.46,70.83,0,72.76,0,75c0,2.5,1.75,4.46,4.05,6a33.19,33.19,0,0,0,9.13,3.73C20.67,86.77,30.8,88,42,88s21.32-1.23,28.81-3.28A32.86,32.86,0,0,0,79.94,81C82.25,79.5,84,77.54,84,75c0-2.31-1.5-4.21-3.53-5.66a28.08,28.08,0,0,0-8.1-3.62A1.94,1.94,0,0,0,71.78,65.67Z" transform="translate(0 0)" style="fill:#fff;fill-rule:evenodd"/><path d="M22.21,71.15a2,2,0,0,0-.76.16,2.35,2.35,0,0,0-.64.44,2.12,2.12,0,0,0-.57,1.43,4.48,4.48,0,0,0,2.51,3.7,17.74,17.74,0,0,0,4.78,1.87A59.71,59.71,0,0,0,42,80.32a59.71,59.71,0,0,0,14.47-1.57,17.74,17.74,0,0,0,4.78-1.87,4.48,4.48,0,0,0,2.51-3.7,2.12,2.12,0,0,0-.14-.75,2,2,0,0,0-1-1.09,1.87,1.87,0,0,0-.74-.18,2,2,0,0,0-.76.12,1.88,1.88,0,0,0-.65.39,2.16,2.16,0,0,0-.47.61,1.65,1.65,0,0,1-.81,1.2,14.71,14.71,0,0,1-3.69,1.4A56.29,56.29,0,0,1,42,76.32a56.55,56.55,0,0,1-13.47-1.44,14.78,14.78,0,0,1-3.68-1.4,1.5,1.5,0,0,1-.8-1.2,2.2,2.2,0,0,0-.45-.6,2,2,0,0,0-.64-.4A1.91,1.91,0,0,0,22.21,71.15Z" transform="translate(0 0)" style="fill:#fff;fill-rule:evenodd"/><path d="M33.48,29a2,2,0,0,0-1.69,1h0a1.47,1.47,0,0,0-.1.22l.07-.17v.07l-.39.58-1.32,2a70.38,70.38,0,0,0-3.62,6.53,30.74,30.74,0,0,0-2.72,7.91c-.45,2.67-.28,5.47,1.5,7.59a2,2,0,1,0,3.1-2.53h0c-.71-.84-1-2.29-.62-4.34A27.79,27.79,0,0,1,30,41.05a62.2,62.2,0,0,1,3.4-6.14c.51-.81,1-1.48,1.27-2l.38-.58.13-.19c0-.06,0,.09.21-.4a2,2,0,0,0-1.12-2.6A1.94,1.94,0,0,0,33.48,29Z" transform="translate(0 0)" style="fill:#fff;fill-rule:evenodd"/></svg>