<svg xmlns="http://www.w3.org/2000/svg" viewBox="0 0 83.18 92.72"><title>workforce</title><path d="M17,17.21a3.6,3.6,0,0,0,1.11,6.85,7.86,7.86,0,0,0,2,3.4L23,30.28a3.56,3.56,0,0,0,2.56,1.06H28.9a3.58,3.58,0,0,0,2.56-1.06l2.82-2.82a7.94,7.94,0,0,0,2-3.4A3.59,3.59,0,0,0,38,17.59h0V15.42A10.84,10.84,0,0,0,19.13,8.18H12v.73A9.41,9.41,0,0,0,17,17.21Zm-.65,3.28a2.16,2.16,0,0,1,1.44-2v3.38c0,.24,0,.47,0,.7A2.16,2.16,0,0,1,16.35,20.49Zm16.91,6-2.83,2.82a2.18,2.18,0,0,1-1.53.63H25.51A2.2,2.2,0,0,1,24,29.26l-2.82-2.82a6.48,6.48,0,0,1-1.91-4.61V18.05a9.14,9.14,0,0,0,2.17.26H35.16v3.52A6.47,6.47,0,0,1,33.26,26.44Zm3.32-3.91c0-.23,0-.46,0-.7V18.45a2.15,2.15,0,0,1,0,4.08ZM26.48,9.63V8.18H21.21a9.39,9.39,0,0,1,15.4,7.24v1.52a3.38,3.38,0,0,0-.72-.07H21.41a8,8,0,0,1-7.93-7.24Z" transform="translate(-7.35 -4.56)"/><path d="M45.28,39.86a8,8,0,0,0-5.34-6.24l-6.22-2.08v-.92H32.27v1.19c-.4.44-1.83,1.7-5.07,1.7s-4.66-1.26-5.06-1.7V30.62H20.69v.92l-6.23,2.08a8,8,0,0,0-5.33,6.24l-1.6,9.58H46.88Zm-24.09-7c.71.72,2.51,2.06,6,2.06s5.31-1.34,6-2.06l2.59.87-2,8.44H31.77l1.92-7.05-1.4-.38-2,7.43H24.14l-2-7.43-1.4.38,1.93,7.05h-2.1l-1.95-8.44ZM20,44.37a.73.73,0,0,1,.73-.72h3a5,5,0,0,0-1.52,3.62,4.37,4.37,0,0,0,.06.72H20Zm3.62,2.9a3.62,3.62,0,1,1,7.24,0,3.53,3.53,0,0,1-.08.72H23.67A3.55,3.55,0,0,1,23.58,47.27Zm7.16-3.62h3a.72.72,0,0,1,.72.72V48H32.21a5.83,5.83,0,0,0,.06-.72A5.05,5.05,0,0,0,30.74,43.65ZM10.55,40.1A6.52,6.52,0,0,1,14.92,35l2.3-.76,2,8.57a2.18,2.18,0,0,0-.67,1.57V48H15.7l.64-6.44L14.9,41.4,14.24,48h-5ZM40.16,48,39.5,41.4l-1.44.15L38.71,48H35.89V44.37a2.15,2.15,0,0,0-.68-1.57l2-8.57,2.3.76a6.52,6.52,0,0,1,4.36,5.11L45.17,48Z" transform="translate(-7.35 -4.56)"/><path d="M88.42,88.16a7.56,7.56,0,0,0-5.08-6l-5.93-2v-.89H76v1.3l-.73,2.89a2.25,2.25,0,0,0-.62.2l-.38.19-2.09-2.51h-2L68.1,83.93l-.37-.19a2.43,2.43,0,0,0-.63-.2l-.73-2.89v-1.3H65v.89l-5.94,2a7.56,7.56,0,0,0-5.08,6l-1.52,9.12H89.94ZM73.27,86l2-1a1.13,1.13,0,0,1,.44-.1,1,1,0,0,1,1,1V88a1,1,0,0,1-1.43.88l-2-1ZM70.83,82.8h.74L73,84.56l-.61.31H70l-.62-.31Zm1.06,3.45v1.38H70.51V86.25ZM69.13,86v1.9l-2,1A1,1,0,0,1,65.68,88V85.85a1,1,0,0,1,1-1,1.13,1.13,0,0,1,.44.1Zm-13.79,2.4a6.18,6.18,0,0,1,4.14-4.86v6.1l-.63,6.27H54.09Zm13,7.51-.6-4.23-1.37.19.58,4H60.24l.62-6.2V83.07l4.34-1.45.51,2.08a2.35,2.35,0,0,0-1.4,2.15V88a2.37,2.37,0,0,0,2.36,2.37,2.46,2.46,0,0,0,1.06-.25L70,89h2.44l2.26,1.13A2.36,2.36,0,0,0,78.1,88V85.85a2.35,2.35,0,0,0-1.41-2.15l.52-2.08,4.33,1.45v6.7l.61,6.13H75.44l.58-4-1.36-.19-.61,4.23h-5.7Zm15.2,0-.63-6.2V83.53a6.16,6.16,0,0,1,4.14,4.86l1.26,7.51Z" transform="translate(-7.35 -4.56)"/><path d="M62.54,73.11a7.44,7.44,0,0,0,1.92,3.23L67.15,79a3.42,3.42,0,0,0,2.44,1h3.23a3.45,3.45,0,0,0,2.44-1l2.68-2.69a7.44,7.44,0,0,0,1.92-3.23,3.43,3.43,0,0,0,1.66-6.17h0V64.87a10.34,10.34,0,0,0-20.68,0v1.5a5.25,5.25,0,0,0,0,.56,3.43,3.43,0,0,0,1.65,6.18ZM77,75.37l-2.69,2.69a2,2,0,0,1-1.46.6H69.59a2.06,2.06,0,0,1-1.47-.6l-2.69-2.69A6.16,6.16,0,0,1,63.62,71v-.59a2.76,2.76,0,0,1,2.75-2.76h2.19a12,12,0,0,0,5.32-1.25l1.25-.63a5.33,5.33,0,0,0,3.66,1.86V71A6.17,6.17,0,0,1,77,75.37Zm3.16-3.72c0-.22,0-.44,0-.67V67.76a2.06,2.06,0,0,1,0,3.89ZM62.24,64.87a9,9,0,0,1,17.93,0v1.45a4,4,0,0,0-.69-.07H79.2a4,4,0,0,1-3.29-1.76L75.58,64l-2.32,1.16a10.51,10.51,0,0,1-4.7,1.11H66.37a4.15,4.15,0,0,0-3.6,2.11,3.93,3.93,0,0,1-.53-2Zm-1,3.6a5.72,5.72,0,0,0,1,1.52,2.61,2.61,0,0,0,0,.4V71c0,.23,0,.45,0,.67a2.05,2.05,0,0,1-1.41-2A2.1,2.1,0,0,1,61.28,68.47Z" transform="translate(-7.35 -4.56)"/><rect x="63.16" y="88.58" width="1.38" height="1.38"/><rect x="63.16" y="85.82" width="1.38" height="1.38"/><path d="M89,40.16a7.68,7.68,0,0,0-5.16-6l-6-2v-.9h-1.4v1.32l-1,4.18-2.84-3.4h-2l-2.84,3.4-1-4.18V31.21h-1.4v.9l-6,2a7.68,7.68,0,0,0-5.16,6l-1.55,9.28H90.53ZM65.37,33.52l1.55,6.21,4.18-5h.75l4.18,5,1.55-6.21,5.06,1.68L82,41.73l.63,6.3H75c0-.49,0-1,0-1.4h6.28v-1.4H75.07c0-.51.06-1,.09-1.4h6.13v-1.4h-6a10.48,10.48,0,0,1,.34-1.89L75,40.32l-.66-.22c0,.09-.69,2.13-.74,7.93h-1.4V36.82H70.77V48h-1.4c-.05-5.8-.71-7.84-.73-7.93l-1.34.44a10.88,10.88,0,0,1,.35,1.89h-6v1.4h6.13c0,.42.07.89.09,1.4H61.66v1.4h6.28c0,.44,0,.91,0,1.4H60.33l.63-6.3-.65-6.53Zm-10,6.88A6.32,6.32,0,0,1,59,35.7l.6,6L58.92,48H54.08ZM84,48l-.63-6.3.6-6a6.32,6.32,0,0,1,3.6,4.7L88.87,48Z" transform="translate(-7.35 -4.56)"/><path d="M60.36,19.19a3.47,3.47,0,0,0,2.31,5.67,7.7,7.7,0,0,0,2,3.29l2.73,2.73a3.48,3.48,0,0,0,2.48,1h3.29a3.48,3.48,0,0,0,2.48-1l2.73-2.73a7.7,7.7,0,0,0,2-3.29,3.49,3.49,0,0,0,3.11-3.46,3.46,3.46,0,0,0-.8-2.21,2.09,2.09,0,0,0-.6-4.1h-.1a10.57,10.57,0,0,0-7.61-8.72V6H68.67v.4a10.57,10.57,0,0,0-7.61,8.72H61a2.09,2.09,0,0,0-.6,4.1ZM61,21.4a2.1,2.1,0,0,1,1.4-2V22.7c0,.23,0,.45,0,.68A2.09,2.09,0,0,1,61,21.4Zm16.38,5.76L74.6,29.89a2.12,2.12,0,0,1-1.48.62H69.83a2.12,2.12,0,0,1-1.48-.62l-2.74-2.73a6.28,6.28,0,0,1-1.85-4.46V19.29H79.19V22.7A6.28,6.28,0,0,1,77.34,27.16Zm3.22-3.78c0-.23,0-.45,0-.68V19.42a2.09,2.09,0,0,1,0,4ZM68.67,7.83v5.85h1.4V7.37h2.81v6.31h1.4V7.83a9.15,9.15,0,0,1,6.2,7.26h-18A9.15,9.15,0,0,1,68.67,7.83ZM61,16.49H82a.7.7,0,0,1,0,1.4H61a.7.7,0,0,1,0-1.4Z" transform="translate(-7.35 -4.56)"/><rect x="68.33" y="7.72" width="1.4" height="1.4"/><rect x="58.51" y="7.72" width="1.4" height="1.4"/><path d="M41.82,88.54A7.28,7.28,0,0,0,37,82.84L31.26,81V80.1H29.94v1.24l-1,4-2.67-3.2H24.34l-2.67,3.2-1-4V80.1H19.37V81l-5.69,1.89a7.26,7.26,0,0,0-4.87,5.7L7.35,97.28H43.27ZM19.56,82.28l.7,2.81-2-2.37ZM21,88.13l.06-.06L27.84,96H25L14.7,83.9l2.2-.74,0,0L21,88Zm-10.91.63a5.92,5.92,0,0,1,3.28-4.37L23.22,96H14.81l.59-5.88L14.08,90l-.6,6H8.91Zm27,7.2-.6-6-1.31.13L35.82,96H29.58L21.94,87l3-3.63h.7l3.94,4.72,1.47-5.85,5.46,1.82a5.93,5.93,0,0,1,4,4.66l1.2,7.2Z" transform="translate(-7.35 -4.56)"/><path d="M15.4,66.47v1.76A3.28,3.28,0,0,0,17,74.12a7.23,7.23,0,0,0,1.83,3.1l2.58,2.58a3.28,3.28,0,0,0,2.34,1h3.09a3.32,3.32,0,0,0,2.34-1l2.57-2.58a7.25,7.25,0,0,0,1.84-3.1,3.27,3.27,0,0,0,1.61-5.89V66.47c2.56-1.1,4-2.58,4-4.21,0-3.33-6.1-5.94-13.88-5.94s-13.87,2.61-13.87,5.94C11.44,63.89,12.85,65.37,15.4,66.47Zm0,4.38A2,2,0,0,1,16.72,69v3.09c0,.22,0,.43,0,.64A2,2,0,0,1,15.4,70.85Zm15.44,5.44-2.58,2.57a1.93,1.93,0,0,1-1.4.58H23.77a2,2,0,0,1-1.41-.58l-2.57-2.57a5.9,5.9,0,0,1-1.74-4.21V68.37a32.59,32.59,0,0,1,14.53,0v3.71A5.94,5.94,0,0,1,30.84,76.29Zm3-3.57c0-.21,0-.42,0-.64V69a2,2,0,0,1,0,3.73ZM25.31,57.64c7.4,0,12.56,2.44,12.56,4.62,0,1-1,2-2.72,2.8l-.38-.12a27.72,27.72,0,0,0-4.74-1l-.18,1.31a29.17,29.17,0,0,1,4,.83v1.27a34.09,34.09,0,0,0-17.18,0V66.06a29.76,29.76,0,0,1,4.06-.83l-.18-1.31a28.93,28.93,0,0,0-4.74,1l-.38.12c-1.74-.82-2.72-1.82-2.72-2.8C12.76,60.08,17.92,57.64,25.31,57.64Z" transform="translate(-7.35 -4.56)"/><path d="M25.31,65.57A3.31,3.31,0,1,0,22,62.26,3.31,3.31,0,0,0,25.31,65.57Zm0-5.29a2,2,0,1,1-2,2A2,2,0,0,1,25.31,60.28Z" transform="translate(-7.35 -4.56)"/><rect x="17.3" y="83.47" width="1.32" height="1.32"/><rect x="17.3" y="80.83" width="1.32" height="1.32"/></svg>