<svg xmlns="http://www.w3.org/2000/svg" viewBox="0 0 1920.02 45.08"><title>impact-stories-line</title><path d="M0,44.52c1,0,2-.06,3-.11" transform="translate(-0.01 0)" style="fill:none;stroke:#fff;stroke-miterlimit:10"/><path d="M9,43.91C55.41,38.78,119.5,4.05,202.51,2,264,.52,376,44.52,481,44.52s168-45,245-44,148,44,245,44,142-44,234-44c83,0,145,46,237,44s147-43,230-44c80.77-1,169.12,40.67,242,43.83" transform="translate(-0.01 0)" style="fill:none;stroke:#fff;stroke-miterlimit:10;stroke-dasharray:6.007305145263672,6.007305145263672"/><path d="M1917,44.43l3,.06" transform="translate(-0.01 0)" style="fill:none;stroke:#fff;stroke-miterlimit:10"/></svg>